<svg xmlns="http://www.w3.org/2000/svg" width="48" height="48" fill="none" xmlns:v="https://vecta.io/nano"><g clip-path="url(#A)"><path fill-rule="evenodd" d="M18.51 6.219a1 1 0 0 1 0 1.732l-3.75 2.165c-.009.005-.014.014-.014.024v1.89a.75.75 0 1 1-1.5 0v-4l.002-.049.012-.192V4.92a1 1 0 0 1 1.5-.866l3.75 2.165zm-4.941 9.037l-2.616 3.884-.002.002-.069.103-.415.616a.5.5 0 0 0 .415.779h.742.124.003 4.466.003.124.742a.5.5 0 0 0 .415-.779l-.415-.616-.069-.103-.002-.002-2.616-3.884a.5.5 0 0 0-.829 0zm5.175 3.767l-3.102-4.605a2 2 0 0 0-3.318 0l-3.102 4.605c-.895 1.328.057 3.117 1.659 3.117h6.204c1.602 0 2.554-1.789 1.659-3.117zm1.873 7.08a2.75 2.75 0 0 1 2.75-2.75h13a2.75 2.75 0 0 1 2.75 2.75v4a2.75 2.75 0 0 1-2.75 2.75h-13a2.75 2.75 0 0 1-2.75-2.75v-4zm2.75-1.25a1.25 1.25 0 0 0-1.25 1.25v4a1.25 1.25 0 0 0 1.25 1.25h13a1.25 1.25 0 0 0 1.25-1.25v-4a1.25 1.25 0 0 0-1.25-1.25h-13zm-11.3-1.5a2.75 2.75 0 0 0-2.75 2.75v15.229a2.75 2.75 0 0 0 2.75 2.75h5.99l.059-.002.225-.017h7.049a2.75 2.75 0 0 0 2.75-2.75v-4a2.75 2.75 0 0 0-2.75-2.75h-5.323a1.25 1.25 0 0 1-1.25-1.25v-7.21a2.75 2.75 0 0 0-2.75-2.75h-4zm-1.25 2.75a1.25 1.25 0 0 1 1.25-1.25h4a1.25 1.25 0 0 1 1.25 1.25v7.21a2.75 2.75 0 0 0 2.75 2.75h5.323a1.25 1.25 0 0 1 1.25 1.25v4a1.25 1.25 0 0 1-1.25 1.25h-7.314l-.059.002-.225.017h-5.725a1.25 1.25 0 0 1-1.25-1.25V26.103zm21.55 8.397a2.75 2.75 0 0 0-2.75 2.75v4a2.75 2.75 0 0 0 2.75 2.75h4a2.75 2.75 0 0 0 2.75-2.75v-4a2.75 2.75 0 0 0-2.75-2.75h-4zm-1.25 2.75a1.25 1.25 0 0 1 1.25-1.25h4a1.25 1.25 0 0 1 1.25 1.25v4a1.25 1.25 0 0 1-1.25 1.25h-4a1.25 1.25 0 0 1-1.25-1.25v-4z" fill="#2e3338"/></g><defs><clipPath id="A"><rect width="48" height="48" rx="4" fill="#fff"/></clipPath></defs></svg>