<svg xmlns="http://www.w3.org/2000/svg" width="48" height="48" fill="none" xmlns:v="https://vecta.io/nano"><path fill-rule="evenodd" d="M17.141 7.972c0 1.657-1.119 3-2.5 3s-2.5-1.343-2.5-3 1.119-3 2.5-3 2.5 1.343 2.5 3zm7.088 3.75c-.517 0-1.026.031-1.526.09a.75.75 0 1 1-.178-1.489 14.39 14.39 0 0 1 1.703-.101c3.366 0 6.462 1.168 8.901 3.121a.75.75 0 0 1-.938 1.171c-2.182-1.747-4.95-2.792-7.963-2.792zm-13.041 9.166a.75.75 0 0 1 .576.891c-.186.867-.285 1.768-.285 2.693a12.73 12.73 0 0 0 .706 4.196.75.75 0 1 1-1.416.494c-.512-1.469-.79-3.048-.79-4.689a14.3 14.3 0 0 1 .318-3.008.75.75 0 0 1 .891-.576zm23.229 12.473a.75.75 0 0 1 .013 1.061 14.25 14.25 0 0 1-5.941 3.652.75.75 0 0 1-.448-1.431 12.75 12.75 0 0 0 5.315-3.268.75.75 0 0 1 1.061-.013zm-16.823 1.004c1.381 0 2.5-1.343 2.5-3s-1.119-3-2.5-3-2.5 1.343-2.5 3 1.119 3 2.5 3zm21.067-13.672c0 1.657-1.119 3-2.5 3s-2.5-1.343-2.5-3 1.119-3 2.5-3 2.5 1.343 2.5 3zM8.188 14.94c1.576-1.576 3.806-2.904 6.324-2.904s4.749 1.328 6.324 2.904c1.051 1.052.168 2.59-1.319 2.59H9.507c-1.487 0-2.37-1.539-1.319-2.59zm9.252 20.411c-2.519 0-4.749 1.328-6.324 2.904-1.051 1.051-.168 2.59 1.319 2.59h10.01c1.487 0 2.37-1.539 1.319-2.59-1.576-1.576-3.806-2.904-6.324-2.904zm12.119-7.754c1.576-1.576 3.806-2.904 6.324-2.904s4.749 1.328 6.324 2.904c1.051 1.052.168 2.59-1.319 2.59h-10.01c-1.487 0-2.37-1.539-1.319-2.59z" fill="#2e3338"/></svg>