<svg width="48" height="48" viewBox="0 0 48 48" fill="none" xmlns="http://www.w3.org/2000/svg">
<path fill-rule="evenodd" clip-rule="evenodd" d="M24 46.5C36.4264 46.5 46.5 36.4264 46.5 24C46.5 11.5736 36.4264 1.5 24 1.5C11.5736 1.5 1.5 11.5736 1.5 24C1.5 36.4264 11.5736 46.5 24 46.5ZM48 24C48 37.2548 37.2548 48 24 48C10.7452 48 0 37.2548 0 24C0 10.7452 10.7452 0 24 0C37.2548 0 48 10.7452 48 24ZM15.1574 17.5L23.1817 24.3272C23.6483 24.7241 24.3338 24.7245 24.8008 24.3279L32.8413 17.5H15.1574ZM34 18.4839L25.7718 25.4713C24.7444 26.3437 23.2362 26.343 22.2097 25.4696L14 18.4847V30C14 30.2761 14.2239 30.5 14.5 30.5H33.5C33.7761 30.5 34 30.2761 34 30V18.4839ZM14.5 16C13.3954 16 12.5 16.8954 12.5 18V30C12.5 31.1046 13.3954 32 14.5 32H33.5C34.6046 32 35.5 31.1046 35.5 30V18C35.5 16.8954 34.6046 16 33.5 16H14.5Z" fill="#2E3338"/>
</svg>
