<svg xmlns="http://www.w3.org/2000/svg" width="48" height="48" fill="none" xmlns:v="https://vecta.io/nano"><path fill-rule="evenodd" d="M24 46.5c12.426 0 22.5-10.074 22.5-22.5S36.426 1.5 24 1.5 1.5 11.574 1.5 24 11.574 46.5 24 46.5zM48 24c0 13.255-10.745 24-24 24S0 37.255 0 24 10.745 0 24 0s24 10.745 24 24zM26.445 10.373c.02-.148.03-.299.03-.453 0-1.597-1.11-2.892-2.479-2.892s-2.479 1.295-2.479 2.892a3.32 3.32 0 0 0 .148.988c.336 1.126 1.254 1.934 2.333 1.934 1.244 0 2.273-1.073 2.445-2.468zm2.268 8.875c-.443-.443-1.127-.084-1.127.542v4.92l1.417 13.593a1.54 1.54 0 0 1-1.37 1.689 1.54 1.54 0 0 1-1.689-1.37l-1.216-11.669a.74.74 0 0 0-1.471-.001l-1.224 11.67a1.54 1.54 0 0 1-1.69 1.369 1.54 1.54 0 0 1-1.369-1.69l1.436-13.691v-4.824c0-.624-.68-.98-1.121-.54l-4.227 4.227a1.54 1.54 0 0 1-2.175 0 1.54 1.54 0 0 1 0-2.175l4.227-4.227c3.805-3.804 9.973-3.804 13.777 0l4.226 4.227a1.54 1.54 0 0 1 0 2.175 1.54 1.54 0 0 1-2.175 0l-4.227-4.227z" fill="#111214"/></svg>