<svg xmlns="http://www.w3.org/2000/svg" width="48" height="48" fill="none" xmlns:v="https://vecta.io/nano"><path fill-rule="evenodd" d="M11.75 10a.25.25 0 0 1 .25-.25h25a.25.25 0 0 1 .25.25v15a.25.25 0 0 1-.25.25H18.1a.75.75 0 1 0 0 1.5H37A1.75 1.75 0 0 0 38.75 25V10A1.75 1.75 0 0 0 37 8.25H12A1.75 1.75 0 0 0 10.25 10v6.19a.75.75 0 1 0 1.5 0V10zm2.373 13.035c0 1.515-1.075 2.743-2.401 2.743s-2.401-1.228-2.401-2.743 1.075-2.743 2.401-2.743 2.401 1.228 2.401 2.743zm11.622 9.592c0 1.515-1.075 2.744-2.401 2.744s-2.401-1.228-2.401-2.744 1.075-2.743 2.401-2.743 2.401 1.228 2.401 2.743zm8.696 2.744c1.326 0 2.401-1.228 2.401-2.744s-1.075-2.743-2.401-2.743-2.401 1.228-2.401 2.743 1.075 2.744 2.401 2.744zm-22.719-8.543c-2.048 0-3.878 1.005-5.232 2.255-1.092 1.008-.22 2.546 1.267 2.546h7.931c1.487 0 2.359-1.538 1.267-2.546-1.354-1.25-3.184-2.255-5.232-2.255zm6.391 11.484c1.354-1.25 3.184-2.255 5.232-2.255 2.23 0 4.201 1.191 5.58 2.592a1.67 1.67 0 0 1 .283-.337c1.354-1.25 3.184-2.255 5.232-2.255s3.878 1.005 5.232 2.255c1.093 1.008.22 2.547-1.267 2.547h-7.86-.072H19.38c-1.487 0-2.359-1.538-1.267-2.547z" fill="#111214"/></svg>