<?xml version="1.0" standalone="no"?>
<!DOCTYPE svg PUBLIC "-//W3C//DTD SVG 20010904//EN"
 "http://www.w3.org/TR/2001/REC-SVG-20010904/DTD/svg10.dtd">
<svg version="1.0" xmlns="http://www.w3.org/2000/svg"
 width="323.000000pt" height="181.000000pt" viewBox="0 0 323.000000 181.000000"
 preserveAspectRatio="xMidYMid meet">
<metadata>
Created by potrace 1.16, written by Peter Selinger 2001-2019
</metadata>
<g transform="translate(0.000000,181.000000) scale(0.100000,-0.100000)"
fill="#000000" stroke="none">
<path d="M1160 1330 l0 -70 50 0 50 0 0 -415 0 -415 80 0 80 0 0 485 0 485
-130 0 -130 0 0 -70z"/>
<path d="M1709 1187 c-86 -117 -165 -230 -176 -252 -53 -105 -54 -217 -3 -321
143 -292 583 -262 686 48 25 75 17 197 -18 268 -54 109 -165 190 -283 205
l-55 7 67 86 c37 48 82 106 101 130 l34 42 -98 0 -99 -1 -156 -212z m229 -213
c164 -68 179 -315 24 -393 -125 -62 -256 -4 -297 131 -51 171 113 329 273 262z"/>
<path d="M658 1151 c-75 -24 -119 -53 -167 -108 -105 -119 -128 -280 -59 -421
30 -64 111 -142 183 -178 54 -26 70 -29 155 -29 83 0 103 4 154 28 70 32 76
33 76 7 0 -18 7 -20 75 -20 l75 0 0 360 0 360 -75 0 c-73 0 -75 -1 -75 -24 l0
-25 -67 31 c-86 40 -189 48 -275 19z m236 -178 c77 -54 113 -140 94 -228 -38
-177 -253 -234 -376 -101 -80 87 -82 202 -4 288 54 60 103 80 181 74 49 -3 72
-10 105 -33z"/>
<path d="M2290 1070 l0 -70 176 -2 176 -3 -176 -213 -176 -213 0 -70 0 -69
275 0 275 0 0 70 0 70 -175 2 -176 3 175 210 176 210 0 73 0 72 -275 0 -275 0
0 -70z"/>
</g>
</svg>
