<svg width="510" height="91" viewBox="0 0 510 91" fill="none" xmlns="http://www.w3.org/2000/svg">
<path d="M116.7 29.2258H132.4V70.5258H142.4V29.2258H158.1V20.7258H116.7V29.2258Z" fill="white"/>
<path d="M197 40.8258H175.1V20.7258H165.1V70.5258H175.1V49.5258H197V70.5258H207V20.7258H197V40.8258Z" fill="white"/>
<path d="M225.3 49.2258H247.2V41.1258H225.3V29.2258H250V20.7258H215.3V70.5258H250.4V62.2258H225.3V49.2258Z" fill="white"/>
<path d="M305.3 44.6258V44.4258C308 43.5258 312.7 40.3258 312.7 33.2258C312.7 26.1258 307.4 20.7258 298.6 20.7258H276.5V70.4258H299.4C308 70.4258 314.2 65.0258 314.2 56.8258C314.2 49.8258 309.6 45.7258 305.3 44.6258ZM286.2 28.6258H295.6C300.1 28.6258 302.6 30.8258 302.6 35.0258C302.6 39.1258 300.3 41.6258 295.7 41.6258H286.1V28.6258H286.2ZM297 62.7258H286.3V48.7258H296.7C301.3 48.7258 304.4 51.1258 304.4 55.7258C304.3 60.3258 301.4 62.7258 297 62.7258Z" fill="white"/>
<path d="M331.3 20.7258H321.3V70.5258H355.7V61.7258H331.3V20.7258Z" fill="white"/>
<path d="M382.7 20.2258C368.5 20.2258 357.8 30.1258 357.8 45.7258C357.8 61.3258 368.5 70.9258 382.7 70.9258C396.9 70.9258 407.5 61.1258 407.5 45.4258C407.5 29.9258 397 20.2258 382.7 20.2258ZM382.7 62.3258C374.5 62.3258 368 56.1258 368 45.6258C368 35.1258 374.5 28.9258 382.7 28.9258C390.8 28.9258 397.3 35.1258 397.3 45.6258C397.4 56.1258 390.9 62.3258 382.7 62.3258Z" fill="white"/>
<path d="M436.8 28.9258C444.8 28.9258 448.3 33.6258 449.2 39.1258H459.1C458 28.3258 451 20.2258 436.6 20.2258C423.1 20.2258 413.3 30.3258 413.3 45.5258C413.3 60.9258 423 70.9258 436.6 70.9258C451.2 70.9258 457.9 62.6258 459.1 52.0258H449.2C448.4 57.5258 445 62.2258 436.9 62.2258C429.2 62.2258 423.4 56.0258 423.4 45.6258C423.3 35.3258 429.2 28.9258 436.8 28.9258Z" fill="white"/>
<path d="M489.5 42.0258L507.8 20.7258H495.9L475.5 45.5258V20.7258H465.5V70.5258H475.5V57.3258L482.7 49.1258L497.4 70.5258H509.1L489.5 42.0258Z" fill="white"/>
<path d="M85.3 16.2258L45 0.42583C44.6 0.22583 44.1 0.22583 43.6 0.22583C43.1 0.22583 42.7 0.32583 42.2 0.42583L1.9 16.2258C1.1 16.5258 0.5 17.3258 0.5 18.2258V72.1258C0.5 73.0258 1.1 73.8258 1.9 74.1258L42.1 90.5258H42.2C42.7 90.7258 43.1 90.7258 43.6 90.7258C44.1 90.7258 44.6 90.6258 45 90.5258H45.1L85.3 74.1258C86.1 73.8258 86.7 73.0258 86.7 72.1258V18.2258C86.7 17.3258 86.1 16.5258 85.3 16.2258ZM43.6 4.02583L80 17.9258L43.6 31.2258L7.2 17.9258L43.6 4.02583ZM43.6 35.4258L52.6 39.0258V51.3258L43.6 54.9258L34.6 51.3258V39.0258L43.6 35.4258ZM4.5 20.9258L37.9 33.3258L31.2 36.0258C30.9 36.1258 30.6 36.5258 30.6 36.8258V53.5258C30.6 53.8258 30.8 54.1258 31.1 54.2258L37.9 57.0258L4.5 69.4258V20.9258ZM43.6 86.8258L7.2 72.3258L43.6 59.1258L80 72.3258L43.6 86.8258ZM82.7 69.4258L49.2 57.0258L56 54.2258C56.3 54.1258 56.5 53.8258 56.5 53.5258V36.6258C56.5 36.3258 56.3 36.0258 56 35.9258L49.2 33.1258L82.7 20.9258V69.4258Z" fill="white"/>
</svg>
