<svg xmlns="http://www.w3.org/2000/svg" xmlns:xlink="http://www.w3.org/1999/xlink" width="375" height="812" fill="none" xmlns:v="https://vecta.io/nano"><style><![CDATA[.B{fill-opacity:.5}.C{fill:#0cda6e}.D{fill:#43b0ff}.E{fill-opacity:.4}.F{fill:#7e2dff}.G{fill:#fbcc5c}.H{fill:#ff6553}.I{fill:#42d689}.J{fill:#fb7c6d}.K{fill:#bf97ff}.L{fill:#f0544a}.M{color-interpolation-filters:sRGB}]]></style><mask id="A" mask-type="alpha" maskUnits="userSpaceOnUse" x="0" y="509" width="375" height="303"><path fill="#c4c4c4" d="M0 509h375v303H0z"/></mask><g mask="url(#A)"><g opacity=".5" filter="url(#C)"><path d="M-27.588 875.312C-6.263 899.341 64 707 64 707l210.5-48.5 120-99 6 35.5-157 150.5-92.5-75L79 761 5.5 733s-44.402 129.565-33.088 142.312z" stroke="url(#E)" stroke-width="21"/></g><g style="mix-blend-mode:screen"><path d="M214.661 678.186c-.654 0-1.357.62-1.633 1.443-.16.477-.134.935.071 1.254.141.223.363.36.626.384a.69.69 0 0 0 .083.004c.299 0 .628-.146.927-.411s.546-.631.696-1.031c.181-.488.159-.954-.06-1.276a.83.83 0 0 0-.71-.367z" class="G"/><path d="M246.35 654.946c-.655 0-1.356.62-1.632 1.443-.16.477-.135.935.069 1.254a.82.82 0 0 0 .626.384c.025.003.052.004.085.004.299 0 .628-.146.926-.411s.546-.631.695-1.031c.182-.488.16-.954-.059-1.276-.16-.237-.412-.367-.71-.367z" class="C"/><path d="M242.975 669.552c-.393 0-.814.372-.98.865-.096.287-.08.561.043.753.085.134.218.216.375.23.015.002.031.003.05.003.18 0 .377-.088.557-.247s.327-.378.416-.618c.11-.294.097-.573-.035-.766a.5.5 0 0 0-.426-.22z" class="G"/><path d="M220.136 681.271c-.393 0-.815.372-.98.866-.096.286-.08.561.042.752.086.134.218.216.376.231l.05.002c.179 0 .377-.088.556-.247s.328-.378.417-.618c.11-.293.097-.572-.035-.766a.5.5 0 0 0-.426-.22z" class="C E"/><path d="M197.074 698.856c-.655 0-1.357.621-1.632 1.443-.16.478-.135.935.07 1.255.141.222.364.359.625.383.026.003.052.004.085.004.299 0 .628-.146.926-.411s.546-.631.696-1.03c.181-.489.159-.954-.06-1.277-.161-.236-.413-.367-.71-.367z" class="D"/><path d="M227.233 697.006c-.393 0-.814.372-.98.865-.096.287-.08.561.042.753a.49.49 0 0 0 .376.231l.05.002c.18 0 .377-.088.556-.247s.328-.379.417-.619c.11-.293.096-.572-.035-.765a.5.5 0 0 0-.426-.22z" class="F"/><path d="M278.153 643.802c-.654 0-1.356.62-1.632 1.442-.16.478-.135.935.07 1.255.141.223.364.36.626.384l.084.004c.299 0 .628-.146.926-.411a2.63 2.63 0 0 0 .696-1.031c.181-.489.161-.954-.059-1.276a.83.83 0 0 0-.711-.367zm-11.827-8.293c-.391 0-.813.372-.978.866-.096.286-.081.561.042.752a.49.49 0 0 0 .374.231l.052.002c.179 0 .377-.088.555-.247a1.59 1.59 0 0 0 .418-.618c.108-.293.096-.572-.036-.766a.5.5 0 0 0-.427-.22z" class="B D"/><path d="M346.15 594.697c-.654 0-1.356.62-1.633 1.444-.16.477-.133.934.071 1.254.142.223.363.359.626.383a.52.52 0 0 0 .083.005c.299 0 .628-.146.927-.411s.546-.632.696-1.031c.181-.489.16-.954-.059-1.276-.162-.238-.414-.368-.711-.368z" class="F"/><path d="M321.018 726.82c-.745 0-1.546.707-1.86 1.646-.183.543-.153 1.065.08 1.429a.93.93 0 0 0 .713.438.91.91 0 0 0 .096.004c.341 0 .716-.166 1.056-.469s.622-.718.792-1.174c.208-.557.183-1.088-.067-1.455-.183-.27-.47-.419-.81-.419z" class="C E"/><path d="M341.98 582c-.747 0-1.547.708-1.862 1.646-.181.543-.153 1.065.08 1.429a.93.93 0 0 0 .714.438c.028.003.058.004.096.004.34 0 .716-.167 1.056-.468a3.01 3.01 0 0 0 .793-1.175c.206-.557.182-1.087-.068-1.455a.95.95 0 0 0-.809-.419z" class="I"/><path d="M341.203 680.344c-.745 0-1.545.707-1.86 1.645-.182.544-.153 1.065.08 1.429a.93.93 0 0 0 .713.438.92.92 0 0 0 .096.004c.341 0 .716-.166 1.056-.468a2.98 2.98 0 0 0 .792-1.175c.208-.557.183-1.087-.066-1.455a.95.95 0 0 0-.811-.418z" class="C E"/><path d="M309.061 740.536c-.745 0-1.546.707-1.86 1.644-.182.545-.153 1.067.08 1.431a.93.93 0 0 0 .713.438l.096.004c.341 0 .716-.167 1.056-.469s.622-.719.793-1.174c.207-.557.182-1.088-.068-1.455-.183-.271-.47-.419-.81-.419zM317 723.303c-.424 0-.878.402-1.058.935-.103.31-.087.606.046.813.091.145.236.234.405.249.017.002.034.003.055.003.194 0 .407-.095.6-.267s.355-.409.452-.668c.117-.317.103-.618-.039-.827a.54.54 0 0 0-.461-.238z" class="F"/><path d="M358.13 565.001c-.447 0-.927.425-1.115.987-.11.327-.093.64.048.859a.56.56 0 0 0 .427.263l.058.002c.204 0 .429-.101.634-.281s.373-.432.475-.705c.124-.334.11-.653-.04-.873a.57.57 0 0 0-.487-.252z" class="I"/><path d="M216.494 786.248c-.448 0-.927.424-1.117.986-.108.327-.091.64.048.859.097.152.249.245.428.263l.059.002c.204 0 .429-.101.632-.281a1.77 1.77 0 0 0 .476-.706c.125-.333.11-.652-.04-.872a.57.57 0 0 0-.486-.251z" class="B D"/><path d="M298.784 718.872c-.746 0-1.546.707-1.86 1.644-.183.545-.154 1.067.08 1.431a.93.93 0 0 0 .713.438l.096.004c.341 0 .716-.166 1.056-.469s.622-.718.793-1.174c.207-.557.182-1.088-.068-1.455-.183-.27-.471-.419-.81-.419z" class="I"/><path d="M286.528 714.429c-.392 0-.813.372-.979.866-.096.286-.081.561.043.752a.49.49 0 0 0 .374.231l.052.002c.179 0 .376-.088.555-.246s.327-.378.417-.618c.109-.294.096-.573-.035-.766a.5.5 0 0 0-.427-.221z" class="F"/><path d="M112.084 777.977c-.747 0-1.546.708-1.861 1.646-.182.543-.153 1.065.08 1.43.161.254.414.41.713.437a.9.9 0 0 0 .096.005c.341 0 .716-.167 1.057-.469a2.99 2.99 0 0 0 .792-1.175c.207-.557.183-1.087-.067-1.455-.184-.269-.472-.419-.81-.419z" class="C E"/><path d="M103.642 775.516c-.745 0-1.545.707-1.86 1.645-.183.544-.153 1.065.08 1.429a.93.93 0 0 0 .713.438.92.92 0 0 0 .096.004c.341 0 .716-.167 1.056-.468s.622-.719.792-1.175c.208-.557.183-1.087-.066-1.455a.95.95 0 0 0-.811-.418z" class="C"/><path d="M108.127 760.745c-.448 0-.929.424-1.117.987-.11.327-.093.64.048.858.097.153.249.246.428.262.017.003.035.004.057.004.205 0 .43-.101.634-.282a1.79 1.79 0 0 0 .475-.705c.124-.335.11-.652-.04-.872-.11-.163-.282-.252-.485-.252z" class="B D"/><path d="M101.529 680.63c-.747 0-1.546.707-1.861 1.644-.182.545-.153 1.067.08 1.431.162.254.415.41.714.438l.096.004c.34 0 .716-.167 1.056-.469s.623-.719.793-1.174c.207-.557.183-1.088-.068-1.455-.183-.271-.47-.419-.809-.419zm-15.563.703c-.448 0-.928.425-1.117.987-.11.327-.091.64.048.858.097.153.249.246.428.262a.33.33 0 0 0 .057.004c.205 0 .429-.101.634-.282a1.79 1.79 0 0 0 .476-.705c.123-.333.11-.652-.041-.872a.57.57 0 0 0-.485-.252z" class="C E"/><path d="M85.615 672.893c-.448 0-.928.424-1.117.987-.11.326-.091.639.048.857.097.153.249.247.428.263.017.002.035.002.057.002.204 0 .429-.099.634-.281s.373-.431.476-.704c.123-.335.11-.652-.041-.873-.11-.162-.282-.251-.485-.251z" class="B J"/><path d="M70.327 656.363c-.448 0-.927.425-1.117.987-.108.326-.091.639.048.858a.56.56 0 0 0 .428.263l.058.002c.204 0 .429-.1.633-.281a1.78 1.78 0 0 0 .476-.705c.125-.334.11-.652-.04-.873a.57.57 0 0 0-.486-.251zm24.783 17.585c-.448 0-.927.424-1.117.987-.11.326-.091.639.048.857a.56.56 0 0 0 .428.263c.017.002.035.002.057.002.206 0 .43-.099.634-.281a1.8 1.8 0 0 0 .476-.704c.124-.335.11-.652-.041-.873-.11-.162-.282-.251-.485-.251zm48.472 9.144c-.447 0-.928.424-1.117.987-.109.326-.092.639.048.857.097.153.249.247.429.263a.48.48 0 0 0 .057.003c.204 0 .429-.1.634-.282a1.78 1.78 0 0 0 .475-.704c.124-.335.109-.652-.04-.873-.11-.162-.282-.251-.486-.251z" class="B D"/><path d="M133.367 670.067c-.746 0-1.546.707-1.86 1.644-.183.545-.154 1.067.08 1.431a.93.93 0 0 0 .713.437.9.9 0 0 0 .096.005c.341 0 .716-.167 1.056-.469s.622-.719.793-1.174c.207-.558.182-1.089-.068-1.455-.183-.271-.471-.419-.81-.419z" class="C E"/><use xlink:href="#G" class="F"/><path d="M119.318 670.24c-.447 0-.927.425-1.116.987-.109.326-.092.639.048.858a.56.56 0 0 0 .428.263l.057.002c.205 0 .43-.1.634-.281s.374-.431.476-.704c.124-.335.109-.653-.041-.874-.11-.162-.282-.251-.486-.251z" class="I"/><path d="M136.001 673.492c-.447 0-.927.425-1.116.987-.109.327-.092.64.048.859a.56.56 0 0 0 .428.262.48.48 0 0 0 .057.003c.205 0 .43-.101.634-.281a1.79 1.79 0 0 0 .476-.706c.124-.333.109-.652-.041-.872-.11-.163-.282-.252-.486-.252z" class="B D"/><path d="M21.455 769.384c-.746 0-1.546.707-1.86 1.644-.183.545-.153 1.066.08 1.43a.93.93 0 0 0 .713.438.9.9 0 0 0 .096.005c.341 0 .716-.167 1.056-.469a2.98 2.98 0 0 0 .793-1.174c.208-.558.183-1.089-.067-1.455-.183-.271-.471-.419-.81-.419z" class="F"/><path d="M166.139 753.603c-.447 0-.927.425-1.115.987-.11.326-.093.639.047.858a.56.56 0 0 0 .428.263l.058.002c.204 0 .429-.1.634-.28s.373-.432.475-.705c.124-.335.109-.653-.04-.874a.57.57 0 0 0-.487-.251z" class="I"/><path d="M33.72 707.247c-.497 0-1.029.47-1.239 1.095-.121.362-.102.709.053.951a.62.62 0 0 0 .475.291l.064.004c.227 0 .477-.111.703-.312a1.99 1.99 0 0 0 .528-.782c.138-.372.121-.724-.045-.969-.122-.179-.313-.278-.539-.278z" class="B D"/><path d="M294.056 735.587c-.827 0-1.715.785-2.064 1.825-.202.604-.17 1.182.089 1.586.179.282.46.455.791.486l.106.005c.378 0 .795-.185 1.172-.52s.691-.798.879-1.303c.23-.619.203-1.207-.074-1.614-.204-.3-.523-.465-.899-.465z" class="B H"/><path d="M140.491 744.294c-.849 0-1.758.804-2.116 1.871-.208.619-.175 1.212.091 1.626.182.289.47.466.81.498l.11.005c.388 0 .814-.19 1.201-.533s.707-.818.902-1.336c.235-.634.207-1.237-.077-1.655a1.08 1.08 0 0 0-.921-.476z" class="C"/><path d="M80.974 700.899c-.828 0-1.715.785-2.065 1.825-.202.604-.17 1.182.089 1.586a1.03 1.03 0 0 0 .791.486c.032.003.065.004.106.004.378 0 .795-.184 1.172-.519s.691-.797.879-1.303c.23-.618.202-1.206-.074-1.614-.204-.299-.523-.465-.899-.465z" class="B H"/><path d="M122.164 652.142c-.827 0-1.715.785-2.064 1.825-.202.604-.17 1.182.089 1.586a1.03 1.03 0 0 0 .791.485.85.85 0 0 0 .107.006c.378 0 .794-.185 1.171-.521s.691-.797.879-1.303c.23-.617.203-1.205-.074-1.613-.204-.299-.523-.465-.899-.465z" class="F"/><path d="M129.645 640.86c-.497 0-1.029.47-1.239 1.095-.121.362-.102.709.053.951a.62.62 0 0 0 .475.291l.063.004c.228 0 .478-.111.704-.312s.414-.479.527-.782c.138-.372.123-.724-.044-.969-.122-.179-.314-.278-.539-.278zm22.845 29.874c-.828 0-1.715.784-2.065 1.823-.202.605-.17 1.183.089 1.587.179.283.461.455.792.486l.106.005c.378 0 .794-.185 1.172-.52s.691-.798.879-1.303c.23-.619.202-1.207-.074-1.615-.205-.299-.523-.463-.899-.463zM27.308 750.101c-.828 0-1.715.784-2.065 1.825-.202.603-.17 1.182.089 1.586.179.282.46.454.791.485a.85.85 0 0 0 .106.005c.378 0 .795-.185 1.172-.52s.691-.798.879-1.303c.229-.619.202-1.207-.074-1.613a1.05 1.05 0 0 0-.899-.465z" class="B D"/><path d="M56.394 723.527c-.828 0-1.715.785-2.063 1.825-.202.604-.17 1.182.088 1.586a1.03 1.03 0 0 0 .791.487l.106.004c.379 0 .795-.185 1.172-.52a3.31 3.31 0 0 0 .879-1.303c.231-.618.203-1.206-.074-1.614-.203-.299-.523-.465-.899-.465zm-43.807 27.88c-.827 0-1.714.785-2.064 1.825-.202.604-.17 1.182.089 1.586a1.03 1.03 0 0 0 .79.487l.107.004c.378 0 .794-.185 1.172-.52s.69-.798.879-1.303c.229-.618.202-1.206-.075-1.614-.203-.299-.522-.465-.899-.465z" class="C E"/><path d="M201.676 714.247c-.822 0-1.713.784-2.056 1.825-.205.604-.171 1.182.08 1.586.183.282.468.454.8.485.022.004.057.006.102.006.377 0 .8-.185 1.177-.521s.685-.797.879-1.303c.228-.618.194-1.206-.08-1.613a1.06 1.06 0 0 0-.902-.465zM78.687 757.998c-.822 0-1.713.784-2.055 1.824-.206.604-.171 1.182.08 1.586a1.05 1.05 0 0 0 .799.486.84.84 0 0 0 .103.005c.377 0 .788-.185 1.165-.52.388-.335.697-.798.891-1.303.228-.618.194-1.207-.08-1.614a1.06 1.06 0 0 0-.902-.464z" class="B H"/><path d="M150.196 720.797c-.491 0-1.028.47-1.234 1.095-.125.362-.102.709.046.951.114.169.286.273.48.291a.41.41 0 0 0 .068.004c.229 0 .468-.111.697-.312s.411-.478.525-.782c.137-.371.126-.724-.046-.968-.114-.18-.308-.279-.536-.279z" class="B D"/><path d="M4.617 756.288c-.427 0-.878.402-1.06.935-.105.31-.088.606.047.813a.53.53 0 0 0 .404.25l.053.002c.199 0 .41-.095.603-.267s.357-.409.451-.668c.117-.317.105-.618-.035-.827-.105-.154-.269-.238-.463-.238z" class="D"/><path d="M194.112 727.165c-.834 0-1.713.784-2.067 1.824-.205.604-.171 1.182.091 1.587.183.283.457.455.788.486l.115.005c.377 0 .788-.185 1.164-.521a3.26 3.26 0 0 0 .88-1.303c.228-.618.205-1.206-.069-1.614a1.06 1.06 0 0 0-.902-.464z" class="C E"/><path d="M30.142 678.485c-.577 0-1.196.547-1.439 1.272-.14.421-.118.824.062 1.105a.72.72 0 0 0 .551.339l.074.003c.264 0 .554-.129.817-.362a2.31 2.31 0 0 0 .613-.908c.16-.431.14-.841-.052-1.125-.142-.209-.364-.324-.626-.324z" class="B H"/><path d="M60.866 681.204c-.577 0-1.196.547-1.439 1.272-.141.421-.119.824.062 1.105a.72.72 0 0 0 .551.339c.022.002.046.003.074.003.264 0 .554-.129.816-.362s.481-.556.613-.908c.16-.431.14-.841-.052-1.125-.142-.209-.364-.324-.626-.324z" class="C"/><path d="M49.378 693.711c-.346 0-.717.329-.863.764-.084.252-.071.493.038.662a.43.43 0 0 0 .33.204l.044.002c.159 0 .332-.078.49-.217s.289-.334.368-.546c.096-.258.085-.504-.031-.674a.44.44 0 0 0-.376-.195z" class="B D"/><path d="M137.486 729.721c-.583 0-1.199.547-1.439 1.272-.137.42-.114.823.057 1.105a.72.72 0 0 0 .56.338c.023.003.045.004.068.004.263 0 .56-.129.822-.362s.48-.556.606-.909c.16-.431.148-.841-.046-1.124a.74.74 0 0 0-.628-.324z" class="B H"/><path d="M220.656 724.131c-.155 0-.322.148-.388.344-.037.113-.032.222.017.298.033.053.086.085.149.09.091.002.169-.033.24-.096s.13-.149.165-.245c.044-.115.038-.226-.014-.303-.038-.056-.098-.088-.169-.088z" class="B D"/><path d="M47.823 772.843c-.354 0-.734.336-.883.78-.087.258-.073.506.038.678.077.121.196.194.338.208l.046.002c.162 0 .339-.08.501-.222a1.41 1.41 0 0 0 .376-.558c.098-.263.087-.516-.032-.689a.45.45 0 0 0-.384-.199zm123.536-42.252c-.354 0-.733.335-.883.78-.086.258-.073.505.038.678.077.121.196.194.338.208l.046.002c.162 0 .34-.08.501-.223s.295-.341.376-.557c.098-.264.087-.516-.032-.69a.45.45 0 0 0-.384-.198zm7.631-8.674c-.212 0-.439.202-.528.468-.053.155-.045.304.021.407a.27.27 0 0 0 .204.125c.008.001.017.001.027.001.097 0 .204-.048.3-.134s.177-.204.226-.334c.059-.158.052-.31-.019-.414-.053-.076-.134-.119-.231-.119z" class="C E"/><path d="M24.475 787.332c-.212 0-.44.201-.53.467-.051.156-.043.304.023.408a.27.27 0 0 0 .203.124c.008.002.017.002.027.002a.47.47 0 0 0 .3-.134.85.85 0 0 0 .226-.335c.058-.157.051-.309-.019-.413-.053-.076-.134-.119-.231-.119zm-14.338-5.995c-.354 0-.733.336-.883.78-.087.258-.072.506.038.678.077.121.198.194.339.208l.045.002c.162 0 .34-.078.501-.222a1.4 1.4 0 0 0 .376-.558c.098-.263.087-.515-.032-.689a.45.45 0 0 0-.384-.199z" class="B D"/><path d="M82.696 747.72c-1.016 0-2.106.964-2.534 2.24-.249.742-.209 1.452.109 1.948a1.27 1.27 0 0 0 .972.597l.13.005c.465 0 .975-.227 1.439-.638s.847-.98 1.079-1.6c.282-.759.249-1.481-.091-1.981-.25-.368-.642-.571-1.103-.571zm126.757-36.543c-1.016 0-2.105.963-2.535 2.241-.248.741-.208 1.451.11 1.947.219.347.564.558.97.596.04.004.082.006.132.006.463 0 .975-.226 1.438-.639a4.06 4.06 0 0 0 1.08-1.6c.282-.758.249-1.481-.092-1.981a1.29 1.29 0 0 0-1.103-.57z" class="C E"/><path d="M61.597 755.576c-.61 0-1.264.578-1.521 1.345-.15.445-.126.87.065 1.168.132.208.339.335.582.358l.079.003c.279 0 .586-.136.863-.383a2.42 2.42 0 0 0 .648-.96c.17-.455.15-.888-.055-1.188-.149-.221-.385-.343-.661-.343z" class="B D"/><path d="M101.03 723.739c-.608 0-1.263.578-1.52 1.344-.15.445-.126.871.065 1.168a.76.76 0 0 0 .583.359l.079.003c.278 0 .584-.136.863-.384a2.44 2.44 0 0 0 .647-.959c.169-.456.15-.889-.054-1.189-.15-.221-.385-.342-.663-.342zm206.695-12.562c-.609 0-1.263.578-1.52 1.344-.149.446-.125.872.065 1.169a.76.76 0 0 0 .583.358l.078.004c.279 0 .585-.136.864-.384a2.44 2.44 0 0 0 .647-.959c.169-.456.15-.89-.055-1.189a.77.77 0 0 0-.662-.343zm-261.562 52.53c-.609 0-1.263.578-1.52 1.344-.15.446-.126.872.065 1.169a.76.76 0 0 0 .582.358l.079.004c.279 0 .585-.136.863-.384s.508-.587.648-.959c.169-.456.15-.89-.055-1.189-.15-.222-.385-.343-.662-.343zm-23.927-50.093c-.61 0-1.263.578-1.521 1.344-.149.445-.125.871.065 1.168a.76.76 0 0 0 .583.359l.079.003c.279 0 .585-.136.863-.384s.509-.587.648-.959c.169-.456.149-.889-.055-1.189-.15-.221-.385-.342-.662-.342z" class="G"/><path d="M175.195 773.985c-1.017 0-2.106.963-2.536 2.24-.247.742-.207 1.452.11 1.947.219.348.564.559.971.598l.131.005c.464 0 .975-.227 1.438-.638a4.07 4.07 0 0 0 1.08-1.6c.282-.759.249-1.482-.091-1.982a1.29 1.29 0 0 0-1.103-.57z" class="C"/><path d="M313.372 728.307c-1.017 0-2.106.962-2.535 2.24-.248.741-.208 1.452.109 1.947.22.347.564.559.971.597.04.004.081.006.131.006.464 0 .975-.227 1.438-.638a4.07 4.07 0 0 0 1.08-1.6c.282-.759.249-1.482-.091-1.983-.25-.367-.642-.569-1.103-.569z" class="C E"/><path d="M32.005 795.269c-.849 0-1.758.804-2.117 1.871-.207.618-.174 1.212.092 1.625.183.29.471.467.81.499l.11.005c.387 0 .814-.19 1.201-.533s.708-.818.902-1.336c.236-.634.208-1.238-.076-1.655-.209-.307-.536-.476-.921-.476z" class="I"/><path d="M87.257 772.62c-1.016 0-2.106.964-2.534 2.24-.249.742-.209 1.452.108 1.949.219.346.564.558.971.596l.131.005c.465 0 .975-.227 1.439-.638s.847-.98 1.079-1.6c.282-.759.249-1.481-.091-1.981-.25-.368-.642-.571-1.103-.571zm209.589-45.455c-.813 0-1.686.77-2.028 1.791-.199.594-.167 1.162.086 1.559.176.278.453.447.778.477l.104.005c.372 0 .781-.182 1.151-.512s.678-.783.865-1.279c.224-.607.198-1.185-.075-1.585a1.03 1.03 0 0 0-.881-.456z" class="B L"/><path d="M299.24 732.875c-.424 0-.879.402-1.058.935-.104.31-.087.606.045.813a.53.53 0 0 0 .405.249.47.47 0 0 0 .055.003c.194 0 .407-.095.601-.267a1.7 1.7 0 0 0 .451-.668c.117-.317.104-.619-.039-.827-.104-.154-.267-.238-.46-.238zM54.094 745.436c-1.016 0-2.106.963-2.535 2.241-.248.741-.208 1.451.11 1.947a1.27 1.27 0 0 0 .971.597l.131.006c.464 0 .975-.228 1.438-.639s.848-.98 1.08-1.6c.282-.759.249-1.482-.091-1.982a1.29 1.29 0 0 0-1.103-.57z" class="B D"/><path d="M149.125 792c-.424 0-.878.402-1.058.935-.103.31-.087.606.046.813.092.145.236.233.405.25l.055.002c.194 0 .407-.095.6-.267s.355-.409.451-.667c.118-.317.104-.619-.038-.828-.104-.154-.268-.238-.461-.238zm82.026-28.293c-1.017 0-2.106.963-2.536 2.241-.247.741-.207 1.451.11 1.947.219.347.564.558.971.597.04.004.081.006.131.006.464 0 .975-.227 1.438-.639s.848-.979 1.08-1.599c.282-.76.249-1.483-.091-1.983a1.29 1.29 0 0 0-1.103-.57z" class="C E"/><path d="M179.224 743.152c-.813 0-1.686.771-2.028 1.792-.199.594-.167 1.161.086 1.559a1.02 1.02 0 0 0 .778.477l.104.005c.372 0 .781-.182 1.151-.512s.678-.783.864-1.279c.225-.608.199-1.185-.074-1.585a1.03 1.03 0 0 0-.881-.457z" class="B L"/><path d="M133.005 718.029c-.608 0-1.263.578-1.52 1.344-.149.446-.125.871.066 1.168a.76.76 0 0 0 .582.359l.079.003c.278 0 .584-.135.863-.383s.508-.587.648-.96c.169-.455.149-.889-.055-1.188-.15-.222-.385-.343-.663-.343z" class="B D"/><path d="M175.314 724.881c-1.015 0-2.104.962-2.534 2.24-.247.741-.209 1.452.11 1.947.219.347.564.559.971.597.038.004.081.006.131.006.464 0 .975-.227 1.438-.638a4.07 4.07 0 0 0 1.08-1.6c.282-.76.249-1.482-.091-1.983-.25-.367-.642-.569-1.105-.569zm164.346-65.092c-1.462 0-3.015 1.377-3.632 3.204-.354 1.061-.297 2.076.16 2.787.309.495.811.798 1.394.853.045.006.114.008.182.008.663 0 1.393-.325 2.056-.914s1.21-1.4 1.541-2.288c.411-1.085.354-2.119-.125-2.835-.354-.525-.925-.815-1.576-.815z" class="C E"/><use xlink:href="#H" class="K"/><use xlink:href="#H" stroke="#43b0ff"/><path d="M216.125 727.119c-.745 0-1.546.707-1.86 1.645-.183.544-.153 1.066.08 1.43a.93.93 0 0 0 .713.438.91.91 0 0 0 .096.004c.341 0 .716-.167 1.056-.469s.622-.719.792-1.174c.208-.557.183-1.088-.067-1.455-.183-.271-.47-.419-.81-.419z" class="C E"/><path d="M235.47 724.305c-.747 0-1.546.708-1.861 1.646-.182.543-.153 1.065.08 1.43a.93.93 0 0 0 .714.437.89.89 0 0 0 .095.004c.341 0 .716-.166 1.057-.468a2.99 2.99 0 0 0 .792-1.175c.207-.557.183-1.087-.067-1.455-.184-.269-.472-.419-.81-.419z" class="C"/><path d="M227.028 721.844c-.746 0-1.545.707-1.861 1.644-.182.545-.153 1.066.08 1.43a.93.93 0 0 0 .713.438c.03.003.059.004.096.004.341 0 .716-.167 1.056-.468s.623-.72.793-1.175c.208-.557.182-1.087-.067-1.455-.183-.27-.471-.418-.81-.418zm-106.086 10.174c-.747 0-1.546.707-1.861 1.644-.182.545-.153 1.067.079 1.431.163.254.415.41.714.438l.096.004c.34 0 .716-.166 1.056-.469s.623-.718.793-1.174c.207-.557.183-1.088-.067-1.455a.95.95 0 0 0-.81-.419zm121.473-26.703c-.448 0-.929.424-1.117.986-.11.327-.091.64.048.858.097.153.249.247.428.263a.49.49 0 0 0 .057.003c.205 0 .43-.101.634-.282a1.78 1.78 0 0 0 .476-.705c.124-.333.11-.652-.041-.872-.109-.162-.282-.251-.485-.251z" class="C E"/><path d="M204.168 740.835c-.745 0-1.546.707-1.86 1.644-.183.545-.153 1.067.08 1.431a.93.93 0 0 0 .713.437c.028.003.059.005.096.005.341 0 .716-.167 1.056-.469s.622-.719.792-1.174c.208-.558.183-1.089-.067-1.455-.183-.271-.471-.419-.81-.419z" class="F"/><path d="M163.409 738.584c-.448 0-.928.424-1.117.987-.109.326-.091.639.048.858.097.153.249.246.428.262.018.002.036.002.058.002.204 0 .429-.099.633-.28a1.8 1.8 0 0 0 .477-.705c.123-.335.109-.652-.042-.873-.109-.162-.282-.251-.485-.251z" class="B J"/><path d="M212.961 723.602c-.746 0-1.545.708-1.86 1.645-.183.544-.153 1.066.079 1.43.162.255.415.41.713.437a.71.71 0 0 0 .097.005c.34 0 .716-.167 1.055-.468s.624-.72.794-1.175c.207-.558.183-1.088-.067-1.455a.95.95 0 0 0-.811-.419z" class="F"/><path d="M167.393 714.603c-.448 0-.927.425-1.117.987-.108.326-.091.639.048.858a.56.56 0 0 0 .428.263l.059.002c.204 0 .429-.1.632-.281a1.76 1.76 0 0 0 .476-.705c.125-.334.11-.652-.04-.873a.57.57 0 0 0-.486-.251zm-74.785 66.234c-.448 0-.928.423-1.117.986-.11.327-.092.64.048.858.097.153.249.247.428.263a.48.48 0 0 0 .057.003c.204 0 .429-.1.634-.282s.373-.431.475-.705c.124-.334.11-.652-.04-.872-.11-.162-.282-.251-.485-.251z" class="B D"/><path d="M185.878 666.732c-.545 0-1.129.515-1.358 1.199-.133.398-.112.778.058 1.044a.68.68 0 0 0 .521.319.71.71 0 0 0 .07.003c.248 0 .521-.121.77-.341s.454-.526.578-.858c.151-.407.134-.793-.049-1.061-.134-.196-.344-.305-.59-.305z" class="C E"/><path d="M182.991 654.162c-.327 0-.676.309-.814.72-.08.238-.067.466.035.626.071.111.182.179.312.192.012.001.026.001.042.001.15 0 .313-.073.463-.204s.271-.316.347-.516c.09-.243.078-.475-.03-.636-.081-.118-.207-.183-.355-.183z" class="B D"/><path d="M244.993 761.542c-.359 0-.745.342-.897.794-.088.263-.074.515.038.69.077.123.199.198.344.211.014.002.029.002.046.002.165 0 .346-.08.509-.226s.301-.347.383-.566c.101-.27.088-.526-.032-.703a.46.46 0 0 0-.391-.202z" class="G"/><path d="M173.779 753.432c-.36 0-.746.341-.898.794-.087.262-.074.513.039.689.078.122.2.198.344.212l.047.002c.164 0 .345-.081.509-.226s.301-.347.383-.568c.099-.268.088-.524-.033-.701a.46.46 0 0 0-.391-.202zm67.05 19.186c-.36 0-.746.341-.898.793-.088.263-.074.514.039.69.078.123.2.198.344.211l.047.003c.164 0 .345-.08.509-.226s.3-.348.383-.567c.099-.269.087-.525-.034-.702-.088-.13-.227-.202-.39-.202zm-85.928-47.123c-.216 0-.448.205-.539.476-.053.158-.045.309.023.415a.28.28 0 0 0 .206.127l.029.001a.48.48 0 0 0 .305-.136.86.86 0 0 0 .229-.34c.061-.161.054-.316-.019-.422-.052-.078-.136-.121-.234-.121z" class="C E"/><path d="M222.176 748.272c-.215 0-.447.205-.539.477-.052.157-.044.308.023.413a.27.27 0 0 0 .207.127c.008.001.017.001.027.001.1 0 .208-.048.306-.136a.85.85 0 0 0 .23-.339c.06-.162.052-.315-.02-.421a.27.27 0 0 0-.234-.122z" class="G"/><path d="M174.595 735.158c-.359 0-.745.342-.897.794-.088.263-.074.514.039.69a.45.45 0 0 0 .343.211l.047.002c.165 0 .345-.08.51-.226a1.45 1.45 0 0 0 .382-.566c.099-.27.088-.525-.033-.702-.088-.131-.227-.203-.391-.203zm65.78 11.079c-.361 0-.747.34-.899.793-.088.263-.073.514.039.69a.45.45 0 0 0 .344.211l.047.001c.164 0 .346-.08.509-.226s.3-.346.383-.566c.1-.268.087-.524-.032-.702-.089-.131-.228-.201-.391-.201zm-120.449 26.388c-.216 0-.448.204-.538.476-.054.158-.045.309.023.414.046.074.12.118.206.126.008.001.017.003.028.003.098 0 .206-.05.306-.136a.84.84 0 0 0 .229-.341c.06-.161.053-.315-.019-.421-.054-.078-.137-.121-.235-.121z" class="F"/><path d="M135.387 732.452c-.216 0-.447.205-.539.476-.052.157-.044.309.023.414.047.073.12.119.207.127.008.001.017.001.027.001.1 0 .208-.048.306-.136a.83.83 0 0 0 .23-.34c.06-.161.052-.314-.02-.42-.052-.079-.136-.122-.234-.122z" class="B H"/><path d="M158.507 718.029c-.361 0-.746.342-.898.794-.088.262-.073.514.038.689a.45.45 0 0 0 .345.212l.046.002c.164 0 .346-.08.509-.226a1.46 1.46 0 0 0 .383-.567c.1-.269.088-.525-.032-.702a.46.46 0 0 0-.391-.202zm-26.757 58.24c-.216 0-.448.204-.539.476-.053.158-.045.308.022.413.047.075.12.119.207.127.008.001.017.002.028.002.099 0 .207-.049.306-.135a.85.85 0 0 0 .229-.341c.061-.161.053-.315-.019-.421-.053-.078-.136-.121-.234-.121z" class="B D"/><path d="M175.738 739.726c-.36 0-.746.342-.898.794-.088.262-.074.514.039.689.077.124.2.198.344.212l.046.002c.165 0 .345-.08.51-.226s.3-.347.382-.567c.1-.269.088-.525-.033-.702-.088-.13-.227-.202-.39-.202zm-51.389 29.691c-.359 0-.745.341-.897.794-.088.262-.074.514.039.689.077.124.199.198.343.212l.047.002c.165 0 .345-.08.509-.226s.301-.347.383-.567c.099-.269.088-.525-.033-.702-.088-.13-.227-.202-.391-.202zM107.958 638.21c-.36 0-.746.342-.897.794-.088.263-.074.515.038.69.078.123.2.199.344.211a.34.34 0 0 0 .047.002c.164 0 .345-.08.509-.226a1.46 1.46 0 0 0 .383-.566c.1-.27.088-.525-.033-.702-.088-.131-.227-.203-.391-.203zm3.83 55.838c-.36 0-.746.341-.898.794-.088.262-.074.513.039.689a.45.45 0 0 0 .344.212l.046.002c.165 0 .346-.08.51-.226s.3-.347.382-.567c.1-.269.088-.525-.032-.702a.46.46 0 0 0-.391-.202zm-28.549 13.703c-.36 0-.746.342-.898.794-.088.263-.074.514.039.69a.45.45 0 0 0 .344.211l.047.002c.164 0 .345-.08.509-.226a1.46 1.46 0 0 0 .383-.566c.099-.27.088-.526-.033-.703-.088-.13-.227-.202-.391-.202zm-69.66 63.95c-.36 0-.746.341-.897.794-.088.262-.074.513.039.689a.45.45 0 0 0 .344.212l.047.002c.165 0 .345-.08.509-.226s.3-.347.383-.567c.099-.269.088-.525-.033-.702-.088-.13-.227-.202-.391-.202z" class="G"/><path d="M315.122 779.396c-.448 0-.928.425-1.116.987-.11.326-.092.639.048.858a.56.56 0 0 0 .427.263l.058.002c.205 0 .43-.1.634-.281a1.79 1.79 0 0 0 .475-.705c.125-.334.11-.652-.04-.873a.57.57 0 0 0-.486-.251z" class="B D"/><path d="M320.276 752.774c-.827 0-1.715.785-2.064 1.825-.202.604-.17 1.182.089 1.586a1.03 1.03 0 0 0 .791.486l.106.006c.379 0 .795-.186 1.172-.521a3.3 3.3 0 0 0 .879-1.303c.23-.618.203-1.206-.074-1.614-.204-.299-.523-.465-.899-.465zm6.852-121.711c-.827 0-1.714.784-2.064 1.824-.202.604-.17 1.183.089 1.587.178.282.459.455.79.485a.88.88 0 0 0 .108.005c.378 0 .793-.185 1.171-.52s.69-.797.88-1.303c.229-.618.202-1.206-.076-1.614a1.05 1.05 0 0 0-.898-.464z" class="B H"/><path d="M281.872 683.155c-.828 0-1.715.784-2.065 1.824-.202.604-.17 1.182.089 1.586a1.03 1.03 0 0 0 .791.486l.107.005c.378 0 .794-.185 1.172-.52s.689-.798.879-1.303c.229-.618.202-1.207-.074-1.614-.205-.299-.523-.464-.899-.464z" class="F"/><path d="M234.629 745.923c-.827 0-1.715.784-2.064 1.825-.202.604-.17 1.182.089 1.586a1.03 1.03 0 0 0 .79.485c.032.004.067.006.108.006.378 0 .793-.185 1.171-.521a3.33 3.33 0 0 0 .88-1.303c.229-.618.202-1.206-.076-1.613a1.05 1.05 0 0 0-.898-.465zm3.848 8.35c-.828 0-1.715.784-2.064 1.825-.202.604-.17 1.181.089 1.586a1.03 1.03 0 0 0 .79.485l.107.005c.378 0 .794-.184 1.172-.52a3.31 3.31 0 0 0 .879-1.303c.23-.618.202-1.206-.074-1.614-.204-.299-.523-.464-.899-.464z" class="B H"/><path d="M260.175 633.572c-.828 0-1.716.784-2.065 1.825-.202.604-.17 1.182.089 1.586a1.03 1.03 0 0 0 .79.485c.033.004.067.006.108.006.378 0 .793-.185 1.171-.521s.69-.797.88-1.303c.229-.618.202-1.206-.075-1.613-.204-.3-.523-.465-.898-.465z" class="F"/><path d="M251.667 690.807c-.497 0-1.029.471-1.239 1.095-.121.362-.102.709.053.952a.62.62 0 0 0 .475.291.59.59 0 0 0 .063.003c.228 0 .478-.111.704-.312s.414-.479.527-.782c.138-.371.122-.724-.044-.968a.63.63 0 0 0-.539-.279z" class="B D"/><path d="M224.094 704.958c-.827 0-1.715.784-2.063 1.824-.202.604-.17 1.183.088 1.587.179.282.46.454.791.485.032.004.065.005.106.005.38 0 .795-.185 1.172-.52a3.3 3.3 0 0 0 .879-1.303c.231-.618.204-1.206-.074-1.614-.203-.299-.523-.464-.899-.464z" class="C"/><path d="M264.91 723.739c-.828 0-1.716.784-2.065 1.825-.202.604-.17 1.182.089 1.586a1.03 1.03 0 0 0 .79.486l.107.005c.378 0 .794-.185 1.172-.521s.69-.797.879-1.303c.23-.618.203-1.206-.075-1.613a1.05 1.05 0 0 0-.897-.465z" class="C E"/><path d="M314.018 591.271c-.834 0-1.713.785-2.067 1.825-.206.603-.171 1.182.091 1.587.172.282.457.454.788.485l.103.004c.388 0 .799-.185 1.176-.519s.685-.798.879-1.303c.229-.619.206-1.207-.079-1.614-.195-.3-.514-.465-.891-.465z" class="B D"/></g><g style="mix-blend-mode:screen" opacity=".2"><path d="M219.455 628.657c-.975 0-2.021.925-2.432 2.151-.239.712-.201 1.393.104 1.869.211.333.542.537.933.573.038.004.076.006.126.006.445 0 .935-.218 1.38-.613s.814-.94 1.037-1.536c.271-.729.239-1.422-.088-1.902-.24-.353-.617-.548-1.06-.548z" class="C"/><path d="M272.696 739c-1.016 0-2.106.963-2.535 2.24-.248.742-.208 1.452.11 1.948.219.347.564.558.97.597l.131.006c.464 0 .976-.228 1.438-.639s.849-.98 1.081-1.6c.282-.759.248-1.482-.092-1.982-.25-.367-.642-.57-1.103-.57z" class="D"/></g><g style="mix-blend-mode:screen"><path d="M300.763 640.077c-1.016 0-2.105.963-2.534 2.24-.248.742-.209 1.452.109 1.948.22.347.564.558.971.596a1.27 1.27 0 0 0 .131.006c.464 0 .975-.227 1.438-.638a4.07 4.07 0 0 0 1.08-1.6c.282-.759.249-1.482-.091-1.982-.25-.368-.642-.57-1.104-.57z" class="C E"/><path d="M282.435 669.768c-.609 0-1.263.578-1.52 1.344-.15.445-.126.871.065 1.169.131.208.339.335.582.357a.63.63 0 0 0 .079.004c.279 0 .585-.136.863-.383a2.45 2.45 0 0 0 .648-.96c.169-.455.149-.889-.055-1.189-.15-.221-.385-.342-.662-.342zm-12.562 110.77c-.609 0-1.263.578-1.52 1.344-.149.445-.125.871.065 1.168a.76.76 0 0 0 .583.359l.078.003c.279 0 .585-.136.864-.384a2.44 2.44 0 0 0 .647-.959c.169-.455.15-.889-.055-1.189a.77.77 0 0 0-.662-.342z" class="G"/><path d="M302.927 696.511c-1.016 0-2.106.962-2.535 2.24-.248.741-.208 1.452.109 1.947a1.27 1.27 0 0 0 .971.598l.131.005c.464 0 .976-.227 1.438-.638a4.06 4.06 0 0 0 1.08-1.6c.283-.759.249-1.482-.091-1.982a1.29 1.29 0 0 0-1.103-.57z" class="C E"/><use xlink:href="#I" class="B D"/><use xlink:href="#I" stroke="#43b0ff"/></g><g style="mix-blend-mode:screen" opacity=".2" class="C"><path d="M233.692 667.484c-.745 0-1.546.707-1.86 1.645-.183.544-.153 1.066.08 1.43a.93.93 0 0 0 .712.438c.03.003.06.004.096.004.342 0 .716-.167 1.057-.469s.622-.719.792-1.174c.208-.557.183-1.088-.066-1.455-.184-.271-.472-.419-.811-.419zm9.605-30.266c-.747 0-1.546.708-1.861 1.645-.182.544-.153 1.066.079 1.43a.93.93 0 0 0 .714.437.69.69 0 0 0 .096.005c.34 0 .716-.167 1.056-.468s.623-.72.793-1.176c.207-.557.183-1.087-.067-1.454a.95.95 0 0 0-.81-.419z"/></g><g style="mix-blend-mode:screen"><path d="M276.197 626.373c-.746 0-1.547.707-1.861 1.645-.182.544-.153 1.065.08 1.429a.93.93 0 0 0 .713.438c.03.003.059.004.096.004.341 0 .716-.166 1.056-.468s.622-.719.793-1.175c.207-.557.182-1.087-.067-1.455a.95.95 0 0 0-.81-.418z" class="C"/><path d="M217.841 754.558c-.746 0-1.546.707-1.861 1.645-.182.544-.153 1.066.08 1.431a.93.93 0 0 0 .714.437l.096.005c.34 0 .716-.167 1.056-.47a2.98 2.98 0 0 0 .792-1.174c.207-.557.183-1.088-.067-1.455a.95.95 0 0 0-.81-.419zm-15.562.704c-.448 0-.928.425-1.117.987-.109.326-.091.639.048.857.097.153.249.247.429.263a.48.48 0 0 0 .057.003c.204 0 .429-.1.633-.282s.374-.43.477-.704c.123-.334.109-.652-.041-.873a.57.57 0 0 0-.486-.251z" class="C E"/><path d="M199.433 675.444c-.745 0-1.546.707-1.86 1.645-.183.544-.153 1.066.08 1.43a.93.93 0 0 0 .713.438l.096.004c.341 0 .716-.166 1.056-.469s.622-.718.792-1.174c.208-.557.183-1.088-.067-1.455-.183-.27-.47-.419-.81-.419z" class="F"/><path d="M201.928 746.821c-.448 0-.929.424-1.117.987-.11.327-.092.639.048.858a.56.56 0 0 0 .428.263l.057.002c.204 0 .429-.1.634-.281s.373-.431.476-.705c.123-.334.11-.652-.041-.873-.11-.162-.282-.251-.485-.251z" class="B J"/><path d="M238.427 700.899c-.746 0-1.545.708-1.86 1.646-.183.544-.153 1.065.08 1.43.161.254.414.41.712.437a.72.72 0 0 0 .097.005c.341 0 .716-.167 1.056-.469s.622-.719.793-1.175c.207-.557.182-1.087-.067-1.454a.95.95 0 0 0-.811-.42z" class="F"/><path d="M211.422 747.876c-.447 0-.927.424-1.117.987-.109.326-.091.639.048.858a.56.56 0 0 0 .429.262c.017.003.035.003.057.003.205 0 .43-.1.633-.281a1.8 1.8 0 0 0 .477-.705c.124-.334.109-.653-.041-.873a.57.57 0 0 0-.486-.251zm94.403-123.323c-.447 0-.928.424-1.116.987-.11.326-.093.639.048.857.097.154.249.247.428.263l.057.004c.204 0 .429-.101.634-.282a1.79 1.79 0 0 0 .475-.705c.124-.335.109-.652-.04-.873-.11-.162-.282-.251-.486-.251z" class="B D"/><path d="M273.917 759.983c-1.273 0-2.638 1.206-3.175 2.806-.311.929-.261 1.818.136 2.44a1.59 1.59 0 0 0 1.217.747 1.6 1.6 0 0 0 .164.007c.582 0 1.221-.284 1.802-.8s1.062-1.226 1.352-2.004c.354-.95.312-1.855-.115-2.482-.313-.46-.803-.714-1.381-.714z" class="I"/></g><g style="mix-blend-mode:screen" opacity=".2" class="C"><path d="M291.352 605.665c-.448 0-.928.425-1.117.987-.11.327-.091.639.048.858.097.153.249.246.428.262l.057.004c.205 0 .43-.101.634-.282a1.78 1.78 0 0 0 .476-.705c.124-.333.11-.652-.041-.872-.109-.163-.282-.252-.485-.252z"/></g><g style="mix-blend-mode:screen"><path d="M265.667 604.676c-.746 0-1.546.707-1.86 1.644-.183.545-.153 1.067.08 1.431a.93.93 0 0 0 .712.438l.096.004c.342 0 .716-.166 1.056-.469s.623-.718.793-1.174c.208-.557.183-1.088-.067-1.455-.183-.271-.471-.419-.81-.419z" class="F"/><path d="M241.201 736.001c-.448 0-.927.425-1.117.987-.108.327-.091.64.048.859.097.152.249.245.428.263l.059.002c.204 0 .429-.101.632-.281a1.77 1.77 0 0 0 .476-.706c.125-.333.11-.652-.039-.872-.111-.162-.284-.252-.487-.252zm39.249-128.577c-.448 0-.928.423-1.117.986-.11.327-.092.64.048.858.097.153.249.247.428.263a.49.49 0 0 0 .057.003c.205 0 .43-.1.634-.282s.374-.43.475-.704c.125-.335.11-.653-.04-.873-.109-.162-.282-.251-.485-.251z" class="B D"/><path d="M305.274 655.4c-.609 0-1.263.578-1.52 1.344-.15.445-.126.871.065 1.169a.76.76 0 0 0 .582.358l.079.003c.279 0 .585-.136.864-.383a2.44 2.44 0 0 0 .647-.96c.169-.455.15-.888-.055-1.189-.149-.22-.385-.342-.662-.342zm-6.776 48.746c-.36 0-.746.341-.898.794-.088.262-.074.514.038.69.078.122.2.197.345.211l.046.002c.164 0 .346-.081.509-.226a1.45 1.45 0 0 0 .382-.567c.101-.269.088-.525-.032-.702-.089-.13-.227-.202-.39-.202zm-77.653-37.685c-.36 0-.746.341-.898.793-.087.263-.074.515.038.69.078.123.2.199.345.211.014.003.029.003.046.003.164 0 .346-.08.509-.226s.3-.348.383-.567c.1-.269.088-.525-.032-.702a.46.46 0 0 0-.391-.202zm9.539-46.94c-.36 0-.746.342-.898.794-.087.263-.074.514.039.69.078.123.2.198.344.211a.34.34 0 0 0 .047.002c.164 0 .345-.08.509-.226a1.44 1.44 0 0 0 .383-.567c.099-.268.088-.524-.033-.701-.088-.131-.228-.203-.391-.203zm27.494-18.755c-.393 0-.813.372-.979.866-.096.286-.081.56.041.752.086.134.219.216.376.231l.05.002c.18 0 .377-.088.556-.246a1.59 1.59 0 0 0 .418-.619c.109-.293.096-.572-.035-.765a.5.5 0 0 0-.427-.221z" class="G"/><path d="M224.195 646.928c-.61 0-1.263.578-1.52 1.345-.15.445-.126.871.065 1.168a.76.76 0 0 0 .582.358l.079.004c.279 0 .585-.137.863-.383a2.44 2.44 0 0 0 .648-.96c.169-.456.15-.889-.055-1.189-.149-.221-.385-.343-.662-.343z" class="C E"/><use xlink:href="#G" x="-4.568" y="29.691" class="C"/><path d="M320.247 671.208c-1.462 0-3.015 1.378-3.632 3.205-.354 1.061-.297 2.076.16 2.786a1.81 1.81 0 0 0 1.393.853c.046.006.114.008.183.008.662 0 1.393-.324 2.056-.913s1.21-1.4 1.541-2.289c.411-1.085.354-2.118-.125-2.834-.354-.525-.925-.816-1.576-.816z" class="C"/><path d="M122.799 698.616c-.637 0-1.319.603-1.588 1.403-.155.464-.13.909.069 1.22a.79.79 0 0 0 .608.373l.082.004c.291 0 .611-.142.901-.4s.531-.613.676-1.002c.177-.475.156-.928-.057-1.241a.81.81 0 0 0-.691-.357z" class="I"/></g></g><mask id="B" mask-type="alpha" maskUnits="userSpaceOnUse" x="0" y="0" width="375" height="287"><path fill="#c4c4c4" d="M0 0h375v287H0z"/></mask><g mask="url(#B)"><g style="mix-blend-mode:screen" filter="url(#D)"><path d="M-42.45 207.15C10.857 197.814 4.243 125.477 54.5 105m177.5 7.292c114.43-36.166-78.518-65.695-36.098-96.649 38.623-28.184 186.858 77.573 85.326 68.113 0 0 350.272-248.754 121.272-119.755S-55.192 243.226-31.755 112.293M232 112.292C183.331 127.675 91.695 89.845 54.5 105m177.5 7.292L54.5 105" stroke="url(#F)" stroke-width="21"/></g><g style="mix-blend-mode:screen"><path d="M135.961 70.242c-.559 0-1.158.529-1.394 1.231-.136.407-.115.798.06 1.072a.7.7 0 0 0 .534.328l.072.003c.256 0 .537-.125.791-.351s.467-.538.594-.879c.155-.417.137-.815-.05-1.09a.71.71 0 0 0-.607-.313zm48.878 11.529c-.559 0-1.157.529-1.393 1.231-.137.408-.115.799.059 1.072a.7.7 0 0 0 .535.328c.021.002.044.003.072.003.255 0 .536-.125.79-.351a2.24 2.24 0 0 0 .594-.88c.155-.417.138-.815-.05-1.09a.71.71 0 0 0-.607-.313z" class="C E"/><path d="M268.581 85.564c-.335 0-.694.318-.835.739-.082.245-.069.479.035.642a.42.42 0 0 0 .321.197l.043.002c.154 0 .321-.075.474-.211a1.35 1.35 0 0 0 .357-.528c.093-.25.082-.489-.03-.653-.083-.122-.213-.188-.365-.188z" class="G"/><path d="M179.834 80.453c-.559 0-1.158.529-1.393 1.231-.137.409-.115.799.059 1.072a.7.7 0 0 0 .535.328l.072.003c.255 0 .536-.125.791-.351a2.23 2.23 0 0 0 .593-.879c.155-.417.137-.814-.05-1.09a.71.71 0 0 0-.607-.313zm45.249 17.919c-.335 0-.695.318-.837.739-.082.245-.068.479.036.642a.42.42 0 0 0 .321.197l.043.002c.153 0 .322-.075.475-.211a1.34 1.34 0 0 0 .356-.528c.093-.251.082-.489-.03-.653-.082-.122-.212-.188-.364-.188z" class="F"/><path d="M283.366 72.123c-.448 0-.927.423-1.115.986-.11.326-.092.638.047.856.097.153.249.246.427.262a.55.55 0 0 0 .058.003c.205 0 .429-.1.634-.281s.372-.431.475-.704c.123-.334.109-.651-.041-.872-.11-.162-.282-.25-.485-.25zm2.865 33.365c-.335 0-.695.317-.836.739-.082.244-.07.478.036.642.072.115.186.184.32.197l.043.002c.153 0 .322-.075.475-.211a1.34 1.34 0 0 0 .356-.527c.093-.251.082-.49-.03-.654-.083-.121-.212-.188-.364-.188z" class="B H"/><path d="M53.295 161.89c-.637 0-1.32.604-1.588 1.404-.156.465-.131.911.068 1.222.137.216.354.35.608.373l.082.004c.292 0 .611-.142.902-.401s.531-.613.677-1.002c.178-.476.156-.929-.057-1.242-.156-.231-.402-.358-.691-.358zm-46.799-15.6c-.637 0-1.32.604-1.588 1.404-.156.465-.131.911.068 1.222.137.216.354.35.608.373l.082.004c.292 0 .611-.142.902-.4a2.56 2.56 0 0 0 .677-1.003c.177-.476.156-.929-.057-1.242-.156-.231-.402-.358-.691-.358z" class="K"/><path d="M279.196 63.565c-.383 0-.792.363-.953.842-.094.279-.079.546.041.733.082.13.212.21.365.224l.049.002c.175 0 .367-.086.542-.24s.318-.369.405-.602c.106-.286.094-.558-.034-.746-.095-.139-.242-.215-.415-.215z" class="I"/><path d="M269.989 42.7c-.636 0-1.32.603-1.588 1.405-.156.464-.131.91.068 1.221.138.216.354.35.609.373.025.003.05.004.082.004.291 0 .611-.142.901-.401a2.53 2.53 0 0 0 .677-1.002c.178-.476.156-.929-.056-1.242a.81.81 0 0 0-.693-.358z" class="C"/><path d="M273.282 127.737c-.637 0-1.32.604-1.588 1.404-.156.465-.131.911.068 1.222.137.216.354.35.608.373l.082.004c.292 0 .611-.142.902-.4a2.56 2.56 0 0 0 .677-1.003c.177-.476.156-.929-.058-1.242-.156-.231-.402-.358-.691-.358z" class="K"/><path d="M198.388 59.006c-.382 0-.792.362-.953.842-.094.279-.078.546.041.732.082.131.212.211.365.224a.39.39 0 0 0 .049.002c.175 0 .367-.085.541-.24s.319-.368.407-.602c.105-.286.093-.557-.035-.745-.094-.139-.241-.215-.415-.215z" class="B J"/><path d="M25.113 89.101c-.382 0-.792.363-.954.842-.093.279-.078.546.041.733a.48.48 0 0 0 .366.224l.05.002c.175 0 .367-.086.54-.24s.32-.368.406-.602c.106-.285.094-.557-.034-.745-.095-.139-.242-.215-.415-.215z" class="D"/><path d="M102.11 100.467c-.637 0-1.32.603-1.589 1.404-.156.465-.131.91.068 1.221.138.217.354.35.609.374l.082.004c.291 0 .611-.143.902-.401a2.56 2.56 0 0 0 .677-1.003c.177-.475.156-.929-.058-1.242-.156-.231-.402-.357-.691-.357zm145.205-20.475c-.637 0-1.32.604-1.588 1.404-.156.465-.131.911.068 1.222.138.216.354.35.609.373l.082.004c.291 0 .611-.142.901-.401a2.53 2.53 0 0 0 .677-1.002c.177-.476.156-.929-.057-1.242a.81.81 0 0 0-.692-.358z" class="C E"/><path d="M207.64 99.492c-.382 0-.792.363-.953.843-.093.279-.078.546.041.733.083.13.212.21.365.224l.05.002c.174 0 .366-.086.541-.24s.319-.368.406-.602c.106-.285.093-.557-.035-.745-.094-.138-.241-.214-.415-.214z" class="C"/><path d="M67.985 149.216c-.637 0-1.32.603-1.589 1.404-.156.465-.131.91.068 1.221.138.217.354.35.609.374l.082.004c.291 0 .611-.143.902-.401s.532-.613.677-1.002c.177-.476.156-.93-.057-1.243-.157-.231-.402-.357-.692-.357z" class="F"/><path d="M262.119 85.33c-.382 0-.792.362-.953.842-.093.279-.078.546.041.732.083.131.212.211.365.224.015.002.031.002.05.002.174 0 .366-.085.541-.24a1.53 1.53 0 0 0 .406-.602c.106-.286.093-.557-.035-.745-.094-.138-.241-.215-.415-.215z" class="B J"/><path d="M238.952 83.892c-.425 0-.879.402-1.058.935-.104.31-.088.607.045.814a.53.53 0 0 0 .405.249l.055.003c.194 0 .407-.095.601-.267s.354-.409.45-.668c.118-.317.104-.619-.038-.827-.104-.154-.268-.238-.46-.238z" class="F"/><path d="M258.816 98.517c-.382 0-.792.363-.953.842-.093.279-.079.546.041.733.082.13.212.21.365.224l.049.002c.175 0 .367-.085.541-.239a1.53 1.53 0 0 0 .406-.603c.107-.285.094-.557-.034-.745-.094-.138-.241-.215-.415-.215zm9.273-31.2c-.382 0-.792.363-.953.842-.093.279-.079.546.041.733a.48.48 0 0 0 .365.224l.049.002c.175 0 .367-.086.541-.24a1.52 1.52 0 0 0 .406-.603c.106-.285.094-.557-.034-.745-.094-.138-.241-.214-.415-.214z" class="B D"/><path d="M90.115 100.615c-.382 0-.792.362-.953.842-.093.279-.079.546.041.733.083.13.212.21.365.224l.049.002c.175 0 .367-.085.541-.24s.319-.368.406-.601c.106-.286.093-.558-.034-.746-.094-.138-.241-.214-.415-.214z" class="I"/><path d="M104.359 103.391c-.383 0-.792.363-.954.843-.093.279-.078.546.041.733a.48.48 0 0 0 .366.224l.049.002c.174 0 .367-.086.541-.24s.319-.368.406-.602c.106-.285.093-.557-.034-.745-.094-.139-.242-.215-.415-.215z" class="B D"/><path d="M68.393 154.09c-.447 0-.928.425-1.117.988-.109.328-.092.641.048.859a.56.56 0 0 0 .429.263.48.48 0 0 0 .058.003c.205 0 .43-.1.635-.282a1.79 1.79 0 0 0 .476-.706c.125-.334.109-.653-.04-.873a.57.57 0 0 0-.487-.252z" class="C E"/><path d="M45.495 90.717c-.269 0-.558.254-.671.593-.066.196-.056.384.028.516a.34.34 0 0 0 .257.158.41.41 0 0 0 .034.001c.124 0 .258-.059.381-.169s.224-.259.286-.423c.075-.201.065-.392-.024-.525a.34.34 0 0 0-.291-.151z" class="F"/><path d="M38.615 104.366c-.706 0-1.464.67-1.762 1.558-.173.516-.145 1.009.076 1.354a.88.88 0 0 0 .675.415c.027.003.056.005.091.005.323 0 .678-.158 1-.445s.59-.68.751-1.112c.196-.528.173-1.03-.064-1.378a.9.9 0 0 0-.767-.397zm206.867-55.573c-.707 0-1.464.67-1.762 1.558-.173.516-.145 1.009.075 1.354a.88.88 0 0 0 .676.414c.027.003.056.004.091.004.323 0 .678-.157 1-.444s.59-.681.751-1.112c.196-.527.173-1.03-.064-1.378a.9.9 0 0 0-.767-.397z" class="B H"/><path d="M263.1 55.914c-.706 0-1.464.67-1.762 1.558-.173.516-.145 1.009.076 1.354a.88.88 0 0 0 .675.414.83.83 0 0 0 .091.005c.323 0 .678-.158 1-.445a2.82 2.82 0 0 0 .751-1.112c.196-.527.173-1.03-.064-1.378-.173-.255-.446-.397-.767-.397z" class="F"/><path d="M289.821 76.887c-.707 0-1.464.67-1.762 1.558-.173.516-.146 1.009.075 1.354a.88.88 0 0 0 .676.415l.091.004c.323 0 .678-.158 1-.445s.59-.68.751-1.112c.196-.527.173-1.03-.064-1.378a.9.9 0 0 0-.767-.397z" class="C E"/><path d="M213.308 140.441c-.707 0-1.464.669-1.763 1.558-.172.515-.145 1.009.076 1.354a.88.88 0 0 0 .676.414c.027.003.056.004.091.004.322 0 .678-.157 1-.443s.59-.681.751-1.113c.196-.527.172-1.029-.064-1.377-.174-.256-.446-.397-.767-.397z" class="B H"/><path d="M35.931 186.561c-.707 0-1.464.67-1.763 1.558-.173.516-.145 1.009.076 1.354.152.241.392.388.675.414.028.003.057.005.092.005.323 0 .678-.158 1-.444s.589-.681.751-1.113c.196-.527.172-1.029-.063-1.377a.9.9 0 0 0-.767-.397z" class="F"/><path d="M30.992 188.297c-.707 0-1.464.67-1.763 1.558-.172.515-.145 1.009.076 1.355.153.24.393.388.676.414a.82.82 0 0 0 .091.004c.323 0 .679-.158 1-.444a2.82 2.82 0 0 0 .751-1.112c.196-.529.173-1.031-.063-1.378a.9.9 0 0 0-.767-.397z" class="B D"/><path d="M8.174 206.801c-.707 0-1.464.669-1.762 1.558-.173.515-.145 1.009.075 1.354a.88.88 0 0 0 .676.415l.091.004c.324 0 .679-.158 1-.445s.59-.68.751-1.112c.197-.527.174-1.03-.063-1.378a.9.9 0 0 0-.767-.396z" class="C E"/><path d="M10.95 88.096c-.706 0-1.463.67-1.762 1.558-.173.516-.145 1.009.076 1.354a.88.88 0 0 0 .675.414.82.82 0 0 0 .092.005c.323 0 .678-.158 1-.445s.589-.681.751-1.112c.196-.527.173-1.03-.064-1.378a.9.9 0 0 0-.767-.397zm211.201-51.978c-.707 0-1.464.67-1.762 1.558-.173.516-.146 1.009.076 1.354a.88.88 0 0 0 .674.414c.029.003.057.004.092.004.323 0 .678-.157 1-.444a2.83 2.83 0 0 0 .751-1.113c.196-.527.173-1.029-.063-1.378a.9.9 0 0 0-.768-.397z" class="B H"/><path d="M167.12 56.187c-.707 0-1.465.67-1.763 1.557-.173.516-.145 1.01.076 1.354a.88.88 0 0 0 .676.415c.027.003.055.004.09.004.323 0 .678-.158 1.001-.444a2.84 2.84 0 0 0 .75-1.112c.196-.529.173-1.031-.063-1.379a.9.9 0 0 0-.767-.396zm68.617-12.186c-.707 0-1.464.67-1.762 1.558-.173.515-.146 1.009.076 1.354a.88.88 0 0 0 .675.414c.028.003.056.004.091.004.323 0 .679-.158 1-.444s.59-.681.751-1.112c.196-.528.173-1.031-.063-1.378a.9.9 0 0 0-.768-.397z" class="B D"/><path d="M13.67 109.769c-.707 0-1.464.669-1.763 1.558-.172.515-.145 1.009.076 1.354.152.242.392.389.675.415l.092.004c.323 0 .678-.158 1-.445s.589-.68.751-1.112c.196-.527.173-1.03-.064-1.378-.174-.255-.446-.396-.766-.396z" class="C E"/><path d="M99.303 143.365c-.706 0-1.463.67-1.762 1.559-.172.515-.145 1.009.076 1.354.152.241.392.388.675.414a.82.82 0 0 0 .092.005c.323 0 .678-.158 1-.445s.589-.68.751-1.112c.196-.528.172-1.03-.064-1.378a.9.9 0 0 0-.768-.397zm1.883-75.073c-.707 0-1.465.67-1.763 1.558-.173.516-.145 1.009.076 1.354a.88.88 0 0 0 .675.414c.028.003.056.004.091.004.323 0 .679-.157 1-.444s.59-.681.751-1.112c.196-.528.173-1.03-.063-1.378a.9.9 0 0 0-.767-.397z" class="B H"/><path d="M142.739 114.53c-.424 0-.878.401-1.058.935-.103.309-.086.605.046.812.092.144.235.233.406.248a.41.41 0 0 0 .053.003c.194 0 .408-.094.601-.266a1.68 1.68 0 0 0 .45-.668c.118-.317.105-.618-.038-.827a.54.54 0 0 0-.46-.237zm86.03-52.087c-.424 0-.879.402-1.059.935-.103.31-.087.607.046.813a.53.53 0 0 0 .406.249c.016.002.033.002.054.002.194 0 .407-.095.601-.266s.354-.409.451-.668c.117-.317.103-.619-.038-.828a.54.54 0 0 0-.461-.238z" class="B D"/><path d="M89.949 130.511c-.707 0-1.464.67-1.762 1.558-.173.516-.145 1.009.075 1.354a.88.88 0 0 0 .676.415l.091.004c.324 0 .679-.158 1-.444s.59-.681.751-1.113c.197-.527.174-1.029-.063-1.377-.174-.256-.447-.397-.767-.397z" class="H"/><path d="M132.498 160.163c-.707 0-1.465.67-1.763 1.558-.173.516-.145 1.009.076 1.355a.88.88 0 0 0 .675.415l.091.004c.323 0 .678-.158 1.001-.445a2.83 2.83 0 0 0 .75-1.112c.196-.528.173-1.03-.064-1.378a.9.9 0 0 0-.766-.397z" class="C E"/><path d="M16.426 165.79c-.702 0-1.462.67-1.755 1.558-.175.516-.146 1.009.068 1.354a.9.9 0 0 0 .682.415c.019.003.049.004.088.004.322 0 .673-.158.994-.444.332-.286.595-.681.76-1.113.195-.527.166-1.03-.068-1.377-.175-.256-.448-.397-.77-.397z" class="J"/><path d="M257.251 35.439c-.707 0-1.464.67-1.763 1.558-.172.516-.145 1.009.076 1.354a.88.88 0 0 0 .675.414l.092.005c.322 0 .677-.158 1-.445a2.83 2.83 0 0 0 .751-1.112c.196-.527.172-1.03-.064-1.378a.9.9 0 0 0-.767-.397z" class="F"/><path d="M116.478 173.028c-.42 0-.878.402-1.053.935-.108.309-.088.606.039.812a.55.55 0 0 0 .409.249c.02.002.029.003.059.003.195 0 .399-.095.594-.266a1.69 1.69 0 0 0 .449-.668c.117-.317.107-.618-.039-.827-.098-.153-.263-.238-.458-.238zm186.6-102.786c-.712 0-1.462.67-1.765 1.558-.175.515-.146 1.009.078 1.354.147.241.39.388.673.414.029.003.059.004.088.004.331 0 .682-.158 1.004-.444s.585-.682.751-1.112c.195-.528.175-1.031-.069-1.378-.165-.257-.438-.397-.76-.397zm-167.365 65.324c-.833 0-1.726.789-2.077 1.836-.204.608-.172 1.189.089 1.597a1.04 1.04 0 0 0 .796.488l.108.005c.38 0 .798-.186 1.178-.524s.695-.802.886-1.311c.231-.622.203-1.214-.075-1.624-.205-.302-.527-.467-.905-.467z" class="B D"/><path d="M99.639 133.616c-.833 0-1.726.788-2.078 1.836-.203.607-.171 1.189.09 1.596a1.04 1.04 0 0 0 .796.489l.107.005c.381 0 .799-.186 1.18-.524s.694-.802.885-1.311c.231-.622.203-1.214-.076-1.624-.204-.302-.525-.467-.903-.467z" class="C E"/><path d="M143.989 134.015c-.499 0-1.035.473-1.246 1.101-.122.365-.102.714.054.958.108.17.278.275.478.293a.6.6 0 0 0 .064.003c.228 0 .48-.111.707-.314s.417-.481.531-.787c.139-.373.122-.728-.045-.974-.122-.181-.316-.28-.543-.28z" class="B D"/><path d="M204.033 139.698c-.492 0-1.021.467-1.229 1.086-.12.359-.1.703.053.944a.61.61 0 0 0 .471.288.59.59 0 0 0 .063.003c.226 0 .473-.11.697-.309s.412-.474.524-.776c.137-.367.12-.717-.045-.959-.121-.179-.311-.277-.534-.277z" class="B H"/><path d="M212.854 136.216c-.493 0-1.021.466-1.229 1.085-.12.36-.101.704.053.944.106.169.274.271.471.29.018.002.039.002.063.002.226 0 .472-.11.697-.31s.411-.473.523-.775c.138-.367.121-.717-.044-.96-.121-.178-.311-.276-.534-.276z" class="B D"/><path d="M105.626 180.647c-.497 0-1.023.467-1.228 1.086-.117.359-.098.703.049.944.107.168.273.27.477.289l.059.003c.224 0 .478-.111.702-.309s.409-.475.517-.777c.136-.367.126-.717-.039-.959a.64.64 0 0 0-.537-.277z" class="B H"/><path d="M114.45 177.165c-.497 0-1.023.466-1.228 1.085-.127.36-.107.704.049.944.107.169.273.271.468.29l.068.002c.224 0 .468-.11.692-.31a1.83 1.83 0 0 0 .527-.775c.136-.367.126-.717-.04-.96-.126-.178-.311-.276-.536-.276z" class="B D"/><path d="M121.646 175.54c-.497 0-1.024.467-1.229 1.086-.117.359-.097.703.049.944.107.167.273.27.478.288.019.002.039.003.058.003.224 0 .478-.11.702-.309a1.92 1.92 0 0 0 .517-.776c.136-.368.127-.718-.039-.96-.127-.178-.312-.276-.536-.276zm-11.137-55.574c-.527 0-1.082.494-1.297 1.149-.127.379-.107.743.049.997a.66.66 0 0 0 .497.305.79.79 0 0 0 .068.003c.244 0 .498-.116.741-.327.234-.21.429-.502.556-.819.137-.39.127-.759-.049-1.015a.66.66 0 0 0-.565-.293zM72.45 154.923c-.526 0-1.082.493-1.306 1.148-.127.38-.107.744.058.997.117.177.293.287.497.306.019.002.039.003.068.003.234 0 .497-.116.741-.327.234-.211.429-.502.546-.819.146-.389.127-.76-.049-1.015-.127-.19-.322-.293-.556-.293z" class="C E"/><path d="M99.847 106.452c-.517 0-1.082.493-1.297 1.148-.127.379-.107.743.058.997.107.178.283.286.497.305.019.002.039.003.058.003.244 0 .507-.116.741-.326s.439-.503.556-.82c.146-.388.127-.759-.049-1.015a.66.66 0 0 0-.565-.292zM62.379 76c-.517 0-1.082.493-1.297 1.148-.127.379-.107.743.058.997a.63.63 0 0 0 .497.305l.059.003c.244 0 .507-.116.741-.327a2.11 2.11 0 0 0 .556-.82c.146-.388.127-.759-.049-1.015-.127-.188-.332-.291-.566-.291z" class="B D"/><path d="M19.849 157.015c-.868 0-1.798.823-2.164 1.913-.212.633-.178 1.239.093 1.662a1.08 1.08 0 0 0 .83.51l.111.005c.397 0 .833-.194 1.229-.545s.723-.836.921-1.366c.241-.648.213-1.264-.078-1.691-.213-.314-.548-.488-.942-.488zM81.302 116c-.868 0-1.798.823-2.163 1.913-.212.633-.178 1.239.093 1.662a1.08 1.08 0 0 0 .83.51l.111.005c.397 0 .833-.194 1.228-.545a3.49 3.49 0 0 0 .921-1.366c.241-.648.213-1.264-.078-1.692-.213-.313-.548-.487-.942-.487z" class="C"/><path d="M.328 121.245c-.868 0-1.798.822-2.164 1.912-.212.633-.177 1.24.094 1.663.187.296.482.477.829.51l.112.005c.396 0 .833-.194 1.227-.545s.724-.837.922-1.367c.241-.648.213-1.264-.078-1.691-.214-.314-.548-.487-.942-.487z" class="B D"/><path d="M239.207 27.343c-.52 0-1.078.493-1.298 1.148-.128.38-.107.744.056.997.112.178.289.287.497.306a.69.69 0 0 0 .067.003c.238 0 .499-.116.737-.328a2.08 2.08 0 0 0 .553-.819c.144-.389.128-.76-.047-1.015a.66.66 0 0 0-.565-.293zm56.691 73.598c-.52 0-1.079.493-1.298 1.147-.128.381-.107.744.056.998.112.178.289.287.497.306.02.002.042.003.067.003.238 0 .499-.116.737-.328a2.09 2.09 0 0 0 .553-.819c.144-.389.128-.759-.047-1.015-.127-.189-.328-.292-.565-.292z" class="G"/><path d="M265.119 103.391c-.868 0-1.798.822-2.164 1.913-.212.633-.178 1.239.093 1.663.188.296.482.476.829.51l.112.004c.396 0 .833-.194 1.228-.545s.724-.836.922-1.366c.241-.648.213-1.265-.078-1.692-.214-.314-.548-.487-.942-.487zm-85.44-35.668c-.867 0-1.798.822-2.164 1.913-.212.633-.178 1.239.093 1.662.188.296.482.477.829.51l.112.005c.396 0 .833-.194 1.228-.545s.724-.837.922-1.366c.241-.648.213-1.266-.078-1.693-.213-.314-.548-.487-.942-.487zm36.893-30.311c-.52 0-1.078.494-1.298 1.148-.127.379-.107.743.056.997a.65.65 0 0 0 .497.305c.021.002.042.003.068.003.237 0 .499-.116.737-.327s.433-.502.552-.82c.145-.389.128-.758-.046-1.015-.128-.188-.329-.292-.566-.292z" class="C E"/><path d="M176.754 83.323c-.867 0-1.797.822-2.164 1.913-.212.633-.177 1.239.094 1.662a1.08 1.08 0 0 0 .828.51l.112.005c.396 0 .833-.194 1.228-.545s.724-.837.922-1.366c.241-.648.213-1.266-.078-1.693-.213-.314-.548-.486-.942-.486z" class="B L"/><path d="M163.36 77.652c-.52 0-1.079.493-1.298 1.147-.128.379-.107.743.056.997a.65.65 0 0 0 .497.305c.02.002.042.003.067.003.238 0 .5-.116.737-.327s.434-.502.553-.82c.144-.388.128-.758-.047-1.015a.66.66 0 0 0-.565-.291zm33.405-14.921c-.521 0-1.079.493-1.299 1.148-.127.38-.107.744.056.998a.65.65 0 0 0 .497.305.69.69 0 0 0 .067.003c.238 0 .501-.116.738-.326a2.09 2.09 0 0 0 .552-.82c.146-.389.128-.758-.046-1.015-.128-.188-.329-.292-.565-.292zm50.049 1.227c-.424 0-.879.402-1.058.935-.104.309-.087.606.045.813a.53.53 0 0 0 .406.249l.055.002c.194 0 .407-.095.601-.266a1.69 1.69 0 0 0 .45-.669c.118-.316.105-.618-.038-.828a.54.54 0 0 0-.461-.238z" class="B D"/><path d="M222.266 23.443c-.383 0-.793.363-.954.842-.093.279-.078.546.041.732.083.131.213.211.366.224.014.002.03.003.048.003.175 0 .367-.086.542-.241s.318-.368.406-.602c.105-.285.094-.557-.035-.745-.094-.138-.241-.214-.414-.214z" class="C E"/><path d="M157.323 67.465c-.382 0-.792.363-.952.842-.094.279-.079.546.04.733.082.13.212.21.365.224l.05.002c.174 0 .366-.086.541-.24a1.53 1.53 0 0 0 .406-.602c.106-.286.093-.558-.035-.746-.094-.138-.241-.215-.415-.215z" class="I"/><path d="M212.303 53.193c-.849 0-1.758.804-2.116 1.871-.208.619-.175 1.212.09 1.626a1.06 1.06 0 0 0 .812.498l.109.005c.387 0 .814-.19 1.201-.533s.708-.818.902-1.336c.235-.634.207-1.237-.077-1.654a1.08 1.08 0 0 0-.921-.476zm52.092-36.575c-.828 0-1.714.784-2.063 1.824-.202.604-.17 1.182.088 1.586.179.282.46.454.791.486l.106.005c.378 0 .795-.185 1.172-.52a3.32 3.32 0 0 0 .879-1.303c.229-.618.202-1.206-.075-1.613a1.05 1.05 0 0 0-.898-.464zm58.562-8.017c-.7 0-1.45.664-1.746 1.543-.171.511-.144 1 .075 1.342.152.239.389.384.669.411.027.003.056.004.091.004.319 0 .671-.156.991-.44a2.8 2.8 0 0 0 .743-1.102c.195-.523.172-1.02-.063-1.365a.89.89 0 0 0-.76-.393zM171.65 55.617c-.414 0-.857.392-1.032.912-.101.302-.085.591.045.793.089.141.23.227.395.243.016.002.033.002.053.002.189 0 .397-.092.586-.26a1.65 1.65 0 0 0 .439-.651c.115-.309.102-.603-.037-.806-.102-.15-.261-.232-.449-.232z" class="C"/><path d="M305.471 49.768c-1.248 0-2.574 1.176-3.1 2.736-.302.906-.254 1.773.136 2.379a1.55 1.55 0 0 0 1.19.728 1.4 1.4 0 0 0 .156.007c.565 0 1.189-.277 1.755-.78s1.033-1.195 1.316-1.954c.351-.926.302-1.809-.107-2.42-.303-.449-.79-.696-1.346-.696z" class="C E"/><path d="M335.254 67c-.853 0-1.76.804-2.12 1.871-.207.619-.173 1.212.093 1.627.18.289.474.466.814.498.026.003.066.005.106.005.387 0 .814-.189 1.2-.533a3.39 3.39 0 0 0 .9-1.336c.24-.633.207-1.237-.073-1.655-.207-.307-.54-.476-.92-.476z" class="F"/><path d="M241.619 126.791c-1.067 0-2.2 1.005-2.65 2.338-.259.774-.217 1.515.116 2.033a1.32 1.32 0 0 0 1.017.623c.034.004.083.006.133.006.484 0 1.017-.237 1.5-.667s.884-1.022 1.125-1.67c.3-.792.259-1.546-.091-2.068-.259-.384-.675-.595-1.15-.595z" class="C"/><path d="M99.029 63.417c-.257 0-.533.244-.642.566-.062.188-.053.368.028.492.055.088.142.141.245.151l.033.002c.118 0 .247-.058.365-.162s.215-.248.273-.405c.071-.192.062-.374-.023-.501-.063-.093-.163-.144-.279-.144zm-64.292 75.074c-.256 0-.532.243-.641.566-.063.188-.053.368.027.493.056.087.143.141.246.151l.033.002c.118 0 .247-.058.364-.162a1.03 1.03 0 0 0 .273-.405c.071-.192.063-.374-.022-.501-.063-.093-.163-.144-.28-.144z" class="C E"/><path d="M154.66 40.018c-.257 0-.533.244-.641.566-.063.188-.053.368.027.492.056.088.144.141.246.151l.033.002c.118 0 .247-.058.364-.162s.214-.248.273-.405c.071-.192.063-.374-.023-.501-.063-.093-.162-.144-.279-.144z" class="B D"/><path d="M82.511 85.842c-.257 0-.532.244-.641.566-.063.188-.053.368.027.492.056.088.143.141.246.151l.033.002c.118 0 .247-.057.364-.162s.215-.248.273-.405c.071-.192.063-.374-.022-.501a.33.33 0 0 0-.28-.144zm-69.223 47.774c-.256 0-.532.243-.64.566-.063.188-.053.368.027.493.056.087.143.141.246.151l.033.002c.118 0 .247-.058.364-.162a1.03 1.03 0 0 0 .273-.405c.071-.192.063-.374-.022-.501-.063-.093-.163-.144-.28-.144z" class="G"/><path d="M219.251 90c-.849 0-1.758.804-2.116 1.871-.207.619-.175 1.212.091 1.626a1.06 1.06 0 0 0 .811.498 1.1 1.1 0 0 0 .109.005c.388 0 .814-.19 1.201-.533s.708-.818.902-1.336c.235-.634.207-1.237-.077-1.654-.208-.307-.536-.476-.921-.476z" class="D"/><path d="M50.829 125.777c-.637 0-1.32.603-1.588 1.405-.156.464-.131.909.068 1.22.137.217.354.35.608.374a.68.68 0 0 0 .082.004c.291 0 .611-.143.902-.401s.531-.613.677-1.002c.178-.476.156-.929-.056-1.242a.81.81 0 0 0-.692-.358zm72.664-73.084c-.636 0-1.32.604-1.588 1.404-.156.465-.131.911.068 1.222.138.217.354.35.609.373l.082.004c.291 0 .611-.142.901-.401a2.53 2.53 0 0 0 .677-1.002c.177-.476.156-.929-.058-1.242-.156-.231-.401-.358-.691-.358zm-82.856 58.83c-.637 0-1.32.604-1.588 1.404-.156.465-.131.91.068 1.221a.79.79 0 0 0 .608.373.68.68 0 0 0 .082.004c.291 0 .611-.142.902-.4a2.56 2.56 0 0 0 .677-1.003c.177-.476.156-.928-.056-1.242a.81.81 0 0 0-.692-.357z" class="C E"/><path d="M67.061 96.81c-.638 0-1.32.603-1.589 1.404-.155.465-.131.911.068 1.222.138.216.354.35.609.373l.082.004c.291 0 .611-.142.902-.401s.531-.613.677-1.002c.177-.476.156-.929-.058-1.242a.81.81 0 0 0-.691-.358z" class="C"/><path d="M40.62 137.487c-.637 0-1.32.604-1.588 1.404-.156.465-.131.911.068 1.222.138.216.354.35.608.373l.082.004c.291 0 .611-.142.902-.401s.531-.613.677-1.002c.178-.476.156-.929-.057-1.242-.156-.231-.402-.358-.691-.358z" class="F"/><path d="M114.043 127.766c-.382 0-.792.363-.954.842-.093.279-.078.546.041.734.083.129.213.209.366.224l.049.002c.175 0 .367-.086.541-.24s.319-.369.406-.603c.107-.284.094-.556-.035-.744-.093-.139-.241-.215-.414-.215z" class="I"/></g><g style="mix-blend-mode:screen" opacity=".5" class="G"><path d="M133.814 104c-1.061 0-2.198 1.005-2.645 2.338-.26.774-.218 1.515.113 2.034.229.361.589.582 1.014.622a1.38 1.38 0 0 0 .137.006c.484 0 1.017-.237 1.501-.667a4.24 4.24 0 0 0 1.127-1.669c.295-.793.26-1.547-.096-2.069-.26-.383-.669-.595-1.151-.595z"/></g><g style="mix-blend-mode:screen"><path d="M299.377 30.601c-.934 0-1.935.885-2.328 2.058-.228.681-.192 1.333.1 1.789a1.16 1.16 0 0 0 .892.548c.036.004.074.005.12.005.427 0 .896-.208 1.321-.587s.779-.899.992-1.469c.259-.697.229-1.361-.084-1.82-.23-.338-.589-.524-1.013-.524z" class="G"/><path d="M157.698 149.216c-1.034 0-2.145.98-2.579 2.28-.254.754-.215 1.477.107 1.982.224.352.575.568.99.607.039.004.082.005.131.005.473 0 .995-.231 1.468-.649a4.12 4.12 0 0 0 1.096-1.629c.288-.772.254-1.507-.092-2.016-.254-.374-.653-.58-1.121-.58z" class="F"/><path d="M143.163 81.772c-.848 0-1.758.804-2.116 1.871-.207.62-.175 1.212.091 1.626.183.289.471.467.811.498.032.003.067.005.109.005.388 0 .814-.19 1.201-.533s.709-.818.902-1.336c.236-.634.208-1.237-.076-1.655a1.08 1.08 0 0 0-.922-.476z" class="I"/><path d="M193.22 163.84c-.273 0-.564.258-.679.601-.067.199-.056.389.029.522a.34.34 0 0 0 .26.16c.011.001.022.001.035.001.125 0 .262-.06.385-.17a1.09 1.09 0 0 0 .29-.429c.076-.204.067-.398-.024-.532a.35.35 0 0 0-.296-.153z" class="G"/><path d="M223.606 119.281c-.273 0-.564.258-.679.601-.067.198-.057.389.029.522a.34.34 0 0 0 .26.16l.035.002c.124 0 .262-.062.385-.172a1.08 1.08 0 0 0 .29-.429c.076-.203.067-.397-.024-.531-.068-.099-.172-.153-.296-.153zm65.217-74.38c-.273 0-.565.258-.68.601-.066.198-.056.389.03.522.058.093.151.15.26.16l.035.002a.6.6 0 0 0 .385-.172 1.09 1.09 0 0 0 .29-.429c.076-.203.067-.397-.025-.531-.067-.098-.171-.152-.295-.152zm-79.524 114.064c-.272 0-.564.258-.679.6-.067.199-.056.389.029.523.058.093.151.149.26.159.011.002.022.002.035.002.125 0 .262-.061.386-.171s.228-.263.29-.429c.075-.204.066-.398-.025-.531-.067-.099-.172-.153-.296-.153z" class="C E"/><path d="M217.923 111.576c-.163 0-.338.155-.407.361-.04.119-.034.233.017.313.036.056.091.09.157.096.006.001.013.001.021.001.075 0 .157-.036.231-.103s.136-.158.174-.257c.045-.122.04-.238-.015-.319a.21.21 0 0 0-.178-.092z" class="G"/><path d="M217.923 121.207c-.163 0-.338.155-.407.361-.04.119-.034.233.017.313.036.055.091.089.157.095.006.001.013.001.021.001.075 0 .157-.036.231-.102a.65.65 0 0 0 .174-.258c.045-.121.04-.237-.015-.318-.04-.059-.103-.092-.178-.092z" class="C E"/><path d="M197.705 155.374c-.273 0-.565.259-.68.601-.066.199-.056.389.029.522a.34.34 0 0 0 .261.16c.01.001.021.001.035.001.124 0 .261-.06.385-.17a1.09 1.09 0 0 0 .289-.429c.076-.204.068-.397-.024-.532-.067-.098-.172-.153-.295-.153zm-2.056 7.32c-.272 0-.564.258-.678.6-.068.199-.057.39.029.523.058.092.151.149.26.16l.035.002c.124 0 .261-.062.385-.172a1.09 1.09 0 0 0 .29-.429c.076-.204.066-.397-.024-.531-.068-.099-.173-.153-.297-.153zm25.228-34.938c-.164 0-.339.155-.407.361-.04.119-.035.233.017.313.035.056.091.09.156.097h.021a.36.36 0 0 0 .232-.103c.074-.066.136-.157.173-.257.045-.122.04-.238-.014-.319a.21.21 0 0 0-.178-.092z" class="F"/><path d="M220.652 115.557c-.272 0-.564.258-.678.601-.068.199-.057.389.028.522a.34.34 0 0 0 .261.159c.01.002.022.002.034.002.125 0 .262-.06.386-.17s.228-.264.29-.429c.075-.204.066-.398-.024-.532a.35.35 0 0 0-.297-.153zM255.722 45c-.272 0-.564.258-.678.601-.067.199-.057.389.028.523a.34.34 0 0 0 .261.159c.01.002.022.002.035.002.124 0 .262-.06.386-.171a1.1 1.1 0 0 0 .289-.429c.075-.204.066-.398-.024-.531-.067-.099-.173-.153-.297-.153zm-1.378 59.366c-.163 0-.338.155-.407.361-.04.119-.034.233.017.313.036.056.092.09.157.096.006.001.013.001.02.001.076 0 .157-.036.232-.103a.67.67 0 0 0 .174-.257c.045-.122.04-.238-.015-.319a.21.21 0 0 0-.178-.092z" class="B D"/><path d="M260.363 130.792c-.307 0-.637.292-.766.678-.075.224-.064.44.032.589a.38.38 0 0 0 .294.18c.012.002.025.002.039.002.141 0 .296-.068.435-.193a1.22 1.22 0 0 0 .327-.484c.086-.23.075-.448-.027-.599-.076-.111-.194-.173-.334-.173zm53.853-41.891c-.307 0-.637.291-.767.678-.075.224-.063.44.033.589.066.105.17.17.294.18.012.002.024.002.039.002.14 0 .295-.068.435-.193a1.23 1.23 0 0 0 .326-.484c.086-.23.076-.448-.027-.6a.39.39 0 0 0-.333-.173z" class="G"/><path d="M281.459 108.268c-.307 0-.636.292-.766.678-.075.224-.063.438.033.589.066.105.171.168.294.18l.04.002c.14 0 .294-.069.434-.193a1.23 1.23 0 0 0 .327-.485c.085-.229.075-.447-.028-.598-.075-.112-.194-.173-.334-.173zm11.856-90.867c-.307 0-.636.292-.766.678-.075.224-.064.439.033.589a.38.38 0 0 0 .294.18l.039.002c.141 0 .295-.069.435-.193s.257-.296.327-.485c.085-.229.075-.448-.028-.599a.39.39 0 0 0-.334-.173zm24.2 24.2c-.307 0-.636.291-.766.678-.075.224-.063.439.033.589.067.105.171.169.294.18l.04.002c.14 0 .294-.069.435-.193s.256-.296.326-.485c.085-.229.075-.447-.028-.599a.39.39 0 0 0-.334-.173zm-62.657 99.622c-.307 0-.637.292-.767.678-.075.224-.063.439.034.589a.38.38 0 0 0 .293.18l.04.002c.14 0 .294-.068.435-.193a1.24 1.24 0 0 0 .326-.483c.085-.231.075-.449-.028-.6a.39.39 0 0 0-.333-.173zm10.484-29.507c-.184 0-.382.174-.46.406-.045.135-.038.264.02.354.04.063.103.101.176.109h.025c.083 0 .176-.041.26-.116a.73.73 0 0 0 .196-.29c.052-.138.046-.269-.017-.36-.044-.066-.116-.103-.2-.103z" class="C E"/><path d="M282.157 92.667c-.307 0-.637.292-.766.678-.075.224-.064.439.033.589a.38.38 0 0 0 .293.18l.04.002c.141 0 .295-.068.435-.193a1.23 1.23 0 0 0 .327-.484c.085-.23.075-.449-.029-.6a.39.39 0 0 0-.333-.173z" class="F"/><path d="M254.47 118.7c-.308 0-.637.29-.767.678-.075.224-.063.438.033.588.066.105.171.169.293.181a.51.51 0 0 0 .04.001c.141 0 .296-.068.435-.193a1.22 1.22 0 0 0 .327-.484c.086-.229.075-.447-.027-.599a.39.39 0 0 0-.334-.172zm14.161-.87c-.185 0-.383.175-.46.407-.046.134-.038.263.02.353a.23.23 0 0 0 .176.108c.007.001.015.002.024.002.084 0 .176-.042.261-.116a.75.75 0 0 0 .196-.291c.051-.137.045-.269-.017-.36-.045-.066-.117-.103-.2-.103z" class="K"/><path d="M210.821 38.068c-.245 0-.509.233-.613.542-.06.179-.05.351.027.471.053.084.136.136.235.144l.032.002c.112 0 .236-.056.348-.155s.204-.237.26-.387c.068-.183.061-.358-.021-.479-.061-.09-.155-.138-.268-.138z" class="B H"/><path d="M268.42 105.341c-.308 0-.637.292-.767.678-.075.224-.062.439.033.589.066.105.171.168.295.18l.039.002c.14 0 .295-.068.434-.193s.257-.296.327-.484c.086-.23.075-.448-.027-.599-.076-.111-.194-.173-.334-.173zM274.816 33c-.308 0-.638.291-.767.678-.076.224-.063.439.033.589a.38.38 0 0 0 .294.18l.039.002c.141 0 .296-.068.435-.193a1.25 1.25 0 0 0 .327-.484c.085-.23.075-.448-.028-.6a.39.39 0 0 0-.333-.173z" class="B D"/><path d="M298.225 120.941c-.184 0-.382.174-.46.406-.045.135-.038.264.02.353.04.064.102.102.176.109.007.001.015.002.023.002.085 0 .178-.042.262-.116s.154-.179.196-.291c.051-.137.045-.269-.017-.36-.045-.066-.116-.103-.2-.103z" fill="#73ddff" class="B"/><path d="M160.295 100.568c-.302 0-.633.291-.76.677-.078.225-.068.44.029.589a.39.39 0 0 0 .293.181c.009.002.029.002.039.002.146 0 .292-.069.438-.193.137-.124.254-.297.322-.484.088-.23.078-.448-.029-.6a.37.37 0 0 0-.332-.172z" class="G"/><path d="M154.793 110.999c-.307 0-.636.292-.766.678-.075.224-.063.438.033.589.066.105.171.168.294.18l.04.002c.14 0 .294-.068.434-.193s.257-.297.327-.484c.085-.23.075-.448-.028-.599-.075-.112-.194-.173-.334-.173zm.735-56.807c-.184 0-.382.175-.46.407-.045.134-.038.263.019.354.04.062.104.1.177.108l.024.001c.084 0 .177-.042.261-.116a.74.74 0 0 0 .196-.291c.051-.137.045-.269-.017-.36-.045-.066-.116-.103-.2-.103z" class="C E"/><path d="M148.617 129.213c-.184 0-.382.174-.46.406-.045.135-.038.263.02.353.04.064.102.102.176.108.007.001.015.001.024.001.084 0 .177-.041.261-.116s.154-.177.196-.289c.051-.139.045-.269-.017-.36-.045-.067-.116-.103-.2-.103z" class="G"/><path d="M145.63 59.226c-.308 0-.637.29-.767.678-.075.224-.062.439.033.589.066.104.171.169.294.18.012.001.024.001.04.001.14 0 .295-.068.434-.193a1.24 1.24 0 0 0 .327-.484c.086-.229.075-.448-.027-.6a.39.39 0 0 0-.334-.172zm52.183 28.38c-.186 0-.381.174-.459.407-.039.135-.039.263.02.353.039.063.107.101.175.108l.03.002c.078 0 .175-.042.253-.116.088-.075.156-.178.205-.291.049-.138.039-.269-.02-.36a.24.24 0 0 0-.204-.103z" class="F"/><path d="M184.688 40.993c-.186 0-.381.175-.459.407-.039.135-.039.263.02.353.039.063.107.101.175.108l.03.002c.078 0 .175-.042.253-.116.088-.075.156-.178.205-.29.049-.138.039-.269-.02-.36a.24.24 0 0 0-.204-.103z" class="C"/><path d="M139.842 69.882c-.184 0-.382.175-.46.406-.045.135-.038.264.02.354a.23.23 0 0 0 .176.108c.007.001.015.001.024.001.084 0 .177-.041.261-.116s.154-.177.196-.291c.052-.138.045-.268-.017-.359-.045-.067-.116-.104-.2-.104z" class="B H"/><path d="M158.609 47.818c-.312 0-.644.291-.77.678-.078.224-.059.439.039.589a.36.36 0 0 0 .292.18l.039.002c.137 0 .293-.068.429-.193a1.18 1.18 0 0 0 .332-.484c.087-.23.078-.448-.03-.6-.078-.111-.195-.172-.331-.172z" class="B D"/><path d="M176.873 130.792c-.307 0-.637.292-.766.678-.075.224-.064.44.032.589a.38.38 0 0 0 .294.18c.012.002.025.002.039.002.141 0 .296-.068.435-.193a1.24 1.24 0 0 0 .327-.484c.085-.23.075-.448-.028-.599a.39.39 0 0 0-.333-.173z" class="G"/><path d="M188.22 108.268c-.307 0-.636.292-.766.678-.075.224-.063.438.033.589.067.105.171.168.294.18l.04.002c.14 0 .294-.069.435-.193a1.24 1.24 0 0 0 .326-.485c.085-.229.075-.447-.028-.598-.075-.112-.194-.173-.334-.173zm-16.852 32.955c-.307 0-.637.292-.766.678-.075.224-.064.439.033.589a.38.38 0 0 0 .293.18l.04.002c.141 0 .295-.068.435-.193a1.25 1.25 0 0 0 .327-.483c.084-.231.075-.449-.029-.6a.39.39 0 0 0-.333-.173z" class="C E"/><path d="M215.891 104.366c-.184 0-.382.175-.46.407-.045.135-.038.263.019.353a.23.23 0 0 0 .177.108.14.14 0 0 0 .023.002.41.41 0 0 0 .261-.116c.085-.075.154-.178.196-.29.052-.138.045-.27-.016-.36-.045-.066-.116-.104-.2-.104z" class="G"/><path d="M172.102 84.417c-.184 0-.382.174-.46.407-.045.135-.038.263.02.354.04.062.103.1.176.108l.024.001c.084 0 .177-.042.261-.116a.73.73 0 0 0 .196-.291c.051-.137.046-.269-.017-.36-.045-.066-.116-.103-.2-.103z" class="C E"/><path d="M155.443 120.438c-.185 0-.383.175-.461.407-.044.134-.038.263.02.353a.23.23 0 0 0 .176.108c.007.001.015.001.024.001.085 0 .177-.041.261-.116a.73.73 0 0 0 .196-.29c.052-.138.045-.269-.017-.36a.23.23 0 0 0-.199-.103z" class="G"/><path d="M188.917 92.667c-.307 0-.636.292-.766.678-.075.224-.063.439.033.589a.38.38 0 0 0 .294.18l.04.002c.14 0 .294-.068.434-.193a1.23 1.23 0 0 0 .327-.484c.085-.23.075-.449-.028-.6a.39.39 0 0 0-.334-.173zM170.98 118.7c-.308 0-.638.29-.767.678-.075.224-.063.438.033.588.066.105.17.169.293.181a.51.51 0 0 0 .04.001c.141 0 .296-.068.435-.193a1.23 1.23 0 0 0 .327-.484c.086-.229.075-.447-.028-.599-.076-.112-.194-.172-.333-.172zM3.672 177.49c-.308 0-.638.29-.767.677-.075.224-.062.439.033.589.066.104.171.169.294.18.013.001.024.001.04.001.14 0 .295-.068.435-.193s.256-.295.327-.483c.086-.229.075-.448-.027-.6a.39.39 0 0 0-.333-.171zm181.469-59.66c-.185 0-.382.175-.459.407-.046.134-.038.263.019.353a.23.23 0 0 0 .176.108c.007.001.015.002.024.002.084 0 .176-.042.261-.116a.75.75 0 0 0 .196-.291c.051-.137.045-.269-.016-.36-.046-.066-.117-.103-.201-.103zM283.489 57c-.184 0-.382.175-.459.407-.046.135-.038.263.019.353a.23.23 0 0 0 .177.108.14.14 0 0 0 .023.002c.084 0 .176-.042.261-.116a.75.75 0 0 0 .196-.291c.051-.137.045-.269-.016-.36-.046-.066-.117-.103-.201-.103z" class="F"/><path d="M215.079 80.967c-.245 0-.51.233-.613.542-.06.179-.051.351.026.471.054.084.137.136.235.144l.033.002c.112 0 .235-.056.348-.155a.97.97 0 0 0 .26-.387c.068-.183.06-.358-.022-.479a.31.31 0 0 0-.267-.138zm-68.411-19.86c-.185 0-.382.176-.46.407-.045.135-.039.264.019.354a.23.23 0 0 0 .176.108c.007.001.015.001.024.001.085 0 .177-.041.261-.116s.154-.177.196-.291c.052-.138.045-.268-.016-.359-.045-.067-.116-.104-.2-.104z" class="B H"/><path d="M175.182 78.042c-.309 0-.638.291-.768.678-.075.224-.062.439.033.589.067.105.171.169.295.18l.039.002c.14 0 .295-.068.435-.193s.256-.296.326-.484c.086-.23.075-.448-.027-.6a.39.39 0 0 0-.333-.173zm20.054 42.899c-.185 0-.383.174-.461.406-.044.135-.038.264.02.353.04.064.102.102.176.109.007.001.015.002.024.002a.41.41 0 0 0 .261-.116c.085-.076.154-.179.196-.291.052-.137.045-.269-.017-.36-.044-.066-.116-.103-.199-.103z" class="B D"/><path d="M323.303 134.591c-.244 0-.507.233-.614.542-.059.179-.049.351.029.471.048.084.136.135.234.144l.029.002c.117 0 .234-.056.351-.155.107-.099.205-.237.263-.387.068-.183.059-.358-.029-.479a.31.31 0 0 0-.263-.138z" class="B H"/><path d="M283.406 131.666c-.312 0-.644.291-.77.677-.078.225-.059.439.039.589a.36.36 0 0 0 .292.181l.039.002c.137 0 .293-.069.429-.193a1.17 1.17 0 0 0 .331-.484c.088-.23.079-.449-.029-.6-.078-.111-.195-.172-.331-.172zm35.213-68.065c-.312 0-.644.291-.771.678-.078.224-.058.439.039.589.059.105.166.169.293.18.01.001.019.002.039.002.136 0 .292-.068.429-.193a1.17 1.17 0 0 0 .331-.484c.088-.23.078-.448-.029-.6-.078-.111-.195-.173-.331-.173zm-24.907 206.512c-.185 0-.39.174-.458.406-.049.135-.039.263.019.353.039.063.098.101.176.108.107.002.195-.04.283-.114.078-.075.156-.178.195-.29.048-.138.048-.269-.02-.36-.039-.066-.117-.103-.195-.103z" class="B D"/><path d="M134.319 144.34c-.307 0-.637.292-.767.678-.075.224-.063.439.033.589.067.105.171.168.294.18l.04.002c.14 0 .294-.068.435-.193a1.24 1.24 0 0 0 .326-.483c.085-.231.075-.449-.028-.6a.39.39 0 0 0-.333-.173zM59.876 96.668c-.307 0-.637.291-.766.678-.075.224-.063.44.032.589a.38.38 0 0 0 .295.18.25.25 0 0 0 .039.002c.14 0 .295-.068.435-.193a1.23 1.23 0 0 0 .327-.484c.086-.23.075-.448-.027-.6a.39.39 0 0 0-.334-.173zm25.349 60.449c-.307 0-.637.291-.766.677-.075.225-.063.44.032.589a.38.38 0 0 0 .294.181c.012.002.024.002.039.002.14 0 .295-.069.435-.194a1.25 1.25 0 0 0 .327-.483c.086-.23.075-.449-.027-.6a.39.39 0 0 0-.334-.172zm-36.704-56.651c-.307 0-.637.292-.766.678-.075.224-.063.439.033.589.066.105.171.168.294.18l.04.002c.14 0 .294-.068.435-.193s.256-.296.327-.484c.085-.23.075-.448-.028-.599a.39.39 0 0 0-.333-.173zm161.846-21.043c-.307 0-.637.291-.766.678-.075.224-.064.439.033.589a.38.38 0 0 0 .293.18l.04.002c.141 0 .295-.068.435-.193a1.25 1.25 0 0 0 .327-.484c.084-.23.075-.448-.029-.6a.39.39 0 0 0-.333-.173zm-59.474-14.625c-.307 0-.636.291-.766.678-.075.224-.063.439.033.589a.38.38 0 0 0 .294.18l.04.002c.14 0 .294-.068.434-.193a1.23 1.23 0 0 0 .327-.484c.085-.23.075-.449-.028-.6a.39.39 0 0 0-.334-.173zm16.575 24.374c-.307 0-.637.291-.766.678-.075.224-.064.439.033.589a.38.38 0 0 0 .293.18l.04.002c.141 0 .295-.068.435-.193a1.23 1.23 0 0 0 .327-.484c.085-.23.075-.448-.029-.6a.39.39 0 0 0-.333-.172zM83.685 150.19c-.307 0-.637.292-.766.678-.075.224-.063.439.033.589a.38.38 0 0 0 .294.18l.04.002c.141 0 .295-.068.435-.193a1.25 1.25 0 0 0 .327-.483c.085-.23.075-.449-.028-.6-.076-.111-.194-.173-.334-.173zm169.581-76.048c-.307 0-.637.291-.766.678-.076.224-.064.439.032.589.067.105.171.169.294.18l.04.002c.14 0 .295-.068.435-.193s.256-.296.326-.484c.086-.23.076-.448-.027-.6a.39.39 0 0 0-.334-.173z" class="G"/></g></g><defs><filter id="C" x="-113.934" y="465.844" width="599.713" height="496.047" filterUnits="userSpaceOnUse" class="M"><feFlood flood-opacity="0"/><feBlend in="SourceGraphic"/><feGaussianBlur stdDeviation="37"/></filter><filter id="D" x="-118.262" y="-157.605" width="682.935" height="449.099" filterUnits="userSpaceOnUse" class="M"><feFlood flood-opacity="0"/><feBlend in="SourceGraphic"/><feGaussianBlur stdDeviation="37"/></filter><linearGradient id="E" x1="426" y1="567.5" x2="16.553" y2="831.582" gradientUnits="userSpaceOnUse"><stop offset=".234" stop-color="#bf97ff" stop-opacity=".59"/><stop offset=".522" stop-color="#7bc7ff" stop-opacity=".61"/><stop offset=".705" stop-color="#fbcc5c" stop-opacity=".36"/><stop offset=".974" stop-color="#42d689" stop-opacity=".37"/></linearGradient><linearGradient id="F" x1="298.275" y1="2.967" x2="-6.966" y2="174.561" gradientUnits="userSpaceOnUse"><stop stop-color="#4088bc" stop-opacity=".61"/><stop offset=".484" stop-color="#eaa500" stop-opacity=".35"/><stop offset="1" stop-color="#ab76ff" stop-opacity=".62"/></linearGradient><path id="G" d="M93.399 692.906c-.746 0-1.546.707-1.861 1.644-.182.545-.153 1.067.08 1.431a.93.93 0 0 0 .713.437.9.9 0 0 0 .096.005c.341 0 .716-.167 1.056-.469s.623-.719.793-1.174c.207-.558.183-1.089-.067-1.455-.183-.271-.471-.419-.81-.419z"/><path id="H" d="M186.833 673.631h0c.179-.57.496-1.063.862-1.408.372-.35.757-.515 1.074-.515a.71.71 0 0 1 .629.348v.001c.215.335.274.894.037 1.574a3.64 3.64 0 0 1-.899 1.424l-.001.001c-.384.362-.753.51-1.026.51a.91.91 0 0 1-.078-.003c-.219-.023-.409-.14-.543-.364l-.001-.001c-.205-.341-.263-.903-.054-1.567z"/><path id="I" d="M316.182 651.056v.001c-.119.351-.073.608.012.74v.001c.051.079.12.12.208.128h.001c.006.001.015.002.031.002.121 0 .314-.064.531-.257l-.783-.615zm0 0c.101-.301.279-.562.485-.743s.412-.26.562-.26c.117 0 .194.046.247.124h.001c.084.124.133.374-.001.733v.001m-1.294.145l1.294-.145m0 0c-.111.299-.296.569-.511.76l.511-.76z"/></defs></svg>