<svg xmlns="http://www.w3.org/2000/svg" xmlns:xlink="http://www.w3.org/1999/xlink" width="1379" height="1053" fill="none" xmlns:v="https://vecta.io/nano"><style><![CDATA[.B{fill:#0cda6e}.C{fill-opacity:.5}.D{fill-opacity:.4}.E{fill:#43b0ff}.F{fill:#7e2dff}.G{fill:#fbcc5c}.H{fill:#ff6553}.I{fill:#42d689}.J{fill:#f0544a}.K{fill:#bf97ff}.L{fill:#fb7c6d}.M{fill:#35d07f}]]></style><mask id="A" mask-type="alpha" maskUnits="userSpaceOnUse" x="0" y="0" width="1379" height="1053"><path fill="#c4c4c4" d="M0 0h1379v1053H0z"/></mask><g mask="url(#A)"><g filter="url(#B)"><path d="M180 841c55.003-6.322 130.598-156.909 203.5-244.866m166-52.634c-8.201 90.992-93.467 391.358-241 333-57.138-22.601-32.5-70-32.5-70S91.5 1018.5 60 983c-16.712-18.834 72.5-128.5 72.5-128.5s41.614-171.704 66.5-171C252.009 685 373.5 821 373.5 821s37.865-159.5 153.432-161 48.723-49.633 74.048-74.839C642.489 543.844 589.5 491 723.123 468S819.6 384.404 845.5 372.5c99-45.5 76 5.5 76 5.5l189.5-16-29-54.5 67.5-204s3 4.5-67.5 83.5-88.5 88.5-142.5 146 239-82.161 130 85-243 41.684-243 41.684 103.401 74.242 28 113.816c-52.418 27.511 140.5-216 140.5-216L716.5 585.161c-200 115.839-82-117.322-209-58.661-20.711 9.566 8.937 54.111-11 71.799m0 0c-25.025 22.202-89.396-30.644-113-2.165m113 2.165s-64.966-20.846-113-2.165" stroke="url(#C)" stroke-width="21"/></g><g style="mix-blend-mode:screen"><path d="M1025.07 191.372c-.58 0-1.19.543-1.43 1.263-.14.418-.12.819.06 1.099.12.195.32.314.55.336.02.002.04.003.07.003.26 0 .55-.128.81-.36s.48-.552.61-.902c.16-.428.14-.836-.05-1.118-.14-.207-.36-.321-.62-.321z" class="G"/><path d="M1052.82 171.021c-.58 0-1.19.543-1.43 1.263-.14.418-.12.819.06 1.099a.71.71 0 0 0 .55.336c.02.002.04.003.07.003.26 0 .55-.128.81-.36s.48-.552.61-.902c.16-.428.14-.836-.05-1.118-.14-.207-.36-.321-.62-.321z" class="B"/><path d="M966.52 323c-.573 0-1.187.543-1.429 1.263-.14.418-.118.819.061 1.099.124.195.319.315.548.336l.074.003c.262 0 .55-.128.811-.36s.479-.552.609-.902c.159-.428.141-.836-.051-1.118a.73.73 0 0 0-.623-.321z" class="B D"/><path d="M1049.86 183.811c-.34 0-.71.326-.86.758-.08.251-.07.491.04.659.08.117.19.189.33.202.01.001.03.002.04.002.16 0 .33-.077.49-.217a1.37 1.37 0 0 0 .37-.541c.09-.257.08-.501-.03-.67a.45.45 0 0 0-.38-.193z" class="G"/><path d="M1029.86 194.073c-.34 0-.71.326-.86.758-.08.251-.07.492.04.659.08.118.19.189.33.202.01.002.03.002.04.002.16 0 .33-.077.49-.216a1.37 1.37 0 0 0 .37-.541c.09-.257.08-.502-.03-.671a.45.45 0 0 0-.38-.193z" class="B D"/><path d="M992.126 272c-.424 0-.88.402-1.059.935-.103.31-.086.606.046.813a.53.53 0 0 0 .406.249c.016.002.033.003.054.003.194 0 .407-.095.601-.266s.354-.409.451-.669c.117-.317.103-.618-.039-.827a.54.54 0 0 0-.46-.238z" class="M"/><use xlink:href="#D" class="M"/><use xlink:href="#D" x="164" y="32" class="M"/><path d="M1019.67 229.473c-.58 0-1.19.543-1.43 1.263-.14.419-.12.819.06 1.099a.71.71 0 0 0 .55.336c.02.002.04.003.07.003.26 0 .55-.128.81-.36s.48-.552.61-.902c.16-.428.14-.835-.05-1.118-.14-.207-.36-.321-.62-.321z" class="E"/><path d="M1036.08 207.852c-.35 0-.72.326-.86.758-.09.251-.07.491.04.659a.42.42 0 0 0 .32.202l.05.002c.16 0 .33-.077.49-.216.15-.139.28-.332.36-.542.1-.257.08-.501-.03-.67-.08-.125-.22-.193-.37-.193z" class="F"/><path d="M1055.6 182.186c-.57 0-1.18.543-1.43 1.263-.14.419-.11.819.07 1.099.12.195.31.315.54.336l.08.003c.26 0 .55-.128.81-.36s.48-.552.61-.902c.16-.428.14-.835-.05-1.118-.14-.207-.37-.321-.63-.321zM1070.31 154c-.34 0-.71.326-.86.758-.08.251-.07.491.04.659.07.117.19.189.33.202.01.001.03.002.04.002.16 0 .33-.077.49-.216a1.37 1.37 0 0 0 .37-.541c.09-.257.08-.502-.04-.671-.08-.124-.21-.193-.37-.193z" class="C E"/><path d="M1161.29 119.56c-.58 0-1.19.544-1.43 1.264-.14.418-.12.819.06 1.098.12.196.32.315.55.337.02.002.04.003.07.003.26 0 .55-.128.81-.36s.48-.552.61-.902c.16-.428.14-.836-.05-1.118-.14-.207-.36-.322-.62-.322z" class="G"/><path d="M1168.52 138.418c-.57 0-1.19.543-1.43 1.263-.14.418-.12.819.06 1.099.13.195.32.315.55.336a.82.82 0 0 0 .07.003c.27 0 .55-.128.82-.36.26-.232.47-.552.6-.902.16-.428.14-.836-.05-1.118-.14-.207-.36-.321-.62-.321zM1051.52 306c-.57 0-1.19.543-1.43 1.263-.14.418-.12.819.06 1.099.13.195.32.315.55.336a.82.82 0 0 0 .07.003c.27 0 .55-.128.82-.36.26-.232.47-.552.6-.902.16-.428.15-.836-.05-1.118-.14-.207-.36-.321-.62-.321z" class="B D"/><path d="M1166.08 102c-.34 0-.71.325-.86.758-.08.251-.07.491.04.659.08.117.19.189.33.202.01.001.03.002.04.002.16 0 .33-.077.49-.217a1.37 1.37 0 0 0 .37-.541c.09-.257.08-.501-.03-.67a.45.45 0 0 0-.38-.193z" class="B"/><path d="M1155.91 156.418c-.34 0-.71.326-.86.758-.08.251-.07.491.04.659.08.118.19.189.33.202.01.002.03.002.04.002.16 0 .33-.077.49-.216a1.37 1.37 0 0 0 .37-.541c.09-.257.08-.502-.03-.671a.45.45 0 0 0-.38-.193z" class="B D"/><path d="M1103.54 376.715c-.34 0-.71.326-.85.758-.09.251-.07.491.03.659.08.117.2.189.33.202l.05.002c.15 0 .33-.077.48-.216.16-.139.29-.332.37-.542.09-.256.08-.501-.03-.67a.45.45 0 0 0-.38-.193z" class="G"/><path d="M1140.21 132.262c-.57 0-1.19.543-1.43 1.264-.14.418-.12.818.06 1.098.13.196.32.315.55.336a.55.55 0 0 0 .07.004c.27 0 .55-.128.82-.36.26-.232.47-.553.61-.903.15-.428.14-.835-.06-1.117-.14-.208-.36-.322-.62-.322zm-127.69 234.211c-.57 0-1.19.543-1.43 1.263-.14.419-.12.819.06 1.099.13.195.32.315.55.336a.82.82 0 0 0 .07.003c.27 0 .55-.128.82-.36.26-.232.47-.552.6-.902.16-.428.14-.835-.05-1.118-.14-.207-.36-.321-.62-.321zM502.425 685.057c-.573 0-1.188.543-1.429 1.263-.14.419-.118.819.061 1.099.124.195.319.315.548.336l.074.003c.262 0 .55-.128.811-.36s.478-.552.609-.902c.159-.428.14-.835-.052-1.118a.73.73 0 0 0-.622-.321zm556.505-323.205c-.34 0-.71.326-.86.758-.08.251-.07.491.04.659.07.117.19.189.33.202.01.001.02.002.04.002.16 0 .33-.077.49-.216s.29-.332.36-.542c.1-.257.09-.501-.03-.67a.42.42 0 0 0-.37-.193z" class="F"/><path d="M1118.71 382.929c-.46 0-.95.434-1.15 1.011-.11.334-.09.654.05.878a.58.58 0 0 0 .44.269c.02.002.04.003.06.003.21 0 .44-.102.65-.288s.38-.442.49-.722c.12-.342.11-.668-.04-.894-.12-.166-.29-.257-.5-.257zm2.94-13.779c-.35 0-.72.326-.86.758-.09.251-.07.491.04.659.07.118.19.189.32.202l.05.002c.16 0 .33-.077.49-.216a1.46 1.46 0 0 0 .36-.541c.1-.257.08-.502-.03-.671-.09-.124-.22-.193-.37-.193zm-359.003 178c-.344 0-.713.326-.858.758-.084.251-.071.491.037.659.074.118.191.189.328.202l.045.002c.157 0 .33-.077.487-.216a1.38 1.38 0 0 0 .365-.541c.095-.257.084-.502-.031-.671a.44.44 0 0 0-.373-.193z" class="C H"/><path d="M1171.82 110.375c-.57 0-1.18.543-1.43 1.263-.14.418-.11.819.07 1.099.12.195.31.315.54.336l.08.003c.26 0 .55-.128.81-.36s.48-.552.61-.902c.16-.428.14-.835-.05-1.118-.14-.207-.37-.321-.63-.321z" class="C E"/></g><g style="mix-blend-mode:multiply"><use xlink:href="#E" class="K"/><use xlink:href="#E" x="-48" y="-16" class="K"/><use xlink:href="#F" class="B D"/><use xlink:href="#G" class="B"/><path d="M205.95 755.014c-.848 0-1.757.805-2.116 1.871-.208.619-.174 1.212.091 1.626.183.29.471.467.81.498.034.004.068.005.111.005.387 0 .814-.19 1.2-.533s.709-.818.902-1.336c.235-.634.208-1.236-.076-1.654a1.08 1.08 0 0 0-.922-.477z" class="F"/><use xlink:href="#H" class="I"/><use xlink:href="#H" x="526" y="-240.152" class="I"/><use xlink:href="#I" class="C E"/><use xlink:href="#I" x="446.41" y="-289" class="C E"/></g><g style="mix-blend-mode:screen"><path d="M1119.6 240.96c-.43 0-.88.402-1.06.936-.11.309-.09.606.04.813a.55.55 0 0 0 .41.248l.05.003c.2 0 .41-.095.6-.267a1.68 1.68 0 0 0 .46-.667c.11-.317.1-.619-.04-.828-.11-.154-.27-.238-.46-.238zm-359.559 254c-.424 0-.879.402-1.058.936-.104.309-.087.606.045.813a.53.53 0 0 0 .406.248c.016.002.033.003.054.003.194 0 .407-.095.601-.267a1.68 1.68 0 0 0 .45-.667c.119-.317.104-.619-.038-.828-.104-.154-.267-.238-.46-.238zM897.596 401c-.424 0-.879.402-1.057.936-.104.309-.087.606.045.813a.53.53 0 0 0 .405.248c.017.002.034.003.055.003.194 0 .407-.095.6-.267a1.68 1.68 0 0 0 .451-.667c.118-.317.104-.619-.038-.828-.104-.154-.268-.238-.461-.238z" class="B D"/><use xlink:href="#J" class="I"/></g><g style="mix-blend-mode:multiply"><path d="M1127.75 229.341c-.65 0-1.35.619-1.63 1.44-.16.477-.13.933.07 1.252.14.223.36.359.63.383.02.003.05.004.08.004.3 0 .63-.146.92-.41.3-.265.55-.63.7-1.029.18-.488.16-.952-.06-1.274-.16-.236-.41-.366-.71-.366zM288.688 685c-.637 0-1.318.603-1.587 1.403-.155.464-.131.909.068 1.22.138.216.354.35.609.373l.082.004c.29 0 .61-.142.901-.4a2.54 2.54 0 0 0 .675-1.002c.177-.475.156-.928-.057-1.241a.81.81 0 0 0-.691-.357zm526-240.152c-.637 0-1.318.603-1.587 1.403-.155.464-.131.909.068 1.22.138.216.354.35.609.373l.082.004c.29 0 .61-.142.901-.4a2.55 2.55 0 0 0 .675-1.002c.177-.475.156-.928-.057-1.241a.81.81 0 0 0-.691-.357z" class="B D"/><use xlink:href="#K" class="B D"/><path d="M1107.13 245.971c-.43 0-.88.402-1.06.935-.11.31-.09.606.04.814.09.144.24.233.41.248.01.002.03.003.05.003.2 0 .41-.095.6-.267.2-.171.36-.408.45-.667.12-.317.11-.619-.03-.828-.11-.154-.27-.238-.46-.238z" class="E"/><use xlink:href="#L" class="C L"/><use xlink:href="#J" x="-19.71" y="19.384" class="F"/><use xlink:href="#M" class="C E"/><path d="M1124.43 276.152c-.39 0-.81.372-.98.864-.09.286-.08.56.05.752a.47.47 0 0 0 .37.23l.05.002c.18 0 .38-.088.56-.246s.32-.378.41-.617c.11-.293.1-.572-.03-.765-.1-.142-.25-.22-.43-.22z" class="I"/><use xlink:href="#I" x="111.047" y="-218" class="C E"/></g><g style="mix-blend-mode:screen" class="B"><path d="M1130.84 412.96c-.66 0-1.36.619-1.63 1.441-.16.476-.14.933.07 1.252.14.222.36.359.62.383a.78.78 0 0 0 .09.004c.29 0 .62-.146.92-.411s.55-.629.69-1.028c.19-.488.16-.953-.05-1.274-.16-.237-.42-.367-.71-.367z"/><use xlink:href="#N"/><path d="M1090.49 450.25c-.66 0-1.36.619-1.63 1.44-.16.477-.14.934.07 1.253.14.222.36.359.62.383l.08.004c.3 0 .63-.146.93-.411s.54-.629.69-1.028c.18-.488.16-.953-.06-1.274a.82.82 0 0 0-.7-.367z" class="D"/></g><g style="mix-blend-mode:multiply"><use xlink:href="#O" class="B D"/><use xlink:href="#E" x="91" y="31" class="K"/><use xlink:href="#E" x="112" y="65" class="E"/><path d="M1011.55 301.475c-.39 0-.81.371-.98.864-.09.286-.08.56.04.751a.5.5 0 0 0 .38.23c.01.002.03.002.05.002.18 0 .37-.087.55-.246a1.57 1.57 0 0 0 .42-.617c.11-.293.1-.571-.04-.764-.09-.142-.24-.22-.42-.22z" class="H"/><use xlink:href="#L" x="619.567" y="-177.475" class="H"/><path d="M1136.06 404.88c-.65 0-1.35.62-1.62 1.441-.16.476-.14.933.07 1.252.14.223.36.359.62.383.03.003.05.004.08.004.3 0 .63-.146.93-.41s.54-.63.69-1.029c.18-.488.16-.952-.06-1.274-.16-.236-.41-.367-.71-.367z" class="F"/><path d="M1026.67 286c-.39 0-.81.372-.98.864-.09.286-.08.56.05.752a.47.47 0 0 0 .37.23l.05.002c.18 0 .38-.088.56-.246s.32-.378.41-.618c.11-.292.1-.571-.03-.764-.1-.142-.25-.22-.43-.22z" class="C E"/><use xlink:href="#M" x="74.192" y="218.399" class="E"/><path d="M1115.06 450.152c-.39 0-.81.372-.97.864-.1.286-.08.56.04.752.08.133.22.215.37.23l.05.002c.18 0 .38-.088.56-.246a1.46 1.46 0 0 0 .41-.617c.11-.293.1-.572-.03-.765-.1-.142-.25-.22-.43-.22z" class="I"/><use xlink:href="#P" class="B D"/><path d="M852.801 404c-.654 0-1.354.619-1.63 1.44-.159.477-.134.934.07 1.253.141.222.363.359.625.383l.084.004c.298 0 .627-.146.924-.411s.546-.629.695-1.028c.181-.488.16-.953-.059-1.274a.83.83 0 0 0-.709-.367z" class="B D"/><use xlink:href="#Q" class="I"/><use xlink:href="#Q" x="-17" y="116" class="B D"/><use xlink:href="#P" x="626" y="-252" class="B D"/><use xlink:href="#R" class="B D"/><use xlink:href="#P" x="-16" y="-33" class="B D"/></g><g style="mix-blend-mode:screen" class="B"><use xlink:href="#S"/><use xlink:href="#T"/></g><g style="mix-blend-mode:multiply"><use xlink:href="#P" x="-35" y="20" class="F"/><use xlink:href="#O" x="340.871" y="-413.25" class="F"/><path d="M1096.92 376.475c-.4 0-.82.371-.98.864-.1.286-.08.56.04.751a.5.5 0 0 0 .38.23.34.34 0 0 0 .05.002c.18 0 .37-.087.55-.246a1.57 1.57 0 0 0 .42-.617c.11-.293.09-.571-.04-.764a.49.49 0 0 0-.42-.22z" class="C L"/><use xlink:href="#Q" x="-25" y="120" class="F"/><use xlink:href="#R" x="-8" y="4" class="F"/><use xlink:href="#U" class="C E"/><use xlink:href="#V" class="C E"/><use xlink:href="#S" x="72" y="-83" class="C E"/><path d="M160.431 835.152c-.392 0-.812.372-.978.864-.095.286-.08.56.042.752a.49.49 0 0 0 .375.23l.05.002c.18 0 .377-.088.555-.246a1.58 1.58 0 0 0 .417-.617c.109-.293.096-.572-.035-.765a.5.5 0 0 0-.426-.22zm456.41-269c-.392 0-.813.372-.978.864-.096.286-.08.56.042.752a.49.49 0 0 0 .375.23l.05.002c.179 0 .376-.088.555-.246a1.58 1.58 0 0 0 .417-.617c.108-.293.095-.572-.036-.765-.096-.142-.247-.22-.425-.22z" class="I"/><use xlink:href="#H" x="559.067" y="-317" class="I"/><path d="M175.04 838c-.392 0-.812.372-.978.864-.096.286-.08.56.042.752a.49.49 0 0 0 .375.23l.05.002c.179 0 .377-.088.555-.246a1.58 1.58 0 0 0 .417-.618c.109-.292.096-.571-.036-.764-.096-.142-.247-.22-.425-.22zm446.41-289c-.392 0-.813.372-.978.864-.096.286-.081.56.042.752a.49.49 0 0 0 .375.23l.05.002c.179 0 .376-.088.555-.246s.327-.378.416-.618c.109-.292.096-.571-.035-.764-.096-.142-.247-.22-.425-.22z" class="C E"/><use xlink:href="#V" x="134.578" y="-266" class="F"/><use xlink:href="#W" class="F"/><use xlink:href="#W" x="526" y="-240.152" class="F"/><use xlink:href="#W" x="120" y="-113.971" class="F"/><use xlink:href="#W" x="584.955" y="-373.971" class="F"/><use xlink:href="#W" x="201.559" y="-198.971" class="F"/><use xlink:href="#W" x="646" y="-354.123" class="F"/><use xlink:href="#W" x="112" y="-41.971" class="F"/><use xlink:href="#W" x="76" y="-134.971" class="F"/><use xlink:href="#H" x="-90" y="191" class="I"/><use xlink:href="#H" x="3.609" y="242.848" class="I"/><use xlink:href="#H" x="62.609" y="29.848" class="I"/><use xlink:href="#H" x="305.609" y="-122.152" class="I"/><use xlink:href="#H" x="250.609" y="-128.152" class="I"/><use xlink:href="#H" x="441.609" y="-223.152" class="I"/><use xlink:href="#H" x="547.609" y="-215.152" class="I"/><use xlink:href="#X" class="B D"/><use xlink:href="#X" x="-383.396" y="175" class="B D"/><use xlink:href="#Y" class="C L"/><use xlink:href="#Y" x="-359" y="178" class="C L"/><use xlink:href="#Z" class="C H"/><path d="M959.923 507c-.725 0-1.502.687-1.808 1.598-.177.529-.149 1.035.078 1.389a.9.9 0 0 0 .693.425.86.86 0 0 0 .093.004c.331 0 .695-.161 1.026-.455a2.9 2.9 0 0 0 .77-1.141c.201-.541.177-1.056-.065-1.413-.179-.262-.458-.407-.787-.407zm-171.532-30c-.724 0-1.501.687-1.807 1.598-.177.529-.149 1.035.077 1.389.157.247.403.398.693.425a.88.88 0 0 0 .094.004c.331 0 .695-.161 1.025-.455s.605-.698.771-1.141c.201-.541.177-1.056-.066-1.413a.92.92 0 0 0-.787-.407z" class="C H"/><path d="M1097.92 318.304c-.72 0-1.5.687-1.8 1.598-.18.529-.15 1.035.07 1.389.16.247.41.398.7.425.02.003.05.005.09.005.33 0 .69-.162 1.02-.456.34-.293.61-.698.77-1.141.21-.541.18-1.056-.06-1.413a.93.93 0 0 0-.79-.407zm-543.553 337c-.725 0-1.502.687-1.808 1.598-.177.529-.148 1.035.078 1.389.157.247.403.398.693.425a.84.84 0 0 0 .093.005c.331 0 .696-.162 1.026-.456a2.91 2.91 0 0 0 .77-1.141c.201-.541.178-1.056-.065-1.413-.178-.262-.458-.407-.787-.407z" class="F"/><path d="M175.473 757.558c-.435 0-.901.412-1.085.959-.106.317-.089.621.047.833.094.148.242.239.416.255a.45.45 0 0 0 .056.003c.198 0 .417-.097.615-.273s.363-.419.462-.685c.121-.325.107-.634-.039-.848-.107-.157-.274-.244-.472-.244z" class="C E"/><use xlink:href="#a" class="C E"/><use xlink:href="#a" x="516" y="-210.152" class="C E"/></g><g style="mix-blend-mode:multiply" opacity=".8" class="H"><path d="M1138.33 300.815c-.73 0-1.5.687-1.81 1.598-.18.529-.15 1.035.08 1.389.16.248.4.399.69.426l.1.004c.33 0 .69-.162 1.02-.456a2.85 2.85 0 0 0 .77-1.141c.2-.541.18-1.056-.06-1.413a.93.93 0 0 0-.79-.407z"/></g><g style="mix-blend-mode:multiply"><path d="M865.329 530.815c-.725 0-1.502.687-1.808 1.598-.177.529-.148 1.035.078 1.389.157.248.403.399.693.426l.093.004c.331 0 .696-.162 1.026-.456s.605-.698.77-1.141c.201-.541.177-1.056-.065-1.413-.178-.262-.458-.407-.787-.407z" class="B D"/><use xlink:href="#b" class="C H"/><path d="M1046.85 405c-.72 0-1.5.687-1.81 1.598-.17.529-.14 1.035.08 1.389.16.247.41.398.7.425a.68.68 0 0 0 .09.004c.33 0 .69-.161 1.02-.455.34-.293.61-.698.77-1.141.21-.541.18-1.056-.06-1.413a.93.93 0 0 0-.79-.407z" class="C H"/><use xlink:href="#c" class="C H"/><use xlink:href="#d" class="F"/><path d="M1009.92 430c-.72 0-1.5.687-1.8 1.598-.18.529-.15 1.035.07 1.389a.92.92 0 0 0 .7.426.91.91 0 0 0 .09.004c.33 0 .69-.162 1.02-.456.34-.293.61-.698.77-1.141.21-.541.18-1.056-.06-1.413a.93.93 0 0 0-.79-.407zm27 43c-.72 0-1.5.687-1.8 1.598-.18.529-.15 1.035.07 1.389a.92.92 0 0 0 .7.426.91.91 0 0 0 .09.004c.33 0 .69-.162 1.03-.456.33-.293.6-.698.77-1.141.2-.541.17-1.056-.07-1.413a.93.93 0 0 0-.79-.407z" class="B D"/><use xlink:href="#e" class="C H"/><path d="M273.212 916.375c-.637 0-1.319.604-1.588 1.404-.155.464-.131.909.069 1.219.137.217.353.35.608.374l.082.003c.29 0 .611-.142.901-.399a2.56 2.56 0 0 0 .676-1.002c.176-.476.155-.928-.057-1.241a.81.81 0 0 0-.691-.358z" class="C H"/><use xlink:href="#f" class="C H"/><path d="M604.754 668c-.637 0-1.319.603-1.587 1.403-.156.464-.131.909.068 1.22.138.217.354.35.609.373.024.003.05.004.081.004.291 0 .611-.142.901-.4s.531-.613.676-1.002c.177-.475.156-.928-.057-1.241a.81.81 0 0 0-.691-.357z" class="C H"/><use xlink:href="#f" x="23" y="-64" class="C H"/><use xlink:href="#e" x="-49.63" y="41.616" class="F"/><path d="M386.066 873.8c-.435 0-.901.412-1.085.958-.106.318-.089.621.047.834a.54.54 0 0 0 .416.255c.016.002.034.002.055.002.199 0 .418-.097.616-.273s.363-.419.462-.684c.121-.325.107-.634-.039-.848a.55.55 0 0 0-.472-.244z" class="C E"/></g><g style="mix-blend-mode:screen" opacity=".7" class="E"><use xlink:href="#g"/></g><g style="mix-blend-mode:multiply"><use xlink:href="#h" class="C E"/><use xlink:href="#i" class="B D"/><use xlink:href="#i" x="253.066" y="-102" class="B D"/><path d="M177.377 888c-1.273 0-2.637 1.206-3.175 2.806-.311.929-.262 1.818.137 2.44a1.58 1.58 0 0 0 1.215.746 1.37 1.37 0 0 0 .165.008c.582 0 1.221-.284 1.802-.8s1.061-1.226 1.353-2.004c.353-.95.31-1.855-.116-2.482-.313-.46-.803-.714-1.381-.714z" class="B"/><use xlink:href="#b" x="22.63" y="-193.312" class="C H"/><path d="M1048.13 266c-.43 0-.88.402-1.06.936-.11.309-.09.606.04.813.09.144.24.233.41.249l.05.002c.2 0 .41-.094.6-.266.2-.172.36-.409.45-.668.12-.317.11-.619-.03-.828a.55.55 0 0 0-.46-.238z" class="F"/><use xlink:href="#b" x="45" y="-291.696" class="F"/><path d="M1057.47 202.424c-.43 0-.9.412-1.08.959-.11.317-.09.621.05.833a.53.53 0 0 0 .41.255c.02.002.04.003.06.003.2 0 .41-.097.61-.273a1.63 1.63 0 0 0 .46-.685c.13-.325.11-.634-.03-.848a.57.57 0 0 0-.48-.244zm-57.991 116.16c-.725 0-1.502.687-1.808 1.597-.177.529-.149 1.036.078 1.389.157.248.403.399.693.426a.86.86 0 0 0 .093.004c.331 0 .695-.162 1.026-.455s.609-.699.769-1.141c.2-.542.18-1.057-.06-1.414a.93.93 0 0 0-.791-.406z" class="C E"/><use xlink:href="#j" class="C E"/><use xlink:href="#j" x="-222" y="82" class="C E"/><use xlink:href="#h" x="-28.16" y="-134.231" class="C E"/></g><g style="mix-blend-mode:screen" class="B"><path d="M1033.33 214.815c-.73 0-1.5.687-1.81 1.598-.18.529-.15 1.035.08 1.389.16.248.4.399.69.426l.09.004c.34 0 .7-.162 1.03-.456a2.85 2.85 0 0 0 .77-1.141c.2-.541.18-1.056-.06-1.413a.93.93 0 0 0-.79-.407z"/></g><g style="mix-blend-mode:multiply"><path d="M1056.97 239.229c-.73 0-1.5.687-1.81 1.598-.18.529-.15 1.035.08 1.389.15.248.4.399.69.426l.09.004c.34 0 .7-.162 1.03-.456s.6-.698.77-1.141c.2-.541.18-1.056-.07-1.413-.17-.262-.45-.407-.78-.407z" class="B D"/><use xlink:href="#k" class="C H"/><use xlink:href="#k" x="-336.647" y="238.896" class="C H"/><use xlink:href="#c" x="385.095" y="-402.584" class="C H"/><use xlink:href="#c" x="66.165" y="-87.584" class="C H"/><use xlink:href="#c" x="128.165" y="-85.584" class="C H"/><use xlink:href="#c" x="114.165" y="-146.584" class="C H"/><use xlink:href="#c" x="45.165" y="-228.584" class="C H"/><use xlink:href="#c" x="-107.835" y="-104.584" class="C H"/><use xlink:href="#c" x="213.165" y="-300.584" class="C H"/><use xlink:href="#c" x="330.165" y="-263.584" class="C H"/><use xlink:href="#c" x="365.165" y="-164.584" class="C H"/><use xlink:href="#c" x="425.165" y="-242.584" class="C H"/><use xlink:href="#c" x="284.029" y="-214.059" class="C H"/><use xlink:href="#l" class="C E"/><use xlink:href="#l" x="-336.647" y="238.896" class="C E"/><use xlink:href="#g" x="-84" y="206.227" class="C E"/><use xlink:href="#j" x="-120" y="89.416" class="C E"/><use xlink:href="#j" x="201.556" y="-87.544" class="C E"/><use xlink:href="#a" x="-5.065" y="42.085" class="C E"/><use xlink:href="#a" x="248" y="-59.915" class="C E"/><use xlink:href="#m" class="B D"/><use xlink:href="#n" class="B D"/><use xlink:href="#n" x="-318.93" y="315" class="B D"/><use xlink:href="#o" class="C H"/><use xlink:href="#o" x="330" y="-230" class="C H"/><use xlink:href="#o" x="383" y="-200" class="C H"/><use xlink:href="#c" x="-258.835" y="33.416" class="C H"/><use xlink:href="#c" x="-103.835" y="-84.586" class="C H"/><use xlink:href="#c" x="124.165" y="-166.584" class="C H"/><use xlink:href="#c" x="288.165" y="-134.584" class="C H"/><use xlink:href="#p" class="F"/><use xlink:href="#p" x="330" y="-230" class="F"/><use xlink:href="#l" x="-615" y="401" class="C E"/><use xlink:href="#q" class="C E"/><use xlink:href="#q" x="446.409" y="-289" class="C E"/><use xlink:href="#q" x="380.444" y="-246.399" class="C E"/><use xlink:href="#r" class="F"/><use xlink:href="#r" x="75" y="-106" class="F"/><use xlink:href="#m" x="-625" y="431" class="B D"/><use xlink:href="#m" x="-292" y="336" class="B D"/><use xlink:href="#m" x="-479" y="248" class="B D"/><use xlink:href="#s" class="B D"/><use xlink:href="#s" x="253.065" y="-102" class="B D"/><use xlink:href="#s" x="333" y="-95" class="B D"/><use xlink:href="#Z" x="-985" y="721" class="C H"/><use xlink:href="#t" class="C H"/></g><g style="mix-blend-mode:screen" class="L"><use xlink:href="#t" x="710.067" y="-521"/></g><g style="mix-blend-mode:multiply"><use xlink:href="#b" x="72" y="-154.696" class="F"/><use xlink:href="#d" x="-186" y="57" class="F"/><use xlink:href="#u" class="C E"/><use xlink:href="#u" x="68.681" y="-160" class="C E"/><use xlink:href="#u" x="750.067" y="-481" class="C E"/><use xlink:href="#g" x="-69" y="246.811" class="C E"/><use xlink:href="#g" x="-966.553" y="658.227" class="C E"/><path d="M1138.86 255.085c-.73 0-1.5.687-1.81 1.598-.18.528-.15 1.035.08 1.389a.89.89 0 0 0 .69.425c.03.003.06.004.09.004.34 0 .7-.162 1.03-.455s.6-.699.77-1.141c.2-.542.18-1.057-.07-1.413-.17-.263-.45-.407-.78-.407z" class="C E"/><path d="M105.927 979c-.73 0-1.5.687-1.81 1.598-.18.529-.151 1.035.079 1.389.16.248.4.399.69.426l.101.004c.33 0 .689-.162 1.019-.456s.611-.698.771-1.141c.2-.541.18-1.056-.06-1.413a.93.93 0 0 0-.79-.407z" class="B D"/><path d="M176.97 926.229c-.73 0-1.5.687-1.81 1.598-.18.529-.15 1.035.08 1.389.15.248.4.399.69.426l.09.004c.33 0 .7-.162 1.03-.456s.6-.698.77-1.141c.2-.541.18-1.056-.07-1.413-.17-.262-.45-.407-.78-.407z" class="B"/><use xlink:href="#v" class="E"/><use xlink:href="#w" class="B D"/><use xlink:href="#w" x="290.619" y="-143" class="B D"/><path d="M257.844 759c-.318 0-.659.302-.793.702-.078.232-.066.454.034.61.068.108.177.174.304.186l.041.002c.146 0 .305-.071.45-.2s.266-.307.338-.501c.089-.238.078-.464-.028-.621-.078-.114-.201-.178-.346-.178z" class="B"/><use xlink:href="#w" x="-18.493" y="-49" class="B D"/><path d="M222.125 735c-.424 0-.878.402-1.057.936-.104.309-.088.605.045.813a.53.53 0 0 0 .406.248c.016.002.033.003.054.003.194 0 .407-.095.601-.266s.354-.409.45-.669c.119-.317.104-.618-.038-.827a.54.54 0 0 0-.461-.238z" class="B D"/><use xlink:href="#x" class="C E"/><use xlink:href="#v" x="-87" y="115.667" class="C E"/><use xlink:href="#v" x="-192" y="266.667" class="C E"/><use xlink:href="#y" class="B D"/><use xlink:href="#y" x="290.62" y="-143" class="B D"/><use xlink:href="#y" x="-105" y="151" class="B D"/><use xlink:href="#z" class="B"/><use xlink:href="#z" x="464.955" y="-260" class="B"/><use xlink:href="#x" x="-33.065" y="7.134" class="C E"/><path d="M1126.27 112.859c-.86 0-1.77.81-2.13 1.883-.21.624-.18 1.22.09 1.637a1.05 1.05 0 0 0 .81.502l.11.005c.39 0 .82-.191 1.21-.537s.72-.823.91-1.345c.24-.638.21-1.245-.08-1.666-.21-.309-.54-.479-.92-.479z" class="C H"/><use xlink:href="#AA" class="C E"/><use xlink:href="#AA" x="-318.93" y="315" class="C E"/><use xlink:href="#AA" x="-376" y="339" class="C E"/><use xlink:href="#AA" x="-502" y="195" class="C E"/><use xlink:href="#AA" x="-336.647" y="238.896" class="C E"/></g><g style="mix-blend-mode:screen" opacity=".2" class="B"><path d="M1128.69 147c-.64 0-1.32.603-1.59 1.403-.15.464-.13.909.07 1.22a.79.79 0 0 0 .61.373c.02.003.05.004.08.004.29 0 .61-.142.9-.4s.53-.613.68-1.002c.17-.475.15-.928-.06-1.241a.81.81 0 0 0-.69-.357z"/></g><g style="mix-blend-mode:multiply"><use xlink:href="#AB" class="B D"/><use xlink:href="#AB" x="-222" y="160.04" class="B D"/><use xlink:href="#AC" class="C E"/><use xlink:href="#AC" x="-222" y="160.04" class="C E"/><use xlink:href="#AC" x="-605.396" y="335.04" class="C E"/><use xlink:href="#AD" class="C H"/><path d="M1046.39 400.667c-.51 0-1.05.478-1.26 1.113-.13.369-.11.722.05.968a.63.63 0 0 0 .48.297c.02.002.04.003.07.003.23 0 .48-.113.71-.318a1.88 1.88 0 0 0 .54-.795c.14-.377.12-.736-.04-.985a.65.65 0 0 0-.55-.283z" class="C E"/><use xlink:href="#v" x="414.491" y="-21.333" class="C E"/><use xlink:href="#AD" x="-871" y="473" class="C H"/><use xlink:href="#AD" x="-110.933" y="2" class="C H"/><use xlink:href="#AE" class="E"/><use xlink:href="#AE" x="330" y="-230" class="E"/><use xlink:href="#AE" x="464.955" y="-260" class="E"/><use xlink:href="#AE" x="628.955" y="-228" class="E"/><use xlink:href="#AE" x="722.068" y="-471" class="C E"/><use xlink:href="#AF" class="B D"/><use xlink:href="#AF" x="780.067" y="-481" class="B D"/><use xlink:href="#AF" x="572.568" y="-386" class="B D"/><use xlink:href="#AF" x="189.172" y="-211" class="B D"/><use xlink:href="#AG" class="B D"/><use xlink:href="#AG" x="547.095" y="-356.25" class="B D"/><use xlink:href="#AH" class="C E"/><use xlink:href="#AH" x="722.067" y="-471" class="C E"/><use xlink:href="#x" x="-44.065" y="66" class="C E"/><path d="M309.171 836.344c-.136 0-.282.129-.34.301-.033.099-.028.194.015.261.029.046.075.074.13.079.08.001.148-.029.21-.084s.114-.131.145-.215c.038-.101.033-.198-.012-.265-.034-.049-.086-.077-.148-.077z" class="C E"/><path d="M906.64 362.655c-.54 0-1.11.507-1.33 1.178-.13.389-.11.762.05 1.023a.68.68 0 0 0 .51.313.82.82 0 0 0 .07.003c.25 0 .51-.119.76-.335a2.28 2.28 0 0 0 .57-.841c.14-.399.13-.778-.05-1.041a.68.68 0 0 0-.58-.3z" class="B D"/><use xlink:href="#AI" class="B D"/><use xlink:href="#AI" x="-30" y="76" class="B D"/><use xlink:href="#AI" x="-136" y="118" class="B D"/><use xlink:href="#AI" x="-226" y="67" class="B D"/><use xlink:href="#AI" x="-264" y="51" class="B D"/><use xlink:href="#AI" x="-338" y="115" class="B D"/><use xlink:href="#AI" x="-285" y="100" class="B D"/><use xlink:href="#AI" x="-447" y="290" class="B D"/><use xlink:href="#AI" x="-512" y="165" class="B D"/><use xlink:href="#AI" x="-457" y="146" class="B D"/><use xlink:href="#AI" x="-466" y="218" class="B D"/><use xlink:href="#AI" x="-536" y="192" class="B D"/><use xlink:href="#AI" x="-381" y="192" class="B D"/><use xlink:href="#AJ" class="C E"/><use xlink:href="#AJ" x="-359" y="178" class="C E"/><path d="M819.414 548.664c-.53 0-1.109.506-1.329 1.177-.13.389-.111.762.059 1.023.11.182.29.293.51.313.02.002.041.003.061.003.25 0 .52-.119.76-.335s.449-.515.569-.841c.15-.398.131-.778-.049-1.041-.13-.193-.341-.299-.581-.299z" class="C E"/><use xlink:href="#AK" class="B D"/><use xlink:href="#AK" x="446.41" y="-289" class="B D"/><path d="M266.002 842c-.31 0-.642.294-.773.683-.076.226-.064.443.033.594.067.106.172.17.296.182l.04.002c.142 0 .298-.07.439-.195a1.25 1.25 0 0 0 .329-.488c.086-.231.076-.452-.028-.604-.076-.112-.195-.174-.336-.174zm26.682-17.596c-.186 0-.385.177-.463.41-.046.136-.039.266.019.357.041.063.104.102.178.109.007.001.015.001.024.001.085 0 .179-.042.263-.117s.155-.179.198-.293c.051-.138.045-.271-.017-.362-.046-.067-.117-.105-.202-.105z" class="B D"/><path d="M255.631 853.539c-.31 0-.642.294-.773.683-.076.227-.063.443.033.594.067.106.173.171.297.182l.039.002c.142 0 .298-.069.439-.195a1.22 1.22 0 0 0 .329-.488c.086-.231.076-.451-.028-.604-.076-.112-.195-.174-.336-.174z" class="C J"/><use xlink:href="#AL" class="C E"/><use xlink:href="#AL" x="446.41" y="-289" class="C E"/><path d="M244.822 842.438c-.31 0-.642.294-.773.683-.076.226-.063.443.033.594a.39.39 0 0 0 .297.182l.039.002c.142 0 .298-.069.439-.195a1.22 1.22 0 0 0 .329-.488c.086-.231.076-.451-.028-.604-.076-.112-.195-.174-.336-.174z" class="C E"/><use xlink:href="#AM" class="B D"/></g><g style="mix-blend-mode:screen" class="B"><use xlink:href="#AM" x="710.067" y="-521"/></g><g style="mix-blend-mode:multiply" class="B D"><path d="M119.361 965c-.89 0-1.844.843-2.22 1.962-.217.649-.182 1.271.096 1.705.192.304.494.489.85.522.035.004.071.005.115.005.406 0 .854-.198 1.259-.559s.743-.857.946-1.401c.247-.664.218-1.297-.08-1.735a1.13 1.13 0 0 0-.966-.499z"/><use xlink:href="#AN"/><use xlink:href="#AN" x="226" y="-213"/></g><g style="mix-blend-mode:screen" class="J"><path d="M1096.89 274c-.71 0-1.48.675-1.78 1.569-.17.52-.14 1.017.08 1.365a.89.89 0 0 0 .68.418l.09.004c.33 0 .69-.159 1.01-.448.33-.288.59-.686.76-1.12.19-.532.17-1.038-.07-1.388-.17-.258-.45-.4-.77-.4z"/></g><g style="mix-blend-mode:multiply"><use xlink:href="#AO" class="C E"/><path d="M109.885 909.88c-.534 0-1.107.506-1.332 1.177-.131.39-.11.763.057 1.024.116.182.297.293.51.313.021.002.043.003.069.003.244 0 .513-.119.756-.336s.446-.514.567-.84c.149-.399.131-.778-.048-1.041a.68.68 0 0 0-.579-.3z" class="C E"/><use xlink:href="#AP" class="C E"/><use xlink:href="#AQ" class="C E"/><path d="M1100.47 158c-.89 0-1.85.843-2.22 1.962-.22.649-.19 1.271.09 1.705.19.304.5.489.85.522.04.004.07.006.12.006.4 0 .85-.199 1.26-.559a3.59 3.59 0 0 0 .94-1.401c.25-.665.22-1.298-.08-1.735-.22-.323-.56-.5-.96-.5z" class="B D"/></g><g style="mix-blend-mode:screen" class="G"><use xlink:href="#AO" x="-17" y="-85"/></g><g style="mix-blend-mode:screen" class="G"><use xlink:href="#AO" x="-28" y="12"/></g><use xlink:href="#AR" class="G"/><use xlink:href="#AR" x="92" y="-102" class="G"/><use xlink:href="#AR" x="247" y="-220.002" class="G"/><use xlink:href="#AR" x="149" y="-43" class="G"/><use xlink:href="#AR" x="375" y="-256" class="G"/><use xlink:href="#AR" x="-127.047" y="10" class="G"/><g style="mix-blend-mode:screen" class="G"><use xlink:href="#AS"/></g><g style="mix-blend-mode:screen" class="G"><use xlink:href="#AS" x="12" y="-13"/></g><g style="mix-blend-mode:screen" class="G"><use xlink:href="#AR" x="344.077" y="-157"/></g><path d="M195.416 743.134c-.533 0-1.106.506-1.331 1.177-.131.39-.11.763.057 1.023.115.183.297.294.51.314.021.002.043.003.069.003.244 0 .513-.119.756-.336s.445-.514.567-.84c.148-.399.131-.779-.048-1.041-.131-.194-.337-.3-.58-.3z" class="G"/><g style="mix-blend-mode:multiply"><use xlink:href="#AP" x="21" y="-66.582" class="B D"/><path d="M1099.99 395c-.89 0-1.84.843-2.22 1.962-.21.649-.18 1.271.1 1.705a1.1 1.1 0 0 0 .85.523c.03.003.07.005.11.005.41 0 .86-.199 1.26-.559.41-.361.75-.858.95-1.401.25-.665.22-1.298-.08-1.736-.22-.322-.56-.499-.97-.499z" class="B D"/><use xlink:href="#AQ" x="184.524" y="-49" class="B D"/><use xlink:href="#AQ" x="-279.923" y="217" class="B D"/><use xlink:href="#AQ" x="39" y="-69" class="B"/><use xlink:href="#AQ" x="-463" y="126" class="B"/><use xlink:href="#AQ" x="-409" y="342" class="B"/><use xlink:href="#AQ" x="-464" y="170" class="B"/><use xlink:href="#AQ" x="-11.843" y="-100" class="B"/><use xlink:href="#AQ" x="-518" y="306" class="B D"/><use xlink:href="#AQ" x="-185" y="211" class="B D"/><use xlink:href="#AQ" x="-363" y="187.998" class="B D"/><use xlink:href="#AQ" x="-724" y="459" class="I"/><use xlink:href="#AT" class="C J"/><use xlink:href="#AU" class="C J"/><use xlink:href="#AU" x="226" y="-213" class="C J"/><use xlink:href="#AR" x="125" y="-23" class="C E"/><use xlink:href="#AV" class="C E"/><path d="M103.313 901c-.89 0-1.843.843-2.219 1.962-.217.649-.182 1.271.096 1.705a1.11 1.11 0 0 0 .85.523l.115.005c.406 0 .854-.199 1.259-.559s.743-.858.946-1.401c.247-.665.218-1.298-.08-1.736-.219-.322-.563-.499-.967-.499z" class="C E"/><use xlink:href="#AW" class="E"/><use xlink:href="#AW" x="253.066" y="-102" class="E"/><use xlink:href="#AQ" x="-480" y="357" class="B D"/><use xlink:href="#AQ" x="67.095" y="0.75" class="B D"/><use xlink:href="#AQ" x="-422" y="364" class="B D"/><use xlink:href="#AQ" x="30.157" y="94" class="B D"/><use xlink:href="#AX" class="B D"/><use xlink:href="#AX" x="200.779" y="-146.655" class="B D"/><use xlink:href="#AX" x="316.779" y="-191.655" class="B D"/><use xlink:href="#AX" x="286.779" y="-212.655" class="B D"/><use xlink:href="#AX" x="223.779" y="-178.655" class="B D"/><use xlink:href="#AR" x="204" y="-54" class="B D"/><use xlink:href="#AT" x="77.006" y="14.195" class="C J"/><use xlink:href="#AU" x="127" y="40" class="C J"/><use xlink:href="#AR" x="129" y="-100" class="C E"/><use xlink:href="#AR" x="196" y="-72" class="C E"/><use xlink:href="#AR" x="462" y="-262.152" class="C E"/><use xlink:href="#AR" x="648.157" y="-342" class="C E"/><use xlink:href="#AY" class="C E"/><use xlink:href="#AY" x="383" y="-200" class="C E"/><use xlink:href="#AQ" x="-436" y="326" class="E"/><use xlink:href="#AQ" x="-106" y="96" class="E"/><use xlink:href="#AQ" x="-145.381" y="183" class="E"/><use xlink:href="#AQ" x="-341" y="251" class="E"/><use xlink:href="#AW" x="128" y="-77" class="B D"/><use xlink:href="#AW" x="49.895" y="-137" class="B D"/><use xlink:href="#AW" x="399.895" y="-367" class="B D"/><use xlink:href="#AW" x="432.895" y="-337" class="B D"/><use xlink:href="#AP" x="-69" y="56.416" class="B D"/><use xlink:href="#AZ" class="B D"/><use xlink:href="#AX" x="544.934" y="-321.059" class="B D"/><use xlink:href="#AP" x="-72" y="72.416" class="C J"/><use xlink:href="#AQ" x="-291" y="27.416" class="C J"/><use xlink:href="#AQ" x="109.934" y="20.941" class="C J"/><use xlink:href="#AU" x="9.843" y="-70.539" class="C J"/><use xlink:href="#AU" x="342.843" y="-165.539" class="C J"/><use xlink:href="#AU" x="462" y="-340.539" class="C J"/><path d="M995.622 340.6c-.533 0-1.106.506-1.331 1.177-.131.389-.11.762.057 1.023.115.182.297.293.51.313.021.002.043.003.069.003.244 0 .513-.119.756-.335a2.14 2.14 0 0 0 .567-.841c.148-.398.131-.778-.048-1.041-.131-.193-.337-.299-.58-.299z" class="C E"/><use xlink:href="#AV" x="-95" y="154.998" class="C E"/><path d="M1081.48 326.555c-.53 0-1.11.506-1.33 1.177-.13.389-.11.762.06 1.023.11.182.29.293.51.313.02.002.04.003.07.003.24 0 .51-.119.75-.335.25-.216.45-.515.57-.841.15-.398.13-.778-.05-1.041a.68.68 0 0 0-.58-.299z" class="C E"/><use xlink:href="#AQ" x="-510" y="282" class="C E"/><use xlink:href="#AQ" x="-45.045" y="22" class="C E"/><use xlink:href="#AQ" x="-127" y="82" class="C E"/></g><g style="mix-blend-mode:screen" opacity=".2" class="B"><path d="M1041.73 172c-.65 0-1.35.619-1.63 1.441-.16.476-.13.933.07 1.252.14.222.37.359.63.383.02.003.05.004.08.004.3 0 .63-.146.93-.411s.54-.629.69-1.028c.18-.488.16-.953-.06-1.274-.16-.237-.41-.367-.71-.367z"/></g><g style="mix-blend-mode:screen" opacity=".2" class="B"><path d="M1039.54 155.496c-.43 0-.88.403-1.06.936-.11.309-.09.606.04.813a.53.53 0 0 0 .41.248c.01.002.03.003.05.003.2 0 .41-.095.6-.266.2-.172.36-.409.45-.668.12-.317.11-.619-.03-.828a.55.55 0 0 0-.46-.238z"/></g><g style="mix-blend-mode:screen" class="B"><path d="M1078.95 146c-.65 0-1.35.619-1.63 1.44-.16.477-.13.933.07 1.252a.84.84 0 0 0 .63.383c.02.003.05.004.08.004.3 0 .63-.146.93-.41s.54-.63.69-1.029c.18-.488.16-.952-.06-1.274-.16-.236-.41-.366-.71-.366z"/></g><g style="mix-blend-mode:multiply" class="B"><use xlink:href="#Aa"/></g><g style="mix-blend-mode:multiply" class="B D"><use xlink:href="#Ab"/></g><g style="mix-blend-mode:multiply" class="F"><use xlink:href="#Aa" x="42.88" y="-34.25"/></g><g style="mix-blend-mode:multiply" class="F"><use xlink:href="#E" x="-161.556" y="91"/></g><g style="mix-blend-mode:multiply" class="C L"><path d="M1013.92 251.475c-.39 0-.82.371-.98.864-.1.286-.08.56.04.751a.5.5 0 0 0 .38.23c.01.002.03.003.05.003.18 0 .37-.088.55-.247a1.57 1.57 0 0 0 .42-.617c.11-.293.09-.571-.04-.764-.09-.142-.24-.22-.42-.22z"/></g><g style="mix-blend-mode:multiply" class="F"><use xlink:href="#J" x="-94.71" y="-27.616"/></g><g style="mix-blend-mode:multiply" class="C E"><path d="M1110.75 121c-.39 0-.81.372-.98.864-.09.286-.08.56.04.752a.5.5 0 0 0 .38.229c.01.002.03.003.05.003.18 0 .38-.088.55-.246.18-.159.33-.378.42-.618.11-.292.1-.571-.03-.764-.1-.142-.25-.22-.43-.22z"/></g><g style="mix-blend-mode:multiply" class="C E"><path d="M1032.23 242.399c-.39 0-.81.371-.98.864-.09.286-.08.56.05.751a.47.47 0 0 0 .37.23.42.42 0 0 0 .05.002c.18 0 .38-.087.56-.246s.32-.378.41-.617c.11-.293.1-.571-.03-.764-.1-.142-.25-.22-.43-.22z"/></g><g style="mix-blend-mode:multiply" class="I"><use xlink:href="#H" x="628" y="-381"/></g><g style="mix-blend-mode:multiply" class="C E"><use xlink:href="#Ac"/></g><g style="mix-blend-mode:screen"><path d="M1039.81 315c-1.06 0-2.19 1.006-2.64 2.339-.26.774-.22 1.514.11 2.032.23.362.59.583 1.02.623.04.004.08.006.13.006.49 0 1.02-.237 1.5-.666.49-.43.89-1.023 1.13-1.671.3-.792.26-1.546-.09-2.068-.27-.384-.67-.595-1.16-.595zM680.258 569c-1.061 0-2.198 1.006-2.645 2.339-.259.774-.218 1.514.113 2.032.23.362.59.583 1.014.623a1.38 1.38 0 0 0 .137.006c.484 0 1.018-.237 1.501-.666s.885-1.023 1.127-1.671c.295-.792.26-1.546-.095-2.068-.261-.384-.67-.595-1.152-.595z" class="B"/><use xlink:href="#Ad" class="I"/><use xlink:href="#Ad" x="464.955" y="-260" class="I"/><use xlink:href="#Ae" class="B D"/><use xlink:href="#Ae" x="-37" y="28" class="B D"/><use xlink:href="#Ae" x="-387.999" y="149" class="B D"/><use xlink:href="#Af" class="B D"/><use xlink:href="#Ag" class="B"/><use xlink:href="#Ae" x="-907.999" y="569" class="B D"/><path d="M1076.81 263c-1.06 0-2.19 1.005-2.64 2.338-.26.774-.22 1.515.11 2.034a1.33 1.33 0 0 0 1.02.622c.04.004.08.006.13.006.49 0 1.02-.237 1.5-.667.49-.429.89-1.021 1.13-1.67.3-.791.26-1.546-.09-2.068-.27-.383-.67-.595-1.16-.595z" class="I"/><use xlink:href="#Ag" x="16" y="49" class="B D"/></g><use xlink:href="#Ae" x="-948.999" y="495" class="B"/><use xlink:href="#Af" x="-29" y="201" class="B"/><use xlink:href="#Ae" x="-688.38" y="332" class="B"/><use xlink:href="#Ae" x="-565.999" y="295" class="B"/><g style="mix-blend-mode:screen"><use xlink:href="#Ae" x="-29" y="-24" class="F"/><use xlink:href="#Ae" x="-531" y="171" class="F"/><use xlink:href="#Ae" x="-572.556" y="313" class="F"/><use xlink:href="#Ae" x="-640.556" y="302" class="F"/><use xlink:href="#Ah" class="B D"/><use xlink:href="#Ah" x="-359" y="178" class="B D"/><use xlink:href="#Ai" class="B D"/><use xlink:href="#Ai" x="56" y="-61.408" class="C E"/></g><g style="mix-blend-mode:screen"><use xlink:href="#Ai" x="114" y="-82" class="C E"/><use xlink:href="#Ai" x="59" y="-54" class="G"/><use xlink:href="#Ai" x="-22" y="-5" class="G"/><path d="M1034.81 387c-1.06 0-2.19 1.006-2.64 2.339-.26.774-.22 1.515.11 2.033a1.33 1.33 0 0 0 1.02.622c.04.004.08.006.13.006.49 0 1.02-.237 1.5-.667a4.17 4.17 0 0 0 1.13-1.67c.3-.792.26-1.546-.09-2.068-.27-.384-.67-.595-1.16-.595z" class="E"/></g><g style="mix-blend-mode:multiply"><path d="M401.248 766c-.847 0-1.756.855-2.113 1.99-.207.658-.174 1.289.09 1.729.184.308.471.496.81.53l.11.005c.387 0 .813-.202 1.199-.567a3.63 3.63 0 0 0 .901-1.421c.235-.674.207-1.315-.077-1.759a1.06 1.06 0 0 0-.92-.507z" class="K"/><use xlink:href="#Aj" class="B D"/><use xlink:href="#Aj" x="23" y="-46" class="B D"/><use xlink:href="#F" x="166.047" y="-82" class="B"/><use xlink:href="#F" x="713.142" y="-438.25" class="B"/><use xlink:href="#F" x="631.002" y="-342" class="B"/><use xlink:href="#F" x="689.637" y="-398.496" class="B"/><use xlink:href="#F" x="235.637" y="-352.496" class="B"/><use xlink:href="#F" x="512.637" y="-459.496" class="B"/><use xlink:href="#F" x="705.637" y="-324.496" class="B"/><use xlink:href="#F" x="592.637" y="-286.496" class="B"/><use xlink:href="#G" x="168.047" y="-93" class="B D"/><use xlink:href="#G" x="578.491" y="-339.399" class="B D"/><use xlink:href="#R" x="-448.419" y="310.25" class="B D"/><use xlink:href="#R" x="98.676" y="-46" class="B D"/><use xlink:href="#R" x="-65.419" y="110.25" class="B D"/><use xlink:href="#K" x="37" y="145" class="B D"/><use xlink:href="#K" x="489.157" y="-125" class="B D"/><use xlink:href="#E" x="-578" y="463.971" class="F"/><use xlink:href="#E" x="-31" y="108" class="F"/><use xlink:href="#E" x="-88" y="251" class="F"/><use xlink:href="#E" x="-239" y="338" class="F"/><use xlink:href="#E" x="-277" y="312" class="F"/><use xlink:href="#E" x="-371" y="368" class="F"/><use xlink:href="#E" x="-423" y="438" class="F"/><use xlink:href="#L" x="-15" y="145" class="C L"/><path d="M335.733 625c-.653 0-1.353.62-1.629 1.441-.16.476-.134.933.07 1.252a.81.81 0 0 0 .624.383c.026.003.052.004.085.004.298 0 .627-.146.924-.41s.546-.63.695-1.029c.181-.488.16-.952-.059-1.274-.161-.236-.413-.367-.71-.367z" class="F"/><path d="M262.529 828c-.392 0-.812.372-.978.864-.095.286-.08.56.042.752a.49.49 0 0 0 .375.23l.051.002c.179 0 .376-.088.554-.246s.328-.378.417-.618c.109-.292.096-.571-.035-.764a.5.5 0 0 0-.426-.22z" class="C E"/><use xlink:href="#M" x="9.192" y="150.399" class="C E"/><use xlink:href="#M" x="389.636" y="-96" class="C E"/><use xlink:href="#M" x="2" y="99" class="C E"/><use xlink:href="#M" x="228" y="-114" class="C E"/><use xlink:href="#M" x="-20" y="-23" class="C E"/><use xlink:href="#M" x="-34" y="106" class="C E"/><use xlink:href="#M" x="412.41" y="-183" class="C E"/><use xlink:href="#M" x="576.41" y="-151" class="C E"/><use xlink:href="#M" x="47" y="88" class="C E"/><use xlink:href="#M" x="493.41" y="-201" class="C E"/><path d="M389.69 792c-.637 0-1.319.603-1.589 1.403-.156.465-.13.91.068 1.22.138.218.354.349.609.374.025.003.051.003.082.003.292 0 .612-.141.901-.4s.531-.614.677-1.002c.177-.476.156-.927-.058-1.241-.156-.23-.401-.357-.69-.357z" class="B"/><use xlink:href="#M" x="84" y="115" class="F"/><use xlink:href="#H" x="-50" y="210" class="I"/><use xlink:href="#I" x="168.047" y="-93" class="C E"/><use xlink:href="#N" x="-53.133" y="-158" class="B D"/><use xlink:href="#E" x="72" y="-82" class="B D"/><path d="M869.751 335.341c-.653 0-1.354.619-1.629 1.44-.16.477-.134.933.07 1.252a.81.81 0 0 0 .624.383c.026.003.052.004.084.004.299 0 .627-.146.925-.41s.545-.63.694-1.029c.182-.488.16-.952-.058-1.274-.161-.236-.413-.366-.71-.366z" class="B D"/></g><g style="mix-blend-mode:screen" class="B"><use xlink:href="#O" x="349.923" y="-467"/></g><g style="mix-blend-mode:screen" opacity=".2" class="B"><use xlink:href="#Ab" x="78" y="-140"/></g><g style="mix-blend-mode:multiply"><use xlink:href="#E" x="-13" y="-25.029" class="F"/><use xlink:href="#E" x="-235" y="135.011" class="F"/><path d="M1091.92 120.475c-.39 0-.82.371-.98.864-.1.286-.08.56.04.751a.5.5 0 0 0 .38.23.34.34 0 0 0 .05.002c.18 0 .37-.087.55-.246a1.57 1.57 0 0 0 .42-.617c.11-.293.09-.571-.04-.764-.09-.142-.24-.22-.42-.22z" class="C L"/><use xlink:href="#Aa" x="41.88" y="-131.25" class="F"/><use xlink:href="#U" x="-45.22" y="-120" class="C E"/><use xlink:href="#T" x="413" y="-194" class="I"/><use xlink:href="#Ac" x="-22.22" y="-15" class="C E"/><path d="M338.716 782.08c-.477 0-.988.451-1.189 1.05-.116.348-.098.681.051.914.103.162.265.262.456.279.018.002.038.003.061.003.218 0 .457-.106.675-.299a1.92 1.92 0 0 0 .506-.751c.132-.356.117-.694-.043-.929-.117-.172-.301-.267-.517-.267z" class="B D"/><use xlink:href="#Ak" class="B D"/><use xlink:href="#Ak" x="39.607" y="-18.949" class="B D"/><path d="M396.188 751.072c-.286 0-.592.271-.713.631-.07.208-.058.408.031.548a.36.36 0 0 0 .273.168.42.42 0 0 0 .037.001c.131 0 .274-.064.405-.179a1.16 1.16 0 0 0 .304-.451c.079-.213.069-.416-.026-.557-.071-.104-.181-.161-.311-.161z" class="C E"/></g><g style="mix-blend-mode:screen"><use xlink:href="#AZ" x="42.78" y="-167.653" class="G"/><path d="M1054.25 407c-.85 0-1.76.804-2.12 1.871-.2.619-.17 1.212.1 1.626.18.29.47.467.81.498.03.003.06.005.11.005.38 0 .81-.189 1.2-.533a3.33 3.33 0 0 0 .9-1.336c.23-.634.21-1.237-.08-1.655-.21-.307-.53-.476-.92-.476zm-117.107 70c-.848 0-1.758.804-2.116 1.871-.207.619-.174 1.212.091 1.626.183.29.471.467.811.498l.109.005c.388 0 .814-.189 1.201-.533s.708-.818.902-1.336c.236-.634.208-1.237-.077-1.655-.208-.307-.535-.476-.921-.476z" class="G"/><use xlink:href="#Al" class="G"/><use xlink:href="#Al" x="280" y="-34.96" class="G"/><use xlink:href="#Al" x="126" y="63" class="G"/><use xlink:href="#Al" x="11" y="75" class="G"/><path d="M932.815 416c-1.06 0-2.2 1.006-2.645 2.339-.26.774-.22 1.515.11 2.033.23.361.59.582 1.015.622a1.37 1.37 0 0 0 .135.006c.485 0 1.02-.237 1.505-.667s.885-1.022 1.125-1.67c.295-.792.26-1.545-.095-2.067-.26-.384-.67-.596-1.15-.596z" class="E"/><path d="M931.814 374c-1.061 0-2.198 1.006-2.645 2.338-.26.775-.219 1.516.113 2.033a1.32 1.32 0 0 0 1.014.623c.041.004.084.006.136.006.485 0 1.018-.237 1.502-.666s.885-1.023 1.127-1.67c.295-.793.26-1.547-.095-2.069-.261-.384-.67-.595-1.152-.595z" class="I"/><path d="M1026.25 429c-.28 0-.58.265-.7.616-.07.204-.06.399.03.536a.36.36 0 0 0 .27.164.3.3 0 0 0 .03.001c.13 0 .27-.062.4-.175s.23-.27.3-.44c.07-.209.07-.408-.03-.545-.07-.101-.17-.157-.3-.157zM667.249 607c-.28 0-.579.265-.697.616-.068.204-.057.399.03.536a.35.35 0 0 0 .267.164c.011.001.022.001.036.001.128 0 .268-.062.395-.175a1.11 1.11 0 0 0 .297-.44c.078-.209.069-.408-.025-.545-.069-.101-.176-.157-.303-.157z" class="G"/><path d="M1080.41 404.298c-.28 0-.57.264-.69.616-.07.203-.06.399.03.535.06.095.15.154.26.164l.04.002c.13 0 .27-.063.4-.176.12-.113.23-.269.29-.44.08-.208.07-.407-.02-.545-.07-.101-.18-.156-.31-.156z" class="B D"/><use xlink:href="#Am" class="B D"/><use xlink:href="#Am" x="-14.5" y="65.04" class="B D"/><path d="M991.244 439.483c-.279 0-.579.265-.697.616-.068.204-.057.399.03.536.06.095.155.153.267.163a.2.2 0 0 0 .036.002c.128 0 .268-.062.396-.175a1.14 1.14 0 0 0 .297-.44c.077-.209.068-.408-.026-.545-.068-.101-.176-.157-.303-.157z" class="B D"/><path d="M1074.59 396.395c-.17 0-.35.159-.42.37-.04.122-.04.239.02.321.03.057.09.092.16.098 0 .001.01.001.02.001.08 0 .16-.037.24-.105a.64.64 0 0 0 .17-.264c.05-.125.05-.244-.01-.327-.04-.06-.11-.094-.18-.094z" class="G"/><path d="M1074.59 406.273c-.17 0-.35.159-.42.37-.04.122-.04.239.02.321.03.057.09.092.16.098 0 .001.01.001.02.001.08 0 .16-.037.24-.105.07-.068.14-.161.17-.264.05-.125.05-.244-.01-.327-.04-.06-.11-.094-.18-.094z" class="B D"/><use xlink:href="#An" class="F"/><use xlink:href="#An" x="-117.108" y="70" class="F"/></g><g style="mix-blend-mode:screen"><path d="M1018.74 437.824c-.28 0-.58.265-.7.616-.06.204-.05.4.03.536a.36.36 0 0 0 .27.164c.01.001.02.002.04.002.12 0 .27-.063.39-.176a1.06 1.06 0 0 0 .3-.44c.08-.209.07-.407-.03-.545-.06-.101-.17-.157-.3-.157zm58.88-24.834c-.17 0-.35.159-.42.37-.04.122-.04.239.02.321.03.057.09.092.16.099a.36.36 0 0 0 .25-.105c.08-.068.14-.161.18-.264.05-.125.04-.244-.01-.327-.04-.06-.11-.094-.18-.094z" class="F"/><path d="M1077.38 400.478c-.27 0-.57.265-.69.616-.07.204-.06.399.03.536a.34.34 0 0 0 .27.163c.01.002.02.002.03.002.13 0 .27-.062.4-.175a1.16 1.16 0 0 0 .29-.44c.08-.209.07-.408-.02-.545-.07-.101-.18-.157-.31-.157zm-117.103 70c-.279 0-.579.265-.696.616-.069.204-.058.399.029.536a.35.35 0 0 0 .268.163c.01.002.022.002.035.002.128 0 .269-.062.396-.175a1.13 1.13 0 0 0 .297-.44c.077-.209.068-.408-.025-.545-.069-.101-.177-.157-.304-.157zM1088.94 396c-.17 0-.35.159-.42.37-.04.122-.03.239.02.321.04.057.1.092.16.098a.23.23 0 0 0 .02.001c.08 0 .16-.037.24-.105a.66.66 0 0 0 .18-.264c.05-.125.04-.244-.02-.327-.04-.061-.1-.094-.18-.094z" class="C E"/><path d="M367.483 766.104c-.315 0-.653.299-.786.695-.077.23-.065.451.033.604.069.108.176.174.302.185.012.002.025.002.04.002.144 0 .303-.07.446-.198a1.25 1.25 0 0 0 .335-.496c.088-.236.078-.46-.028-.615a.4.4 0 0 0-.342-.177z" class="G"/><use xlink:href="#Ao" class="B D"/><use xlink:href="#Ao" x="155" y="-118.002" class="B D"/><use xlink:href="#Ap" class="B D"/><use xlink:href="#Aq" class="G"/><use xlink:href="#Ar" class="B D"/><use xlink:href="#As" class="G"/><use xlink:href="#Ap" x="-12" y="-49.803" class="F"/><path d="M361.438 753.701c-.315 0-.653.298-.786.695-.077.23-.064.45.034.604.068.107.175.173.301.185a.52.52 0 0 0 .041.001c.144 0 .302-.07.446-.198s.263-.303.335-.496c.088-.235.077-.459-.028-.615a.4.4 0 0 0-.343-.176z" class="F"/><use xlink:href="#At" class="F"/><use xlink:href="#Au" class="C H"/><use xlink:href="#Av" class="C H"/><use xlink:href="#Aw" class="C E"/><use xlink:href="#Aq" x="18.815" y="67" class="C E"/><path d="M1065.12 423.104c-.32 0-.66.299-.79.695-.08.23-.07.451.03.604a.4.4 0 0 0 .3.185c.02.002.03.002.04.002.15 0 .31-.07.45-.198s.26-.304.34-.496c.08-.236.07-.46-.03-.615-.08-.114-.2-.177-.34-.177z" class="G"/><path d="M1116.75 400.002c-.31 0-.65.299-.78.695-.08.23-.07.45.03.604.07.108.18.173.3.185.01.001.03.002.04.002a.69.69 0 0 0 .45-.198c.14-.128.26-.304.33-.497.09-.235.08-.459-.02-.614a.41.41 0 0 0-.35-.177z" class="B D"/><use xlink:href="#Ax" class="B D"/><path d="M1100.22 375.538c-.19 0-.39.179-.47.417-.05.138-.04.27.02.363.04.064.11.103.18.111l.03.001c.08 0 .18-.043.26-.119a.69.69 0 0 0 .2-.298c.06-.141.05-.276-.01-.369-.05-.068-.12-.106-.21-.106z" class="B D"/><use xlink:href="#Ax" x="28" y="-49.803" class="F"/><path d="M1089.07 410.701c-.31 0-.65.298-.79.695-.07.23-.06.45.04.604a.39.39 0 0 0 .3.185c.01.001.02.001.04.001.14 0 .3-.07.45-.198.14-.127.26-.303.33-.496.09-.235.08-.459-.03-.615-.07-.114-.2-.176-.34-.176z" class="K"/><use xlink:href="#Ay" class="K"/><use xlink:href="#Ay" x="-148.234" y="-57.701" class="K"/><path d="M1103.6 409.809c-.19 0-.4.179-.48.417-.04.138-.03.27.02.362a.26.26 0 0 0 .19.111c0 .001.01.002.02.002.09 0 .18-.043.27-.119a.8.8 0 0 0 .2-.298c.05-.141.04-.276-.02-.369-.05-.068-.12-.106-.2-.106z" class="K"/><path d="M1044.3 292c-.25 0-.52.239-.63.556-.06.184-.05.36.03.483.05.086.14.139.24.148l.03.002c.12 0 .25-.057.36-.159a.99.99 0 0 0 .27-.397c.07-.188.06-.367-.02-.491-.07-.092-.16-.142-.28-.142z" class="C H"/><use xlink:href="#Av" x="223.041" y="-369.854" class="C H"/><path d="M1103.38 369c-.32 0-.65.299-.79.695-.07.23-.06.45.04.604.07.108.17.173.3.185.01.001.02.002.04.002.14 0 .3-.07.45-.198a1.28 1.28 0 0 0 .33-.496c.09-.236.08-.46-.03-.615-.08-.114-.2-.177-.34-.177z" class="C E"/><use xlink:href="#Az" class="C E"/><path d="M1133.95 413c-.19 0-.39.179-.47.417-.05.138-.04.27.02.362.04.065.1.104.18.111.01.001.01.002.02.002.09 0 .18-.043.27-.119s.16-.183.2-.298c.05-.141.05-.276-.02-.369-.04-.068-.11-.106-.2-.106z" fill="#73ddff" class="C"/><path d="M1098.48 214.104c-.31 0-.65.299-.78.695-.08.23-.07.45.03.604a.4.4 0 0 0 .3.185c.01.002.03.002.04.002.15 0 .31-.07.45-.198a1.27 1.27 0 0 0 .33-.496c.09-.236.08-.46-.02-.615a.41.41 0 0 0-.35-.177z" class="G"/><use xlink:href="#BA" class="G"/><use xlink:href="#BA" x="-207.5" y="95" class="G"/><use xlink:href="#Ap" x="625" y="-402" class="B D"/><use xlink:href="#Ar" x="655" y="-402" class="B D"/><use xlink:href="#As" x="625" y="-402" class="G"/><use xlink:href="#Ay" x="256.368" y="-237" class="F"/><path d="M1030.96 350.809c-.19 0-.39.179-.47.417-.04.138-.04.27.02.362.04.065.11.104.18.111l.03.002c.08 0 .18-.043.26-.119a.82.82 0 0 0 .21-.298c.05-.141.04-.276-.02-.369-.05-.068-.12-.106-.21-.106z" class="F"/><use xlink:href="#Av" x="655" y="-402" class="C H"/><use xlink:href="#BB" class="C E"/></g><use xlink:href="#BC" class="G"/><use xlink:href="#Ao" x="9" y="95" class="B D"/><use xlink:href="#Ap" x="-35" y="102" class="B D"/><use xlink:href="#Ap" x="5" y="-44.803" class="B D"/><use xlink:href="#Ap" x="40" y="-48.803" class="B D"/><use xlink:href="#Aq" x="39" y="133" class="G"/><use xlink:href="#Aq" x="586.095" y="-223.25" class="G"/><use xlink:href="#Aq" x="76" y="95.334" class="G"/><use xlink:href="#Ar" x="39" y="95" class="B D"/><use xlink:href="#As" x="-35" y="102" class="G"/><use xlink:href="#Ap" x="27" y="45.197" class="F"/><use xlink:href="#Ay" x="-403.632" y="267" class="F"/><use xlink:href="#At" x="-35" y="72" class="F"/><use xlink:href="#Au" x="49" y="145" class="C H"/><use xlink:href="#Av" x="39" y="95" class="C H"/><use xlink:href="#Az" x="-369.632" y="260" class="C E"/><use xlink:href="#Aq" x="-16.185" y="169" class="C E"/><g style="mix-blend-mode:screen"><path d="M1009.48 395.104c-.31 0-.65.299-.78.695-.08.23-.07.451.03.604.07.108.17.174.3.185.01.002.03.002.04.002.15 0 .3-.07.45-.198a1.27 1.27 0 0 0 .33-.496c.09-.236.08-.46-.03-.615a.38.38 0 0 0-.34-.177z" class="G"/><use xlink:href="#BC" x="521.5" y="-379" class="G"/><path d="M1021.12 372.002c-.31 0-.65.299-.78.695-.08.23-.07.45.03.604.07.108.17.173.3.185.01.001.03.002.04.002.15 0 .3-.071.45-.198.14-.128.26-.304.33-.497.09-.235.08-.459-.03-.614-.07-.114-.2-.177-.34-.177z" class="B D"/><use xlink:href="#BD" class="B D"/><use xlink:href="#BE" class="G"/><path d="M1004.59 347.538c-.19 0-.39.179-.47.417-.05.138-.04.27.02.363a.23.23 0 0 0 .18.111c.01 0 .01.001.02.001.09 0 .18-.043.27-.119a.69.69 0 0 0 .2-.298c.05-.141.05-.276-.02-.369-.04-.068-.11-.106-.2-.106z" class="B D"/><use xlink:href="#As" x="622" y="-350" class="G"/><use xlink:href="#BD" x="18" y="-49.803" class="F"/><use xlink:href="#Ap" x="452.501" y="-325.803" class="F"/><path d="M1003.44 382.701c-.32 0-.66.298-.79.695-.08.23-.06.45.04.604.06.107.17.173.3.185.01.001.02.001.04.001.14 0 .3-.07.44-.198.15-.127.27-.303.34-.496.09-.235.08-.459-.03-.615-.08-.114-.2-.176-.34-.176zm14.52-.892c-.19 0-.39.179-.47.417-.05.138-.04.27.02.362.04.065.11.104.18.111l.03.002c.08 0 .18-.043.26-.119a.82.82 0 0 0 .21-.298c.05-.141.04-.276-.02-.369-.05-.068-.12-.106-.21-.106z" class="F"/><use xlink:href="#At" x="350.538" y="-235" class="F"/><use xlink:href="#BF" class="C H"/><use xlink:href="#Au" x="100.445" y="15" class="C H"/><use xlink:href="#Av" x="433" y="-34.63" class="C H"/><path d="M1007.75 341c-.32 0-.66.299-.79.695-.08.23-.06.45.03.604.07.108.18.173.31.185.01.001.02.002.04.002.14 0 .3-.07.44-.198a1.2 1.2 0 0 0 .34-.496c.09-.236.07-.46-.03-.615-.08-.114-.2-.177-.34-.177zm20.57 44c-.19 0-.4.179-.48.417-.04.138-.03.27.02.362a.26.26 0 0 0 .19.111c0 .001.01.002.02.002.09 0 .18-.043.27-.119a.69.69 0 0 0 .2-.298c.05-.141.04-.276-.02-.369-.04-.068-.12-.106-.2-.106z" class="C E"/><use xlink:href="#BA" x="78" y="114" class="G"/></g><use xlink:href="#BG" class="B D"/><use xlink:href="#BG" x="-359" y="178" class="B D"/><g style="mix-blend-mode:screen" class="B D"><use xlink:href="#BH"/><use xlink:href="#BH" x="-359" y="178"/></g><g style="mix-blend-mode:screen"><use xlink:href="#As" x="653" y="-298" class="I"/><use xlink:href="#BG" x="68" y="-49.803" class="F"/><path d="M1065.84 468c-.32 0-.65.298-.79.695-.07.23-.06.45.04.604.06.107.17.173.3.185.01.001.02.001.04.001.14 0 .3-.07.44-.198.15-.127.27-.303.34-.496.09-.235.08-.459-.03-.615-.08-.114-.2-.176-.34-.176z" class="F"/><path d="M1098.5 436.63c-.19 0-.39.18-.47.417-.05.138-.04.271.02.363.04.064.11.104.18.111.01.001.02.001.03.001a.4.4 0 0 0 .26-.119c.09-.076.16-.182.2-.298.06-.141.05-.275-.01-.368-.05-.069-.12-.107-.21-.107z" class="C H"/><use xlink:href="#BB" x="128" y="114" class="C E"/><use xlink:href="#BB" x="-453.556" y="450" class="C E"/><path d="M1075.84 213c-.32 0-.66.299-.79.695-.08.23-.06.451.03.604.07.108.18.174.31.185.01.002.02.002.04.002.14 0 .3-.07.44-.198.15-.127.26-.304.34-.496.08-.236.07-.46-.03-.615-.08-.114-.2-.177-.34-.177z" fill="#1ab775"/><use xlink:href="#BD" x="55" y="-265.803" class="F"/><use xlink:href="#Ap" x="594" y="-407.803" class="G"/><use xlink:href="#BC" x="609" y="-549" class="G"/><use xlink:href="#BC" x="272.353" y="-310.104" class="G"/><use xlink:href="#BC" x="625" y="-487" class="G"/><use xlink:href="#Ap" x="516" y="-452.803" class="G"/></g><use xlink:href="#Ap" x="-92" y="73.197" class="G"/><use xlink:href="#Ap" x="-137" y="99.197" class="G"/><use xlink:href="#Ap" x="-88.318" y="-50.803" class="G"/><use xlink:href="#Ap" x="437.682" y="-290.955" class="G"/><use xlink:href="#BD" x="40" y="-63.387" class="G"/><use xlink:href="#Ap" x="630" y="-419.387" class="G"/><use xlink:href="#Ap" x="119.905" y="-100.803" class="G"/><path d="M999.836 352.416c-.315 0-.653.299-.786.695-.077.23-.065.45.034.604a.39.39 0 0 0 .301.185l.041.002c.144 0 .302-.07.446-.198s.268-.304.338-.496c.08-.236.07-.46-.03-.615-.08-.114-.201-.177-.344-.177zM150.483 807.104c-.315 0-.653.299-.786.695-.077.23-.065.451.033.604a.39.39 0 0 0 .302.185c.012.002.025.002.04.002.144 0 .303-.07.446-.198a1.26 1.26 0 0 0 .335-.496c.088-.236.078-.46-.028-.615a.4.4 0 0 0-.342-.177z" class="G"/><use xlink:href="#BI" class="G"/><g style="mix-blend-mode:screen" class="G"><use xlink:href="#Aw" x="568.156" y="-337"/></g><g style="mix-blend-mode:screen" class="G"><use xlink:href="#BD" x="84" y="-68.803"/></g><g style="mix-blend-mode:screen" class="G"><use xlink:href="#BI" x="575" y="-341"/></g><use xlink:href="#Ap" x="-64" y="-29.803" class="G"/><use xlink:href="#Ap" x="-114" y="57.197" class="G"/><use xlink:href="#Ap" x="266.444" y="-189.202" class="G"/><g style="mix-blend-mode:multiply" class="B"><use xlink:href="#BJ" class="D"/><use xlink:href="#BJ" x="-130" y="-58" class="D"/><use xlink:href="#BJ" x="203" y="-153" class="D"/><use xlink:href="#BJ" x="160.619" y="-201" class="D"/><use xlink:href="#BJ" x="-100" y="-41"/><use xlink:href="#BJ" x="364.955" y="-301"/></g><g style="mix-blend-mode:screen"><path d="M1128.22 95c-.46 0-.95.434-1.15 1.011-.11.334-.09.654.05.878a.58.58 0 0 0 .44.269c.02.002.04.003.06.003.21 0 .44-.102.65-.288s.38-.442.49-.722c.12-.342.11-.668-.05-.894-.11-.166-.29-.257-.49-.257z" class="E"/><use xlink:href="#BK" class="E"/><use xlink:href="#BK" x="-383.395" y="175" class="E"/><path d="M1101.01 106.011c-.34 0-.71.326-.85.758-.09.251-.08.491.03.659.08.118.19.189.33.202.01.001.03.002.05.002.15 0 .33-.077.48-.216a1.37 1.37 0 0 0 .37-.541c.09-.257.08-.502-.03-.671a.45.45 0 0 0-.38-.193z" class="C H"/><use xlink:href="#AO" x="-28" y="-105" class="B D"/></g><g style="mix-blend-mode:screen" opacity=".3" class="E"><path d="M1140.48 94c-.53 0-1.11.506-1.33 1.177-.13.39-.11.763.06 1.023.11.182.29.293.51.313.02.002.04.003.07.003.24 0 .51-.119.75-.336.25-.216.45-.514.57-.84.15-.399.13-.778-.05-1.041a.68.68 0 0 0-.58-.3z"/></g><g style="mix-blend-mode:screen"><path d="M1160.25 70c-.85 0-1.76.804-2.12 1.871-.2.619-.17 1.212.1 1.626a1.05 1.05 0 0 0 .81.498c.03.003.06.005.11.005.38 0 .81-.189 1.2-.533.38-.343.71-.818.9-1.336.23-.634.21-1.237-.08-1.655-.21-.307-.53-.476-.92-.476z" class="B"/><path d="M1100.7 101.861c-.26 0-.55.25-.66.581-.06.193-.05.377.03.505a.34.34 0 0 0 .25.155c.01.001.02.002.04.002.12 0 .25-.059.37-.166a1.06 1.06 0 0 0 .28-.415c.07-.197.06-.384-.02-.514a.35.35 0 0 0-.29-.148z" class="G"/><path d="M1140.84 201.002c-.31 0-.65.299-.79.695-.07.23-.06.45.04.604.07.108.17.173.3.185.01.001.02.002.04.002.14 0 .3-.071.45-.198.14-.128.26-.304.33-.497.09-.235.08-.459-.03-.614-.07-.114-.2-.177-.34-.177z" class="B D"/><use xlink:href="#BE" x="69.72" y="-181" class="G"/><use xlink:href="#BG" x="76.72" y="-303.803" class="F"/><use xlink:href="#BF" x="119.72" y="-171" class="C H"/><path d="M1148.04 214c-.19 0-.4.179-.47.417-.05.138-.04.27.02.362.04.065.1.104.18.111 0 .001.01.002.02.002.09 0 .18-.043.27-.119a.8.8 0 0 0 .2-.298c.05-.141.05-.276-.02-.369-.04-.068-.12-.106-.2-.106z" class="C E"/></g></g><defs><filter id="B" x="-26.582" y="5.762" width="1260.6" height="1065.73" filterUnits="userSpaceOnUse" color-interpolation-filters="sRGB"><feFlood flood-opacity="0"/><feBlend in="SourceGraphic"/><feGaussianBlur stdDeviation="37"/></filter><linearGradient id="C" x1="1140" y1="83.5" x2="144" y2="904.5" gradientUnits="userSpaceOnUse"><stop stop-color="#1066a5" stop-opacity=".61"/><stop offset=".448" stop-color="#a77600" stop-opacity=".52"/><stop offset=".867" stop-color="#4b159f" stop-opacity=".35"/><stop offset=".974" stop-color="#009f4c" stop-opacity=".37"/></linearGradient><path id="D" d="M673.196 587c-.424 0-.879.402-1.059.935-.103.31-.086.606.046.813a.53.53 0 0 0 .406.249c.016.002.033.003.054.003.194 0 .407-.095.601-.266s.354-.409.451-.669c.118-.317.104-.618-.039-.827a.54.54 0 0 0-.46-.238z"/><path id="E" d="M872.733 387c-.653 0-1.354.619-1.629 1.44-.16.477-.134.934.07 1.253.141.222.363.359.624.383l.084.004c.299 0 .627-.146.925-.411s.545-.629.694-1.028c.182-.488.16-.953-.059-1.274-.16-.237-.412-.367-.709-.367z"/><path id="F" d="M154.096 929.496c-.654 0-1.354.62-1.63 1.441-.159.476-.134.933.07 1.252a.81.81 0 0 0 .625.383c.025.003.051.004.084.004.298 0 .627-.146.925-.41s.545-.63.694-1.029c.181-.488.16-.952-.059-1.274-.161-.236-.413-.367-.709-.367z"/><path id="G" d="M146.704 927.341c-.653 0-1.353.619-1.629 1.44-.16.477-.134.933.07 1.252a.81.81 0 0 0 .624.383c.026.003.052.004.084.004.299 0 .627-.146.925-.41s.545-.63.694-1.029c.182-.488.16-.952-.058-1.274-.161-.236-.413-.366-.71-.366z"/><path id="H" d="M351.431 671.152c-.392 0-.812.372-.977.864-.096.286-.081.56.042.752a.49.49 0 0 0 .374.23l.051.002c.179 0 .376-.088.555-.246a1.57 1.57 0 0 0 .416-.617c.109-.293.096-.572-.035-.765a.5.5 0 0 0-.426-.22z"/><path id="I" d="M150.631 914.406c-.392 0-.813.371-.978.864-.096.286-.081.56.042.751.085.134.218.216.375.23.015.002.031.003.05.003.179 0 .376-.088.555-.247s.327-.377.416-.617c.109-.293.096-.571-.035-.764-.096-.142-.247-.22-.425-.22z"/><path id="J" d="M1135.14 211.496c-.65 0-1.35.62-1.63 1.441-.16.476-.13.933.07 1.252.14.223.37.359.63.383.02.003.05.004.08.004.3 0 .63-.146.93-.41s.54-.63.69-1.029c.18-.488.16-.952-.06-1.274-.16-.236-.41-.367-.71-.367z"/><path id="K" d="M291.225 674.866c-.392 0-.813.372-.978.864-.096.286-.08.56.042.751.085.134.218.216.375.23.015.002.031.003.05.003.179 0 .376-.088.555-.247s.327-.377.417-.617c.108-.292.096-.571-.036-.764-.096-.142-.247-.22-.425-.22z"/><path id="L" d="M290.917 667.475c-.392 0-.813.371-.978.864-.096.286-.08.56.042.751.085.134.218.216.375.23.015.002.031.002.05.002.179 0 .376-.087.555-.246s.327-.378.417-.617c.108-.293.096-.571-.036-.764-.096-.142-.247-.22-.425-.22z"/><path id="M" d="M327.04 663c-.392 0-.812.371-.978.864-.096.286-.08.56.042.751a.49.49 0 0 0 .375.23c.015.002.031.002.05.002.18 0 .377-.087.555-.246a1.58 1.58 0 0 0 .417-.617c.109-.293.096-.571-.036-.764-.096-.142-.247-.22-.425-.22z"/><path id="N" d="M923.337 507.96c-.653 0-1.354.619-1.629 1.441-.16.476-.134.933.07 1.252.141.222.363.359.624.383.026.003.052.004.084.004.299 0 .627-.146.925-.411s.545-.629.694-1.028c.182-.488.16-.953-.058-1.274a.83.83 0 0 0-.71-.367z"/><path id="O" d="M546.93 787.25c-.654 0-1.354.619-1.63 1.44-.159.477-.134.934.07 1.253.141.222.363.359.625.383l.084.004c.298 0 .627-.146.925-.411s.545-.629.694-1.028c.181-.488.16-.953-.059-1.274a.83.83 0 0 0-.709-.367z"/><path id="P" d="M172.733 835c-.653 0-1.354.619-1.629 1.44-.16.477-.134.934.07 1.253.141.222.363.359.624.383l.084.004c.299 0 .627-.146.925-.411s.545-.629.694-1.028c.182-.488.16-.953-.058-1.274a.83.83 0 0 0-.71-.367z"/><path id="Q" d="M1098.73 227c-.65 0-1.35.619-1.63 1.44-.16.477-.13.934.07 1.253.15.222.37.359.63.383a.85.85 0 0 0 .08.004c.3 0 .63-.146.93-.411s.54-.629.69-1.028c.18-.488.16-.953-.06-1.274-.16-.237-.41-.367-.71-.367z"/><path id="R" d="M790.272 509c-.654 0-1.354.619-1.63 1.44-.159.477-.134.934.07 1.253.142.222.363.359.625.383l.084.004c.298 0 .627-.146.925-.411s.545-.629.694-1.028c.181-.488.16-.953-.059-1.274a.83.83 0 0 0-.709-.367z"/><path id="S" d="M1041.04 363c-.39 0-.81.372-.98.864-.09.286-.08.56.04.752.09.133.22.215.38.23.01.001.03.002.05.002.18 0 .38-.088.55-.246.18-.159.33-.378.42-.618.11-.292.1-.571-.03-.764-.1-.142-.25-.22-.43-.22z"/><path id="T" d="M539.04 558c-.392 0-.812.372-.978.864-.096.286-.08.56.042.752a.49.49 0 0 0 .375.23l.05.002c.18 0 .377-.088.555-.246s.327-.378.417-.618c.109-.292.096-.571-.036-.764-.096-.142-.247-.22-.425-.22z"/><path id="U" d="M1093.53 362c-.39 0-.81.372-.98.864-.09.286-.08.56.04.752.09.133.22.215.38.23.01.001.03.002.05.002.18 0 .37-.088.55-.246s.33-.378.42-.618c.11-.292.1-.571-.04-.764-.09-.142-.24-.22-.42-.22z"/><path id="V" d="M810.529 602c-.392 0-.812.372-.977.864-.096.286-.081.56.042.752a.49.49 0 0 0 .374.23l.051.002c.179 0 .376-.088.555-.246s.327-.378.416-.618c.109-.292.096-.571-.035-.764a.5.5 0 0 0-.426-.22z"/><path id="W" d="M254.733 831.971c-.653 0-1.354.619-1.629 1.44-.16.477-.134.933.07 1.252.141.223.363.359.624.384l.084.004c.299 0 .627-.146.925-.411s.545-.629.694-1.028c.182-.488.16-.953-.059-1.274-.16-.237-.412-.367-.709-.367z"/><path id="X" d="M888.219 379c-.459 0-.952.436-1.146 1.013-.112.336-.094.657.049.881.1.157.256.253.44.27.017.002.036.003.059.003.21 0 .441-.103.651-.289a1.84 1.84 0 0 0 .488-.724c.128-.343.112-.67-.041-.896-.113-.166-.291-.258-.5-.258z"/><path id="Y" d="M874.732 314c-.276 0-.572.261-.688.608-.068.201-.057.394.029.529.06.094.154.151.264.162.011.001.022.001.035.001.127 0 .265-.061.391-.173a1.11 1.11 0 0 0 .293-.434c.077-.206.067-.402-.025-.538a.35.35 0 0 0-.299-.155z"/><path id="Z" d="M1097.55 246.688c-.72 0-1.5.687-1.8 1.598-.18.529-.15 1.035.07 1.389.16.247.41.398.7.425.02.003.05.005.09.005.33 0 .7-.162 1.03-.456s.6-.698.77-1.141c.2-.541.17-1.056-.07-1.413a.93.93 0 0 0-.79-.407z"/><path id="a" d="M232.923 783c-.725 0-1.502.687-1.808 1.598-.177.528-.149 1.035.078 1.389.157.247.403.398.693.425a.86.86 0 0 0 .093.004c.331 0 .696-.162 1.026-.455a2.9 2.9 0 0 0 .77-1.141c.201-.542.177-1.057-.065-1.413a.92.92 0 0 0-.787-.407z"/><path id="b" d="M1019.92 444c-.72 0-1.5.687-1.8 1.598-.18.529-.15 1.035.07 1.389.16.247.41.398.7.425.02.003.05.005.09.005.33 0 .69-.162 1.03-.456.33-.293.6-.698.77-1.141.2-.541.17-1.056-.07-1.413a.93.93 0 0 0-.79-.407z"/><path id="c" d="M536.758 723.584c-.725 0-1.502.687-1.808 1.598-.177.529-.149 1.035.078 1.389.157.247.403.398.693.425a.86.86 0 0 0 .093.004c.331 0 .696-.161 1.026-.455s.605-.698.77-1.141c.201-.541.177-1.056-.065-1.413-.179-.262-.458-.407-.787-.407z"/><path id="d" d="M994.923 472.304c-.725 0-1.502.687-1.808 1.598-.177.529-.149 1.035.078 1.389a.9.9 0 0 0 .692.425l.094.005c.331 0 .695-.162 1.026-.456s.604-.698.77-1.141c.201-.541.177-1.056-.065-1.413-.179-.262-.458-.407-.787-.407z"/><path id="e" d="M1133.55 154.107c-.72 0-1.5.687-1.8 1.597-.18.529-.15 1.036.07 1.39.16.247.41.398.7.425a.68.68 0 0 0 .09.004c.33 0 .69-.162 1.03-.455.33-.294.6-.699.77-1.141.2-.542.17-1.057-.07-1.414-.18-.262-.46-.406-.79-.406z"/><path id="f" d="M351.689 770c-.637 0-1.319.603-1.588 1.403-.155.464-.131.909.069 1.22a.79.79 0 0 0 .608.373.67.67 0 0 0 .082.004c.29 0 .611-.142.901-.4s.531-.613.676-1.002c.176-.475.155-.928-.057-1.241a.81.81 0 0 0-.691-.357z"/><path id="g" d="M1147.48 118.773c-.73 0-1.5.687-1.81 1.597-.18.529-.15 1.036.08 1.389.16.248.4.399.69.426.03.003.06.004.09.004.34 0 .7-.162 1.03-.455s.61-.699.77-1.141c.2-.542.18-1.057-.06-1.414-.18-.262-.46-.406-.79-.406z"/><path id="h" d="M1054.08 442.231c-.72 0-1.5.687-1.8 1.598-.18.528-.15 1.035.07 1.389.16.247.41.398.7.425a.68.68 0 0 0 .09.004c.33 0 .7-.162 1.03-.455s.6-.699.77-1.141c.2-.542.17-1.057-.07-1.413-.18-.263-.46-.407-.79-.407z"/><path id="i" d="M301.922 906.191c-.725 0-1.502.687-1.807 1.598-.177.529-.149 1.035.077 1.389.157.247.403.398.693.425a.86.86 0 0 0 .093.004c.332 0 .696-.161 1.026-.455s.605-.698.77-1.141c.202-.541.178-1.057-.065-1.413a.92.92 0 0 0-.787-.407z"/><path id="j" d="M639.923 572.584c-.725 0-1.502.687-1.808 1.597-.177.529-.149 1.036.078 1.389.157.248.403.399.693.426a.86.86 0 0 0 .093.004c.331 0 .695-.162 1.026-.455s.605-.699.77-1.141c.201-.542.177-1.057-.065-1.414-.179-.262-.458-.406-.787-.406z"/><path id="k" d="M909.553 376.688c-.724 0-1.501.687-1.807 1.598-.177.529-.149 1.035.078 1.389a.9.9 0 0 0 .692.425.86.86 0 0 0 .094.005c.331 0 .695-.162 1.026-.456s.604-.698.77-1.141c.201-.541.177-1.056-.066-1.413a.92.92 0 0 0-.787-.407z"/><path id="l" d="M964.473 338.424c-.435 0-.901.412-1.085.959-.106.317-.089.621.047.833a.54.54 0 0 0 .416.255c.016.002.034.003.055.003.199 0 .418-.097.616-.273s.363-.419.462-.685c.121-.325.107-.634-.039-.848-.107-.157-.275-.244-.472-.244z"/><path id="m" d="M900.329 340.815c-.725 0-1.502.687-1.807 1.598-.177.529-.149 1.035.077 1.389.157.248.403.399.693.426l.093.004c.332 0 .696-.162 1.026-.456s.605-.698.77-1.141c.202-.541.178-1.056-.065-1.413-.178-.262-.458-.407-.787-.407z"/><path id="n" d="M953.968 385.229c-.725 0-1.502.687-1.808 1.598-.177.529-.149 1.035.078 1.389a.9.9 0 0 0 .692.426l.094.004c.331 0 .695-.162 1.026-.456s.604-.698.77-1.141c.201-.541.177-1.056-.066-1.413a.92.92 0 0 0-.786-.407z"/><path id="o" d="M212.554 807.688c-.725 0-1.502.687-1.808 1.598-.177.529-.149 1.035.078 1.389a.9.9 0 0 0 .692.425.86.86 0 0 0 .094.005c.331 0 .695-.162 1.026-.456s.604-.698.77-1.141c.201-.541.177-1.056-.066-1.413a.92.92 0 0 0-.786-.407z"/><path id="p" d="M162.923 819.304c-.725 0-1.502.687-1.808 1.598-.177.529-.149 1.035.078 1.389a.9.9 0 0 0 .693.425.84.84 0 0 0 .093.005c.331 0 .695-.162 1.026-.456s.605-.698.77-1.141c.201-.541.177-1.056-.065-1.413-.179-.262-.458-.407-.787-.407z"/><path id="q" d="M189.479 835.584c-.725 0-1.502.687-1.808 1.597-.177.529-.149 1.036.078 1.389a.9.9 0 0 0 .693.426.86.86 0 0 0 .093.004c.331 0 .695-.162 1.026-.455s.605-.699.77-1.141c.201-.542.177-1.057-.065-1.414-.179-.262-.458-.406-.787-.406z"/><path id="r" d="M239.126 802c-.425 0-.879.402-1.059.936-.103.309-.087.606.046.813a.53.53 0 0 0 .406.249l.054.002c.194 0 .408-.095.601-.266a1.71 1.71 0 0 0 .451-.668c.117-.318.103-.619-.038-.828a.54.54 0 0 0-.461-.238z"/><path id="s" d="M246.967 816.229c-.724 0-1.501.687-1.807 1.598-.177.529-.149 1.035.078 1.389a.9.9 0 0 0 .692.426l.094.004c.331 0 .695-.162 1.026-.456s.604-.698.77-1.141c.201-.541.177-1.056-.066-1.413a.92.92 0 0 0-.787-.407z"/><path id="t" d="M124.85 912c-.72 0-1.5.687-1.8 1.598-.18.529-.15 1.035.07 1.389.16.247.41.398.7.425a.68.68 0 0 0 .09.004c.33 0 .69-.161 1.02-.455.34-.293.61-.698.78-1.141.2-.541.17-1.057-.07-1.413-.18-.263-.46-.407-.79-.407z"/><path id="u" d="M187.47 879.424c-.43 0-.9.412-1.08.959-.11.317-.09.621.04.833.1.148.25.239.42.255.02.002.03.003.06.003.2 0 .41-.097.61-.273s.36-.419.46-.685c.12-.325.11-.634-.04-.848-.1-.157-.27-.244-.47-.244z"/><path id="v" d="M272.341 676c-.506 0-1.047.478-1.26 1.113-.124.369-.104.722.054.968a.63.63 0 0 0 .483.297.62.62 0 0 0 .065.003c.231 0 .484-.113.715-.318s.421-.486.536-.795c.141-.377.124-.736-.045-.985a.64.64 0 0 0-.548-.283z"/><path id="w" d="M251.833 750c-.505 0-1.046.479-1.259 1.114-.124.368-.104.721.054.968a.63.63 0 0 0 .483.296.62.62 0 0 0 .065.003c.231 0 .484-.113.715-.317s.421-.487.536-.796c.141-.377.124-.736-.045-.985-.124-.182-.319-.283-.549-.283z"/><path id="x" d="M252.25 768.571c-.303 0-.628.288-.756.669-.074.221-.062.432.033.58.065.104.168.167.289.178l.039.002c.139 0 .291-.068.429-.19s.253-.292.322-.478c.084-.226.074-.441-.027-.59-.075-.11-.191-.171-.329-.171z"/><path id="y" d="M192.72 790c-.505 0-1.046.479-1.259 1.114-.124.368-.104.721.054.968a.63.63 0 0 0 .483.296.62.62 0 0 0 .065.003c.231 0 .484-.113.715-.317s.421-.487.536-.796c.141-.377.124-.736-.045-.984-.124-.183-.319-.284-.549-.284z"/><path id="z" d="M209.689 706c-.637 0-1.32.603-1.588 1.403-.155.464-.131.909.068 1.22a.79.79 0 0 0 .609.373.66.66 0 0 0 .082.004c.291 0 .611-.142.9-.4s.531-.613.677-1.002c.176-.475.155-.928-.058-1.241a.81.81 0 0 0-.69-.357z"/><path id="AA" d="M957.266 360c-.854 0-1.77.81-2.13 1.883-.209.624-.176 1.22.091 1.638.185.291.475.469.817.501l.11.005c.39 0 .819-.191 1.209-.537s.713-.823.908-1.345c.237-.638.209-1.245-.077-1.666-.21-.309-.54-.479-.928-.479z"/><path id="AB" d="M920.266 338c-.854 0-1.77.809-2.131 1.883-.208.623-.175 1.22.092 1.637.185.292.475.47.816.502l.11.005c.391 0 .82-.191 1.21-.537a3.42 3.42 0 0 0 .907-1.345c.237-.638.209-1.245-.077-1.666-.21-.309-.539-.479-.927-.479z"/><path id="AC" d="M965.755 358.409c-.512 0-1.062.486-1.278 1.13-.125.374-.105.732.055.982a.64.64 0 0 0 .556.304c.234 0 .492-.114.725-.322a2.04 2.04 0 0 0 .545-.807c.142-.383.125-.747-.046-.999a.65.65 0 0 0-.557-.288z"/><path id="AD" d="M1037.34 404.238c-.51 0-1.05.479-1.26 1.114-.12.368-.1.721.05.968a.63.63 0 0 0 .49.296c.02.002.04.003.06.003.23 0 .49-.113.72-.317s.42-.487.53-.796c.14-.377.13-.736-.04-.984a.65.65 0 0 0-.55-.284z"/><path id="AE" d="M185.39 883.667c-.51 0-1.05.478-1.26 1.113-.13.369-.11.722.05.968a.63.63 0 0 0 .48.297c.02.002.04.003.07.003.23 0 .48-.113.71-.318a1.88 1.88 0 0 0 .54-.795c.14-.377.13-.736-.04-.985a.65.65 0 0 0-.55-.283z"/><path id="AF" d="M192.77 882c-.51 0-1.05.479-1.26 1.114-.12.368-.1.721.05.968a.63.63 0 0 0 .49.296c.02.002.04.003.06.003.23 0 .49-.113.72-.317s.42-.487.53-.796c.14-.377.13-.736-.04-.985-.13-.182-.32-.283-.55-.283z"/><path id="AG" d="M203.24 889.619c-.5 0-1.04.479-1.25 1.114-.13.368-.11.721.05.968a.63.63 0 0 0 .48.296c.02.002.04.003.07.003.23 0 .48-.113.71-.317a2.09 2.09 0 0 0 .54-.796c.14-.377.12-.736-.05-.984a.64.64 0 0 0-.55-.284z"/><path id="AH" d="M193.18 900.571c-.3 0-.62.288-.75.669-.07.221-.06.432.03.58.07.104.17.167.29.178.01.001.03.002.04.002.14 0 .29-.068.43-.19a1.2 1.2 0 0 0 .32-.478c.09-.226.08-.441-.03-.59-.07-.11-.19-.171-.33-.171z"/><path id="AI" d="M912.425 449c-.54 0-1.11.506-1.34 1.177-.13.39-.111.763.059 1.023.12.182.301.294.511.314.02.002.04.003.07.003.24 0 .509-.119.759-.336.24-.216.441-.514.561-.84.15-.399.129-.779-.051-1.041a.66.66 0 0 0-.569-.3z"/><path id="AJ" d="M920.48 360.139c-.53 0-1.11.506-1.33 1.177-.13.389-.11.762.06 1.023.11.182.29.293.51.313.02.002.04.003.06.003.25 0 .52-.119.76-.335s.45-.515.57-.841c.15-.398.13-.778-.05-1.041a.68.68 0 0 0-.58-.299z"/><path id="AK" d="M274.373 830.236c-.31 0-.643.294-.773.683-.076.226-.064.443.033.594.067.106.172.17.296.182l.04.002c.142 0 .297-.07.439-.195a1.25 1.25 0 0 0 .329-.488c.086-.231.076-.452-.028-.604-.076-.112-.196-.174-.336-.174z"/><path id="AL" d="M257.377 847.688c-.186 0-.385.176-.464.409-.045.136-.038.266.02.357.041.063.104.102.178.109.007.001.015.001.024.001.085 0 .178-.042.263-.117s.155-.179.198-.293c.051-.138.045-.271-.017-.362-.046-.067-.117-.104-.202-.104z"/><path id="AM" d="M128.361 903c-.89 0-1.844.844-2.219 1.962-.218.649-.183 1.271.095 1.705a1.11 1.11 0 0 0 .851.523l.114.005c.407 0 .854-.199 1.26-.559s.742-.858.945-1.401c.247-.665.218-1.297-.08-1.735-.219-.322-.562-.5-.966-.5z"/><path id="AN" d="M305.968 790c-.534 0-1.106.506-1.331 1.177-.131.39-.11.763.057 1.023.115.182.296.294.51.314a.7.7 0 0 0 .069.003c.244 0 .512-.119.756-.336s.445-.514.567-.84c.148-.399.131-.779-.048-1.041-.131-.194-.337-.3-.58-.3z"/><path id="AO" d="M1101.42 269c-.54 0-1.11.506-1.33 1.177-.14.39-.11.763.05 1.023.12.183.3.294.51.314a.82.82 0 0 0 .07.003c.25 0 .51-.119.76-.336a2.14 2.14 0 0 0 .56-.84c.15-.399.14-.779-.04-1.041a.68.68 0 0 0-.58-.3z"/><path id="AP" d="M1081.36 274c-.89 0-1.84.843-2.22 1.962-.22.649-.18 1.271.1 1.705a1.1 1.1 0 0 0 .85.523c.03.003.07.005.11.005.41 0 .86-.199 1.26-.559.41-.361.74-.858.95-1.401.24-.665.21-1.298-.08-1.736-.22-.322-.57-.499-.97-.499z"/><path id="AQ" d="M798.361 514c-.89 0-1.844.843-2.22 1.962-.217.649-.182 1.271.096 1.705a1.11 1.11 0 0 0 .85.523l.115.005c.406 0 .854-.199 1.259-.559s.743-.858.946-1.401c.247-.665.218-1.298-.08-1.736a1.13 1.13 0 0 0-.966-.499z"/><path id="AR" d="M223.416 907c-.533 0-1.106.506-1.331 1.177-.131.39-.11.763.057 1.023.115.183.297.294.51.314.021.002.043.003.069.003.244 0 .512-.119.756-.336s.445-.514.567-.84c.148-.399.131-.779-.048-1.041-.131-.194-.337-.3-.58-.3z"/><path id="AS" d="M1099.05 426c-.53 0-1.11.506-1.33 1.177-.13.39-.11.763.05 1.023.12.183.3.294.51.314l.07.003c.25 0 .52-.119.76-.336s.44-.514.57-.84c.14-.399.13-.779-.05-1.041a.68.68 0 0 0-.58-.3z"/><path id="AT" d="M132.355 924.805c-.89 0-1.844.844-2.219 1.962-.218.649-.183 1.271.095 1.706a1.11 1.11 0 0 0 .85.522l.115.005c.407 0 .854-.199 1.26-.559s.742-.858.945-1.401c.247-.665.218-1.297-.08-1.735-.219-.322-.562-.5-.966-.5z"/><path id="AU" d="M265.889 789c-.712 0-1.476.675-1.776 1.569-.174.52-.146 1.017.076 1.365a.89.89 0 0 0 .681.418l.091.004c.326 0 .684-.159 1.008-.448a2.85 2.85 0 0 0 .757-1.12c.197-.532.174-1.038-.065-1.388-.175-.258-.449-.4-.772-.4z"/><path id="AV" d="M1124.88 170.298c-.53 0-1.1.506-1.33 1.177-.13.39-.11.763.06 1.024a.68.68 0 0 0 .51.313c.02.002.04.003.07.003.24 0 .51-.119.75-.335a2.07 2.07 0 0 0 .57-.841c.15-.399.13-.778-.05-1.041a.67.67 0 0 0-.58-.3z"/><path id="AW" d="M261.465 890c-.889 0-1.843.843-2.219 1.962-.217.649-.183 1.271.096 1.705a1.11 1.11 0 0 0 .85.523l.115.005c.406 0 .854-.199 1.259-.559s.743-.858.946-1.401c.247-.665.218-1.298-.08-1.736a1.13 1.13 0 0 0-.967-.499z"/><path id="AX" d="M415.637 848.655c-.534 0-1.106.507-1.331 1.178-.131.389-.11.762.057 1.023.115.182.297.293.51.313.021.002.043.003.069.003.244 0 .512-.119.756-.335a2.14 2.14 0 0 0 .567-.841c.148-.399.131-.778-.048-1.041a.68.68 0 0 0-.58-.3z"/><path id="AY" d="M431.416 809c-.534 0-1.106.506-1.331 1.177-.131.389-.11.762.057 1.023.115.182.296.293.51.313a.7.7 0 0 0 .069.003c.244 0 .512-.119.756-.335a2.14 2.14 0 0 0 .567-.841c.148-.398.131-.778-.048-1.041a.68.68 0 0 0-.58-.299z"/><path id="AZ" d="M1061.64 339.071c-.54 0-1.11.507-1.33 1.178-.14.389-.11.762.05 1.023a.68.68 0 0 0 .51.313.82.82 0 0 0 .07.003c.25 0 .51-.119.76-.335.24-.216.44-.515.56-.841.15-.399.14-.778-.04-1.041a.68.68 0 0 0-.58-.3z"/><path id="Aa" d="M1027.85 258.25c-.65 0-1.35.619-1.63 1.44-.16.477-.13.934.07 1.253.14.222.37.359.63.383a.85.85 0 0 0 .08.004c.3 0 .63-.146.93-.411s.54-.629.69-1.028c.18-.488.16-.953-.06-1.274-.16-.237-.41-.367-.71-.367z"/><path id="Ab" d="M1014.22 267.866c-.39 0-.81.372-.97.864-.1.286-.08.56.04.751a.48.48 0 0 0 .37.23l.05.003c.18 0 .38-.088.56-.247s.33-.377.42-.617c.1-.292.09-.571-.04-.764-.1-.142-.25-.22-.43-.22z"/><path id="Ac" d="M1104.9 144.406c-.39 0-.81.371-.98.864-.1.286-.08.56.04.751a.5.5 0 0 0 .38.23c.01.002.03.003.05.003.18 0 .37-.088.55-.247s.33-.377.42-.617c.11-.293.09-.571-.04-.764-.09-.142-.24-.22-.42-.22z"/><path id="Ad" d="M224.251 849c-.849 0-1.758.804-2.116 1.871-.207.619-.175 1.212.091 1.626.183.29.471.466.811.498l.109.005c.388 0 .814-.19 1.201-.533s.708-.818.902-1.336c.235-.634.207-1.237-.077-1.655-.208-.307-.536-.476-.921-.476z"/><path id="Ae" d="M1146.38 314c-1.28 0-2.64 1.206-3.18 2.806-.31.929-.26 1.818.14 2.44.27.434.71.699 1.22.747.04.005.1.007.16.007.58 0 1.22-.284 1.8-.8s1.06-1.226 1.35-2.004c.36-.95.31-1.855-.11-2.482-.31-.46-.81-.714-1.38-.714z"/><path id="Af" d="M558.254 513c-.853 0-1.76.804-2.12 1.871-.207.619-.173 1.212.093 1.626.18.29.474.466.814.498a.8.8 0 0 0 .106.005c.387 0 .814-.189 1.2-.533a3.4 3.4 0 0 0 .9-1.336c.24-.634.207-1.237-.073-1.655a1.08 1.08 0 0 0-.92-.476z"/><path id="Ag" d="M1116.25 314c-.85 0-1.76.804-2.12 1.871-.2.619-.17 1.212.1 1.626a1.05 1.05 0 0 0 .81.498c.03.004.07.005.11.005.38 0 .81-.189 1.2-.533.38-.344.7-.818.9-1.336.24-.634.2-1.237-.08-1.655-.2-.307-.54-.476-.92-.476z"/><path id="Ah" d="M919.641 296c-.264 0-.547.25-.658.581-.064.193-.054.377.029.505.056.09.146.145.251.155l.034.002c.121 0 .253-.059.374-.166a1.06 1.06 0 0 0 .28-.415c.073-.197.064-.384-.024-.514-.065-.095-.167-.148-.286-.148z"/><path id="Ai" d="M853.699 363c-.263 0-.546.25-.657.581-.065.193-.054.377.028.505a.33.33 0 0 0 .252.155l.034.002c.121 0 .253-.059.373-.166a1.05 1.05 0 0 0 .28-.415c.073-.197.065-.384-.023-.514-.065-.095-.167-.148-.287-.148z"/><path id="Aj" d="M404.733 794c-.653 0-1.354.619-1.629 1.441-.16.476-.134.933.07 1.252.141.222.363.359.624.383.025.003.052.004.084.004.299 0 .627-.146.925-.411s.545-.629.694-1.028c.182-.488.16-.953-.059-1.274-.16-.237-.412-.367-.709-.367z"/><path id="Ak" d="M403.152 749.949c-.286 0-.592.271-.713.631-.07.208-.059.408.031.548.062.097.159.157.273.167.011.002.023.002.037.002.131 0 .274-.064.405-.18a1.14 1.14 0 0 0 .303-.45c.08-.213.07-.417-.025-.557-.071-.104-.181-.161-.311-.161z"/><path id="Al" d="M552.251 602c-.848 0-1.758.804-2.116 1.871-.208.619-.174 1.212.091 1.626.183.29.471.467.811.498l.109.005c.388 0 .814-.189 1.201-.533s.708-.818.902-1.336c.235-.634.208-1.237-.077-1.655-.208-.307-.535-.476-.921-.476z"/><path id="Am" d="M872.915 499.298c-.28 0-.579.264-.697.616-.068.203-.058.399.03.535.06.095.155.154.267.164l.036.002c.127 0 .268-.063.395-.176s.233-.269.297-.44c.078-.208.069-.407-.025-.545-.069-.101-.176-.156-.303-.156z"/><path id="An" d="M990.849 431.317c-.28 0-.579.265-.697.616-.068.204-.057.399.03.536a.35.35 0 0 0 .267.164c.011.001.022.001.036.001.128 0 .268-.062.395-.175a1.11 1.11 0 0 0 .297-.44c.078-.209.069-.407-.025-.545-.069-.101-.176-.157-.303-.157z"/><path id="Ao" d="M379.121 743.002c-.315 0-.653.299-.786.695-.077.23-.065.45.034.604.068.107.175.173.301.185l.041.002c.144 0 .302-.071.446-.198s.263-.304.335-.497c.087-.235.077-.459-.029-.614a.4.4 0 0 0-.342-.177z"/><path id="Ap" d="M361.836 776.803c-.315 0-.653.299-.786.695-.077.23-.065.45.034.604a.39.39 0 0 0 .301.185l.041.002c.144 0 .302-.07.446-.198a1.27 1.27 0 0 0 .335-.496c.087-.236.077-.46-.029-.615a.4.4 0 0 0-.342-.177z"/><path id="Aq" d="M367.502 689c-.189 0-.392.179-.472.417-.046.138-.039.27.02.362.041.065.105.104.181.111.007.001.015.002.024.002.087 0 .182-.043.268-.119s.158-.183.201-.298c.053-.141.046-.276-.017-.369a.24.24 0 0 0-.205-.106z"/><path id="Ar" d="M332.59 718.538c-.189 0-.392.179-.472.417-.046.138-.039.27.02.363.041.064.106.103.181.111l.025.001c.086 0 .181-.043.267-.119a.75.75 0 0 0 .201-.298c.053-.141.047-.276-.017-.369a.24.24 0 0 0-.205-.106z"/><path id="As" d="M345.502 755.484c-.189 0-.392.179-.472.417-.046.138-.039.27.02.362.041.065.105.104.181.111.007.001.015.001.024.001.087 0 .182-.042.268-.119s.158-.182.201-.297c.053-.142.046-.276-.017-.369-.046-.069-.119-.106-.205-.106z"/><path id="At" d="M375.963 782.809c-.189 0-.392.179-.471.417-.047.138-.039.27.02.362.041.065.105.104.181.111.007.001.015.002.024.002.086 0 .181-.043.268-.119s.158-.183.201-.298c.052-.141.046-.276-.017-.369-.047-.068-.12-.106-.206-.106z"/><path id="Au" d="M366.669 665c-.252 0-.523.239-.629.556-.062.184-.052.36.027.483.055.086.14.139.241.148l.033.002c.115 0 .242-.057.357-.159s.21-.243.267-.397c.07-.188.062-.367-.022-.491a.32.32 0 0 0-.274-.142z"/><path id="Av" d="M315.502 724.63c-.189 0-.392.18-.472.417-.046.138-.039.271.02.363.041.064.105.104.181.111.007.001.015.001.024.001.087 0 .182-.042.268-.119s.158-.182.201-.298c.053-.141.046-.275-.017-.368-.046-.069-.119-.107-.205-.107z"/><path id="Aw" d="M335.748 712c-.316 0-.654.299-.786.695-.078.23-.065.45.033.604.068.108.175.173.302.185l.04.002c.144 0 .303-.07.446-.198a1.27 1.27 0 0 0 .335-.496c.088-.236.077-.46-.028-.615a.4.4 0 0 0-.342-.177z"/><path id="Ax" d="M1089.47 433.803c-.32 0-.65.299-.79.695-.07.23-.06.45.04.604.06.108.17.173.3.185.01.001.02.002.04.002.14 0 .3-.07.44-.198a1.2 1.2 0 0 0 .34-.496c.09-.236.08-.46-.03-.615-.08-.114-.2-.177-.34-.177z"/><path id="Ay" d="M730.071 588.701c-.316 0-.654.298-.787.695-.077.23-.064.45.034.604.068.107.175.173.301.185a.52.52 0 0 0 .041.001c.144 0 .303-.07.446-.198s.263-.303.335-.496c.088-.235.077-.459-.028-.615a.4.4 0 0 0-.342-.176z"/><path id="Az" d="M744.38 547c-.316 0-.654.299-.787.695-.077.23-.064.45.034.604.068.108.175.173.302.185l.04.002c.144 0 .303-.07.446-.198a1.27 1.27 0 0 0 .335-.496c.088-.236.077-.46-.028-.615a.4.4 0 0 0-.342-.177z"/><path id="BA" d="M992.48 364.104c-.31 0-.65.299-.78.695-.08.23-.07.451.03.604a.4.4 0 0 0 .3.185c.01.002.03.002.04.002.15 0 .3-.07.45-.198a1.27 1.27 0 0 0 .33-.496c.09-.236.08-.46-.03-.615a.38.38 0 0 0-.34-.177z"/><path id="BB" d="M990.75 310c-.32 0-.66.299-.79.695-.08.23-.06.45.04.604.06.108.17.173.3.185.01.001.02.002.04.002.14 0 .3-.07.44-.198a1.2 1.2 0 0 0 .34-.496c.09-.236.08-.46-.03-.615-.08-.114-.2-.177-.34-.177z"/><path id="BC" d="M280.483 869.104c-.315 0-.653.299-.786.695-.077.23-.065.451.033.604a.39.39 0 0 0 .302.185c.012.002.025.002.04.002.144 0 .303-.07.446-.198a1.26 1.26 0 0 0 .335-.496c.088-.236.077-.46-.028-.615a.4.4 0 0 0-.342-.177z"/><path id="BD" d="M1003.84 405.803c-.32 0-.66.299-.79.695-.08.23-.06.45.03.604.07.108.18.173.31.185.01.001.02.002.04.002.14 0 .3-.07.44-.198a1.2 1.2 0 0 0 .34-.496c.08-.236.07-.46-.03-.615-.08-.114-.2-.177-.34-.177z"/><path id="BE" d="M1049.5 368c-.19 0-.39.179-.47.417-.05.138-.04.27.02.362.04.065.11.104.18.111l.03.002c.08 0 .18-.043.26-.119.09-.077.16-.183.2-.298.06-.141.05-.276-.01-.369-.05-.068-.12-.106-.21-.106z"/><path id="BF" d="M1048.67 344c-.25 0-.52.239-.63.556-.06.184-.05.36.03.483.05.086.14.139.24.148l.03.002c.12 0 .24-.057.36-.159a1.1 1.1 0 0 0 .27-.397c.07-.188.06-.367-.03-.491-.06-.092-.16-.142-.27-.142z"/><path id="BG" d="M1064.84 488.803c-.32 0-.66.299-.79.695-.08.23-.06.45.03.604.07.108.18.173.31.185.01.001.02.002.04.002.14 0 .3-.07.44-.198a1.3 1.3 0 0 0 .34-.496c.08-.236.07-.46-.03-.615-.08-.114-.2-.177-.34-.177z"/><path id="BH" d="M1115.59 430.538c-.19 0-.39.179-.47.417-.05.138-.04.27.02.363a.23.23 0 0 0 .18.111c.01 0 .01.001.02.001.09 0 .19-.043.27-.119a.69.69 0 0 0 .2-.298c.05-.141.05-.276-.01-.369-.05-.068-.12-.106-.21-.106z"/><path id="BI" d="M153.836 856c-.315 0-.653.299-.786.695-.077.23-.065.45.034.604a.39.39 0 0 0 .301.185l.041.002c.144 0 .302-.07.446-.198a1.27 1.27 0 0 0 .335-.496c.087-.236.077-.46-.028-.615-.078-.114-.2-.177-.343-.177z"/><path id="BJ" d="M435.943 776c-.732 0-1.518.694-1.827 1.614-.179.535-.15 1.046.079 1.404.158.25.407.402.7.43a.88.88 0 0 0 .094.004c.335 0 .703-.164 1.037-.46a2.93 2.93 0 0 0 .778-1.153c.203-.547.179-1.068-.066-1.428a.93.93 0 0 0-.795-.411z"/><path id="BK" d="M758.661 399c-.459 0-.951.434-1.144 1.011-.112.334-.094.654.049.878a.57.57 0 0 0 .438.269.53.53 0 0 0 .059.003c.21 0 .44-.102.65-.288s.382-.442.487-.722c.127-.342.112-.668-.042-.894a.58.58 0 0 0-.497-.257z"/></defs></svg>