<svg xmlns="http://www.w3.org/2000/svg" xmlns:xlink="http://www.w3.org/1999/xlink" width="1262" height="1067" fill="none" xmlns:v="https://vecta.io/nano"><style><![CDATA[.B{fill-opacity:.5}.C{fill-opacity:.4}.D{fill:#43b0ff}.E{fill:#0cda6e}.F{fill:#7e2dff}.G{fill:#fbcc5c}.H{fill:#ff6553}.I{fill:#42d689}.J{fill:#fb7c6d}.K{fill:#f0544a}.L{fill:#bf97ff}]]></style><g filter="url(#A)"><path d="M207 836c87-10 193.5-267.5 327.5-316.5s186 133.5 347 49 160-98 215-155.5-184-27.5-130-85 72-67 142.5-146 67.5-83.5 67.5-83.5l-67.5 204 29 54.5-189.5 16s23-51-76-5.5-472 448.5-472 448.5S279.009 680 226 678.5c-24.886-.704-66.5 171-66.5 171S70.288 959.166 87 978c31.5 35.5 216-176.5 216-176.5l112.5 110 21-233" stroke="url(#B)" stroke-width="21"/></g><g style="mix-blend-mode:screen"><path d="M1052.07 186.372c-.58 0-1.19.543-1.43 1.263-.14.418-.12.819.06 1.099.12.195.32.314.55.336.02.002.04.003.07.003.26 0 .55-.128.81-.36s.48-.552.61-.902c.16-.428.14-.836-.05-1.118-.14-.207-.36-.321-.62-.321z" style="mix-blend-mode:screen" class="G"/><g class="E"><path d="M1079.82 166.021c-.58 0-1.19.543-1.43 1.263-.14.418-.12.819.06 1.099a.71.71 0 0 0 .55.336c.02.002.04.003.07.003.26 0 .55-.128.81-.36s.48-.552.61-.902c.16-.428.14-.836-.05-1.118-.14-.207-.36-.321-.62-.321z" style="mix-blend-mode:screen"/><path d="M993.52 318c-.573 0-1.187.543-1.429 1.263-.14.418-.118.819.061 1.099.124.195.319.315.548.336l.074.003c.262 0 .55-.128.811-.36s.479-.552.609-.902c.159-.428.141-.836-.051-1.118a.73.73 0 0 0-.623-.321z" style="mix-blend-mode:screen" class="C"/></g><path d="M1076.86 178.811c-.34 0-.71.326-.86.758-.08.251-.07.491.04.659.08.117.19.189.33.202.01.001.03.002.04.002.16 0 .33-.077.49-.217a1.37 1.37 0 0 0 .37-.541c.09-.257.08-.501-.03-.67a.45.45 0 0 0-.38-.193z" style="mix-blend-mode:screen" class="G"/><path d="M1056.86 189.073c-.34 0-.71.326-.86.758-.08.251-.07.492.04.659.08.118.19.189.33.202.01.002.03.002.04.002.16 0 .33-.077.49-.216a1.37 1.37 0 0 0 .37-.541c.09-.257.08-.502-.03-.671a.45.45 0 0 0-.38-.193z" style="mix-blend-mode:screen" class="C E"/><path d="M1040.99 189.073c-.57 0-1.19.543-1.43 1.264-.14.418-.12.818.06 1.098.13.196.32.315.55.336a.55.55 0 0 0 .07.004c.27 0 .55-.128.82-.36.26-.232.47-.552.6-.903.16-.428.14-.835-.05-1.117-.14-.207-.36-.322-.62-.322z" style="mix-blend-mode:screen" class="F"/><path d="M1036.67 204.473c-.58 0-1.19.543-1.43 1.263-.14.419-.12.819.06 1.099a.71.71 0 0 0 .55.336c.02.002.04.003.07.003.26 0 .55-.128.81-.36s.48-.552.61-.902c.16-.428.14-.835-.05-1.118-.14-.207-.36-.321-.62-.321z" style="mix-blend-mode:screen" class="D"/><path d="M1063.08 202.852c-.35 0-.72.326-.86.758-.09.251-.07.491.04.659a.42.42 0 0 0 .32.202l.05.002c.16 0 .33-.077.49-.216.15-.139.28-.332.36-.542.1-.257.08-.501-.03-.67-.08-.125-.22-.193-.37-.193z" style="mix-blend-mode:screen" class="F"/><path d="M1082.6 177.186c-.57 0-1.18.543-1.43 1.263-.14.419-.11.819.07 1.099.12.195.31.315.54.336l.08.003c.26 0 .55-.128.81-.36s.48-.552.61-.902c.16-.428.14-.835-.05-1.118-.14-.207-.37-.321-.63-.321zM1097.31 149c-.34 0-.71.326-.86.758-.08.251-.07.491.04.659.07.117.19.189.33.202.01.001.03.002.04.002.16 0 .33-.077.49-.216a1.37 1.37 0 0 0 .37-.541c.09-.257.08-.502-.04-.671-.08-.124-.21-.193-.37-.193z" style="mix-blend-mode:screen" class="D B"/><path d="M1188.29 114.56c-.58 0-1.19.544-1.43 1.264-.14.418-.12.819.06 1.098.12.196.32.315.55.337.02.002.04.003.07.003.26 0 .55-.128.81-.36s.48-.552.61-.902c.16-.428.14-.836-.05-1.118-.14-.207-.36-.322-.62-.322z" style="mix-blend-mode:screen" class="G"/><g class="E"><path d="M1195.52 133.418c-.57 0-1.19.543-1.43 1.263-.14.418-.12.819.06 1.099.13.195.32.315.55.336a.82.82 0 0 0 .07.003c.27 0 .55-.128.82-.36.26-.232.47-.552.6-.902.16-.428.14-.836-.05-1.118-.14-.207-.36-.321-.62-.321zm-150.87 206.406c-.57 0-1.18.543-1.43 1.263-.14.418-.11.819.07 1.099.12.195.31.315.54.336l.08.003c.26 0 .55-.128.81-.36s.48-.552.61-.902c.16-.428.14-.836-.05-1.118-.14-.207-.37-.321-.63-.321z" style="mix-blend-mode:screen" class="C"/><path d="M1193.08 97c-.34 0-.71.325-.86.758-.08.251-.07.491.04.659.08.117.19.189.33.202.01.001.03.002.04.002.16 0 .33-.077.49-.217a1.37 1.37 0 0 0 .37-.541c.09-.257.08-.501-.03-.67a.45.45 0 0 0-.38-.193z" style="mix-blend-mode:screen"/><path d="M1182.91 151.418c-.34 0-.71.326-.86.758-.08.251-.07.491.04.659.08.118.19.189.33.202.01.002.03.002.04.002.16 0 .33-.077.49-.216a1.37 1.37 0 0 0 .37-.541c.09-.257.08-.502-.03-.671a.45.45 0 0 0-.38-.193z" style="mix-blend-mode:screen" class="C"/></g><path d="M1130.54 371.715c-.34 0-.71.326-.85.758-.09.251-.07.491.03.659.08.117.2.189.33.202l.05.002c.15 0 .33-.077.48-.216.16-.139.29-.332.37-.542.09-.256.08-.501-.03-.67a.45.45 0 0 0-.38-.193z" style="mix-blend-mode:screen" class="G"/><path d="M1177.21 117.262c-.57 0-1.19.543-1.43 1.264-.14.418-.12.818.06 1.098.13.196.32.315.55.336a.55.55 0 0 0 .07.004c.27 0 .55-.128.82-.36.26-.232.47-.553.61-.903.15-.428.14-.835-.06-1.117-.14-.208-.36-.322-.62-.322zm-137.69 221.211c-.57 0-1.19.543-1.43 1.263-.14.419-.12.819.06 1.099.13.195.32.315.55.336a.82.82 0 0 0 .07.003c.27 0 .55-.128.82-.36.26-.232.47-.552.6-.902.16-.428.14-.835-.05-1.118-.14-.207-.36-.321-.62-.321zm46.41 18.379c-.34 0-.71.326-.86.758-.08.251-.07.491.04.659.07.117.19.189.33.202.01.001.02.002.04.002.16 0 .33-.077.49-.216s.29-.332.36-.542c.1-.257.09-.501-.03-.67a.42.42 0 0 0-.37-.193z" style="mix-blend-mode:screen" class="F"/><path d="M1145.71 377.929c-.46 0-.95.434-1.15 1.011-.11.334-.09.654.05.878a.58.58 0 0 0 .44.269c.02.002.04.003.06.003.21 0 .44-.102.65-.288s.38-.442.49-.722c.12-.342.11-.668-.04-.894-.12-.166-.29-.257-.5-.257zm2.94-13.779c-.35 0-.72.326-.86.758-.09.251-.07.491.04.659.07.118.19.189.32.202l.05.002c.16 0 .33-.077.49-.216a1.46 1.46 0 0 0 .36-.541c.1-.257.08-.502-.03-.671-.09-.124-.22-.193-.37-.193z" style="mix-blend-mode:screen" class="H B"/><g class="D B"><path d="M1198.82 105.375c-.57 0-1.18.543-1.43 1.263-.14.418-.11.819.07 1.099.12.195.31.315.54.336l.08.003c.26 0 .55-.128.81-.36s.48-.552.61-.902c.16-.428.14-.835-.05-1.118-.14-.207-.37-.321-.63-.321z" style="mix-blend-mode:screen"/><path d="M420.124 954.146c-.343 0-.712.326-.857.758-.084.251-.071.491.037.659a.43.43 0 0 0 .328.202l.045.002c.157 0 .33-.077.486-.216a1.38 1.38 0 0 0 .366-.541c.095-.257.084-.502-.031-.671a.44.44 0 0 0-.374-.193z"/></g><g class="L"><use xlink:href="#C" style="mix-blend-mode:multiply"/><use xlink:href="#C" x="-48" y="-16" style="mix-blend-mode:multiply"/></g><g class="E"><use xlink:href="#D" style="mix-blend-mode:multiply" class="C"/><use xlink:href="#E" style="mix-blend-mode:multiply" class="C"/><use xlink:href="#F" style="mix-blend-mode:multiply"/></g><g class="F"><use xlink:href="#C" x="-625" y="123.105" style="mix-blend-mode:multiply"/><use xlink:href="#G" style="mix-blend-mode:multiply"/></g><use xlink:href="#H" style="mix-blend-mode:multiply" class="B D"/><use xlink:href="#I" style="mix-blend-mode:multiply" class="I"/><use xlink:href="#J" style="mix-blend-mode:multiply" class="B D"/><path d="M1145.2 228.96c-.65 0-1.35.619-1.62 1.441-.16.476-.14.933.07 1.252.14.222.36.359.62.383.02.003.05.004.08.004.3 0 .63-.146.93-.411s.54-.629.69-1.028c.18-.488.16-.953-.06-1.274-.16-.237-.41-.367-.71-.367z" style="mix-blend-mode:screen" class="C E"/><use xlink:href="#K" style="mix-blend-mode:screen" class="I"/><g class="E C"><path d="M1154.75 224.341c-.65 0-1.35.619-1.63 1.44-.16.477-.13.933.07 1.252.14.223.36.359.63.383.02.003.05.004.08.004.3 0 .63-.146.92-.41.3-.265.55-.63.7-1.029.18-.488.16-.952-.06-1.274-.16-.236-.41-.366-.71-.366z" style="mix-blend-mode:multiply"/><use xlink:href="#L" style="mix-blend-mode:multiply"/><use xlink:href="#M" style="mix-blend-mode:multiply"/></g><use xlink:href="#N" style="mix-blend-mode:multiply" class="F"/><use xlink:href="#O" style="mix-blend-mode:multiply" class="B J"/><use xlink:href="#K" x="-49.71" y="29.384" style="mix-blend-mode:multiply" class="F"/><g class="D B"><use xlink:href="#H" x="-131" y="-321" style="mix-blend-mode:multiply"/><use xlink:href="#P" style="mix-blend-mode:multiply"/></g><use xlink:href="#Q" style="mix-blend-mode:multiply" class="I"/><use xlink:href="#J" x="121.047" y="-238" style="mix-blend-mode:multiply" class="B D"/><g class="E"><path d="M1157.84 407.96c-.66 0-1.36.619-1.63 1.441-.16.476-.14.933.07 1.252.14.222.36.359.62.383a.78.78 0 0 0 .09.004c.29 0 .62-.146.92-.411s.55-.629.69-1.028c.19-.488.16-.953-.05-1.274-.16-.237-.42-.367-.71-.367z" style="mix-blend-mode:screen"/><use xlink:href="#E" x="197.047" y="-499.866" style="mix-blend-mode:multiply" class="C"/><use xlink:href="#R" style="mix-blend-mode:multiply" class="C"/><path d="M1117.49 445.25c-.66 0-1.36.619-1.63 1.44-.16.477-.14.934.07 1.253.14.222.36.359.62.383l.08.004c.3 0 .63-.146.93-.411s.54-.629.69-1.028c.18-.488.16-.953-.06-1.274a.82.82 0 0 0-.7-.367z" style="mix-blend-mode:multiply" class="C"/></g><path d="M1135.37 414.971c-.66 0-1.36.619-1.63 1.44-.16.477-.14.934.07 1.253.14.222.36.359.62.383l.08.004c.3 0 .63-.146.93-.411s.54-.629.69-1.028c.19-.488.16-.953-.06-1.274a.82.82 0 0 0-.7-.367z" style="mix-blend-mode:multiply" class="L"/><path d="M1058.55 316.475c-.39 0-.81.371-.98.864-.09.286-.08.56.04.751a.5.5 0 0 0 .38.23.34.34 0 0 0 .05.002c.18 0 .37-.087.55-.246a1.57 1.57 0 0 0 .42-.617c.11-.293.1-.571-.04-.764-.09-.142-.24-.22-.42-.22z" style="mix-blend-mode:multiply" class="B J"/><path d="M1163.06 399.88c-.65 0-1.35.62-1.62 1.441-.16.476-.14.933.07 1.252.14.223.36.359.62.383.03.003.05.004.08.004.3 0 .63-.146.93-.41s.54-.63.69-1.029c.18-.488.16-.952-.06-1.274-.16-.236-.41-.367-.71-.367z" style="mix-blend-mode:multiply" class="F"/><g class="D"><path d="M1053.67 281c-.39 0-.81.372-.98.864-.09.286-.08.56.05.752a.47.47 0 0 0 .37.23l.05.002c.18 0 .38-.088.56-.246s.32-.378.41-.618c.11-.292.1-.571-.03-.764-.1-.142-.25-.22-.43-.22z" style="mix-blend-mode:multiply" class="B"/><use xlink:href="#P" x="102" y="213" style="mix-blend-mode:multiply"/></g><path d="M1142.06 445.152c-.39 0-.81.372-.97.864-.1.286-.08.56.04.752.08.133.22.215.37.23l.05.002c.18 0 .38-.088.56-.246a1.46 1.46 0 0 0 .41-.617c.11-.293.1-.572-.03-.765-.1-.142-.25-.22-.43-.22z" style="mix-blend-mode:multiply" class="I"/><g class="E C"><use xlink:href="#S" style="mix-blend-mode:multiply"/><path d="M949.801 349c-.654 0-1.354.619-1.63 1.44-.159.477-.134.934.07 1.253.141.222.363.359.625.383l.084.004c.298 0 .627-.146.924-.411s.546-.629.695-1.028c.181-.488.16-.953-.059-1.274a.83.83 0 0 0-.709-.367z" style="mix-blend-mode:multiply"/></g><use xlink:href="#T" style="mix-blend-mode:multiply" class="I"/><g class="E"><use xlink:href="#T" x="-17" y="116" style="mix-blend-mode:multiply" class="C"/><use xlink:href="#S" x="-16" y="-33" style="mix-blend-mode:multiply" class="C"/><use xlink:href="#U" style="mix-blend-mode:screen"/></g><g class="F"><use xlink:href="#S" x="-35" y="20" style="mix-blend-mode:multiply"/><use xlink:href="#V" style="mix-blend-mode:multiply"/></g><path d="M1123.92 371.475c-.4 0-.82.371-.98.864-.1.286-.08.56.04.751a.5.5 0 0 0 .38.23.34.34 0 0 0 .05.002c.18 0 .37-.087.55-.246a1.57 1.57 0 0 0 .42-.617c.11-.293.09-.571-.04-.764a.49.49 0 0 0-.42-.22z" style="mix-blend-mode:multiply" class="B J"/><use xlink:href="#T" x="-25" y="120" style="mix-blend-mode:multiply" class="F"/><g class="D B"><use xlink:href="#W" style="mix-blend-mode:multiply"/><use xlink:href="#U" x="72" y="-83" style="mix-blend-mode:multiply"/></g><g class="I"><path d="M187.431 830.152c-.392 0-.812.372-.978.864-.095.286-.08.56.042.752a.49.49 0 0 0 .375.23l.05.002c.18 0 .377-.088.555-.246a1.58 1.58 0 0 0 .417-.617c.109-.293.096-.572-.035-.765a.5.5 0 0 0-.426-.22z" style="mix-blend-mode:multiply"/><use xlink:href="#I" x="599.067" y="-167" style="mix-blend-mode:multiply"/></g><path d="M202.04 833c-.392 0-.812.372-.978.864-.096.286-.08.56.042.752a.49.49 0 0 0 .375.23l.05.002c.179 0 .377-.088.555-.246a1.58 1.58 0 0 0 .417-.618c.109-.292.096-.571-.036-.764-.096-.142-.247-.22-.425-.22zm750.067-481c-.392 0-.812.372-.977.864-.096.286-.081.56.042.752a.49.49 0 0 0 .374.23l.051.002c.179 0 .376-.088.555-.246s.327-.378.416-.618c.109-.292.096-.571-.035-.764a.5.5 0 0 0-.426-.22z" style="mix-blend-mode:multiply" class="D B"/><g class="E C"><path d="M879.204 814.96c-.653 0-1.354.619-1.629 1.44-.16.477-.134.934.07 1.253.141.222.363.359.624.383.026.003.052.004.084.004.299 0 .627-.146.925-.411s.545-.629.694-1.028c.182-.488.16-.953-.058-1.274a.83.83 0 0 0-.71-.367z" style="mix-blend-mode:multiply"/><use xlink:href="#E" x="715.047" y="-112" style="mix-blend-mode:multiply"/><use xlink:href="#R" x="518" y="387.866" style="mix-blend-mode:multiply"/><path d="M915.853 795.25c-.654 0-1.354.619-1.63 1.44-.159.477-.134.933.07 1.252.141.223.363.359.625.384l.084.004c.298 0 .627-.146.925-.411a2.62 2.62 0 0 0 .694-1.028c.181-.488.16-.953-.059-1.274a.83.83 0 0 0-.709-.367zm-13.628.616c-.392 0-.813.371-.978.864-.096.286-.08.56.042.751.085.134.218.216.375.23.015.002.031.003.05.003.179 0 .376-.088.555-.247s.327-.377.417-.617c.108-.292.096-.571-.036-.764-.096-.142-.247-.22-.425-.22z" style="mix-blend-mode:multiply"/></g><path d="M281.733 826.971c-.653 0-1.354.619-1.629 1.44-.16.477-.134.933.07 1.252.141.223.363.359.624.384l.084.004c.299 0 .627-.146.925-.411s.545-.629.694-1.028c.182-.488.16-.953-.059-1.274-.16-.237-.412-.367-.709-.367z" style="mix-blend-mode:multiply" class="F"/><path d="M901.917 788.475c-.392 0-.813.371-.978.864-.096.286-.08.56.042.751.085.134.218.216.375.23.015.002.031.002.05.002.179 0 .376-.087.555-.246a1.58 1.58 0 0 0 .417-.617c.108-.293.096-.571-.036-.764-.096-.142-.247-.22-.425-.22z" style="mix-blend-mode:multiply" class="B J"/><path d="M876.432 811.88c-.653 0-1.353.62-1.629 1.441-.16.476-.134.933.07 1.252a.81.81 0 0 0 .624.383c.026.003.052.004.085.004.298 0 .627-.146.924-.41s.545-.63.695-1.029c.181-.488.159-.952-.059-1.274-.161-.236-.413-.367-.71-.367z" style="mix-blend-mode:multiply" class="F"/><path d="M910.232 789.399c-.392 0-.812.371-.978.864-.096.286-.08.56.042.751a.49.49 0 0 0 .375.23c.015.002.031.002.05.002.18 0 .377-.087.555-.246a1.58 1.58 0 0 0 .417-.617c.109-.293.096-.572-.036-.764-.096-.142-.247-.22-.425-.22z" style="mix-blend-mode:multiply" class="B D"/><use xlink:href="#I" x="-50" y="341" style="mix-blend-mode:multiply" class="I"/><use xlink:href="#J" x="715.047" y="-112" style="mix-blend-mode:multiply" class="B D"/><g class="E C"><path d="M974.17 791.167c-.46 0-.953.436-1.147 1.013-.112.336-.094.657.049.881.1.157.256.253.44.27.018.002.036.003.059.003.21 0 .441-.103.651-.289a1.84 1.84 0 0 0 .488-.724c.128-.343.113-.67-.041-.896-.113-.166-.29-.258-.499-.258zm44.34-3.08c-.46 0-.96.435-1.15 1.013-.11.336-.1.657.05.881.1.157.25.253.44.27.02.002.03.003.06.003.21 0 .44-.103.65-.289s.38-.443.49-.724c.12-.343.11-.67-.05-.896-.11-.167-.29-.258-.49-.258zM1011.22 809c-.46 0-.95.436-1.15 1.013-.11.336-.09.657.05.881a.58.58 0 0 0 .44.27c.02.002.04.003.06.003.21 0 .44-.103.65-.289s.38-.443.49-.724c.13-.343.11-.67-.04-.896a.58.58 0 0 0-.5-.258z" style="mix-blend-mode:multiply"/><use xlink:href="#X" style="mix-blend-mode:multiply"/><use xlink:href="#Y" style="mix-blend-mode:multiply"/></g><path d="M999.219 798.271c-.459 0-.952.436-1.146 1.014-.112.335-.094.656.049.881.1.157.256.252.44.27l.059.002c.21 0 .441-.102.651-.289s.383-.443.488-.723c.128-.344.112-.67-.041-.897-.113-.166-.291-.258-.5-.258z" style="mix-blend-mode:multiply" class="F"/><path d="M901.732 309c-.276 0-.572.261-.688.608-.068.201-.057.394.029.529.06.094.154.151.264.162.011.001.022.001.035.001.127 0 .265-.061.391-.173a1.11 1.11 0 0 0 .293-.434c.077-.206.067-.402-.025-.538a.35.35 0 0 0-.299-.155z" style="mix-blend-mode:multiply" class="B J"/><use xlink:href="#X" x="57" y="415" style="mix-blend-mode:multiply" class="F"/><g class="D B"><path d="M1020.18 761c-.27 0-.57.261-.68.608-.07.201-.06.394.03.529a.34.34 0 0 0 .26.162.3.3 0 0 0 .03.001c.13 0 .27-.061.4-.173.12-.112.23-.266.29-.434.07-.206.07-.402-.03-.538-.06-.1-.17-.155-.3-.155z" style="mix-blend-mode:multiply"/><use xlink:href="#Y" x="14" y="-6" style="mix-blend-mode:multiply"/></g><path d="M1003.93 819.507c-.27 0-.57.262-.69.608-.06.202-.05.394.03.529.06.094.16.152.27.162a.3.3 0 0 0 .03.001c.13 0 .27-.061.39-.173a1.15 1.15 0 0 0 .3-.434c.07-.206.06-.402-.03-.538-.07-.1-.17-.155-.3-.155z" style="mix-blend-mode:multiply" class="I"/><path d="M1016.07 777.469c-.28 0-.57.261-.69.608-.07.201-.06.394.03.528.06.094.15.152.26.162.01.001.02.002.04.002.12 0 .26-.062.39-.173.12-.112.23-.266.29-.435.08-.206.07-.402-.02-.537a.36.36 0 0 0-.3-.155z" style="mix-blend-mode:multiply" class="B D"/><g class="H B"><use xlink:href="#Z" style="mix-blend-mode:multiply"/><path d="M1106.85 306c-.72 0-1.5.687-1.8 1.598-.18.529-.15 1.035.07 1.389.16.247.41.398.7.425a.68.68 0 0 0 .09.004c.33 0 .69-.161 1.02-.455.34-.293.61-.698.77-1.141.21-.541.18-1.056-.06-1.413a.93.93 0 0 0-.79-.407z" style="mix-blend-mode:multiply"/></g><path d="M1124.92 313.304c-.72 0-1.5.687-1.8 1.598-.18.529-.15 1.035.07 1.389.16.247.41.398.7.425.02.003.05.005.09.005.33 0 .69-.162 1.02-.456.34-.293.61-.698.77-1.141.21-.541.18-1.056-.06-1.413a.93.93 0 0 0-.79-.407z" style="mix-blend-mode:multiply" class="F"/><g class="D B"><path d="M202.473 732.558c-.435 0-.901.412-1.085.959-.106.317-.089.621.047.833.094.148.242.239.416.255a.45.45 0 0 0 .056.003c.198 0 .417-.097.615-.273s.363-.419.462-.685c.121-.325.107-.634-.039-.848-.107-.157-.274-.244-.472-.244zm9.006-152.974c-.725 0-1.502.687-1.808 1.597-.177.529-.149 1.036.078 1.389.157.248.403.399.693.426a.86.86 0 0 0 .093.004c.331 0 .695-.162 1.026-.455a2.9 2.9 0 0 0 .77-1.141c.201-.542.177-1.057-.065-1.414-.179-.262-.458-.406-.787-.406z" style="mix-blend-mode:multiply"/><use xlink:href="#a" style="mix-blend-mode:multiply"/></g><g class="E C"><path d="M1175.33 285.815c-.73 0-1.5.687-1.81 1.598-.18.529-.15 1.035.08 1.389.16.248.4.399.69.426l.1.004c.33 0 .69-.162 1.02-.456a2.85 2.85 0 0 0 .77-1.141c.2-.541.18-1.056-.06-1.413a.93.93 0 0 0-.79-.407z" style="mix-blend-mode:multiply"/><use xlink:href="#b" style="mix-blend-mode:multiply"/></g><g class="H B"><use xlink:href="#c" style="mix-blend-mode:multiply"/><path d="M1073.85 400c-.72 0-1.5.687-1.81 1.598-.17.529-.14 1.035.08 1.389.16.247.41.398.7.425a.68.68 0 0 0 .09.004c.33 0 .69-.161 1.02-.455.34-.293.61-.698.77-1.141.21-.541.18-1.056-.06-1.413a.93.93 0 0 0-.79-.407z" style="mix-blend-mode:multiply"/></g><use xlink:href="#c" x="-25" y="28.304" style="mix-blend-mode:multiply" class="F"/><g class="D B"><use xlink:href="#d" style="mix-blend-mode:multiply"/><use xlink:href="#e" style="mix-blend-mode:multiply"/></g><g class="E C"><path d="M1036.92 425c-.72 0-1.5.687-1.8 1.598-.18.529-.15 1.035.07 1.389a.92.92 0 0 0 .7.426.91.91 0 0 0 .09.004c.33 0 .69-.162 1.02-.456.34-.293.61-.698.77-1.141.21-.541.18-1.056-.06-1.413a.93.93 0 0 0-.79-.407z" style="mix-blend-mode:multiply"/><use xlink:href="#f" style="mix-blend-mode:multiply"/></g><g class="H B"><use xlink:href="#g" style="mix-blend-mode:multiply"/><path d="M400.446 911.375c-.725 0-1.502.687-1.808 1.598-.177.529-.149 1.036.078 1.389.157.248.403.399.693.426a.86.86 0 0 0 .093.004c.331 0 .696-.162 1.026-.455s.605-.699.77-1.141c.201-.542.177-1.057-.065-1.414-.179-.262-.458-.407-.787-.407z" style="mix-blend-mode:multiply"/></g><use xlink:href="#g" x="-49.63" y="41.616" style="mix-blend-mode:multiply" class="F"/><g class="D"><path d="M443.066 928.8c-.435 0-.901.412-1.085.958-.106.318-.089.621.047.834a.54.54 0 0 0 .416.255c.016.002.034.002.055.002.199 0 .418-.097.616-.273s.363-.419.462-.684c.121-.325.107-.634-.039-.848a.55.55 0 0 0-.472-.244z" style="mix-blend-mode:multiply" class="B"/><use xlink:href="#h" style="mix-blend-mode:screen" opacity=".7"/><path d="M1081.08 437.231c-.72 0-1.5.687-1.8 1.598-.18.528-.15 1.035.07 1.389.16.247.41.398.7.425a.68.68 0 0 0 .09.004c.33 0 .7-.162 1.03-.455s.6-.699.77-1.141c.2-.542.17-1.057-.07-1.413-.18-.263-.46-.407-.79-.407z" style="mix-blend-mode:multiply" class="B"/></g><g class="E"><path d="M328.922 901.191c-.725 0-1.502.687-1.807 1.598-.177.529-.149 1.035.077 1.389.157.247.403.398.693.425a.86.86 0 0 0 .093.004c.332 0 .696-.161 1.026-.455s.605-.698.77-1.141c.202-.541.178-1.057-.065-1.413a.92.92 0 0 0-.787-.407z" style="mix-blend-mode:multiply" class="C"/><path d="M204.377 883c-1.273 0-2.637 1.206-3.175 2.806-.311.929-.262 1.818.137 2.44a1.58 1.58 0 0 0 1.215.746 1.37 1.37 0 0 0 .165.008c.582 0 1.221-.284 1.802-.8s1.061-1.226 1.353-2.004c.353-.95.31-1.855-.116-2.482-.313-.46-.803-.714-1.381-.714z" style="mix-blend-mode:multiply"/></g><g class="H B"><use xlink:href="#c" x="22.63" y="-193.312" style="mix-blend-mode:multiply"/><path d="M1072.92 253c-.72 0-1.5.687-1.8 1.598-.18.529-.15 1.035.07 1.389.16.247.41.398.7.425a.68.68 0 0 0 .09.004c.33 0 .69-.161 1.03-.455.33-.293.6-.698.77-1.141.2-.541.17-1.056-.07-1.413a.93.93 0 0 0-.79-.407z" style="mix-blend-mode:multiply"/></g><use xlink:href="#c" x="45" y="-291.696" style="mix-blend-mode:multiply" class="F"/><g class="D B"><path d="M1084.47 197.424c-.43 0-.9.412-1.08.959-.11.317-.09.621.05.833a.53.53 0 0 0 .41.255c.02.002.04.003.06.003.2 0 .41-.097.61-.273a1.63 1.63 0 0 0 .46-.685c.13-.325.11-.634-.03-.848a.57.57 0 0 0-.48-.244z" style="mix-blend-mode:multiply"/><use xlink:href="#h" x="-148" y="199.811" style="mix-blend-mode:multiply"/><use xlink:href="#e" x="88" y="-410" style="mix-blend-mode:multiply"/></g><g class="E"><path d="M1060.33 209.815c-.73 0-1.5.687-1.81 1.598-.18.529-.15 1.035.08 1.389.16.248.4.399.69.426l.09.004c.34 0 .7-.162 1.03-.456a2.85 2.85 0 0 0 .77-1.141c.2-.541.18-1.056-.06-1.413a.93.93 0 0 0-.79-.407z" style="mix-blend-mode:screen"/><use xlink:href="#f" x="-32" y="-220" style="mix-blend-mode:multiply" class="C"/></g><g class="H B"><path d="M936.553 371.688c-.724 0-1.501.687-1.807 1.598-.177.529-.149 1.035.078 1.389a.9.9 0 0 0 .692.425.86.86 0 0 0 .094.005c.331 0 .695-.162 1.026-.456s.604-.698.77-1.141c.201-.541.177-1.056-.066-1.413a.92.92 0 0 0-.787-.407z" style="mix-blend-mode:multiply"/><use xlink:href="#i" style="mix-blend-mode:multiply"/></g><use xlink:href="#c" x="-22" y="365.304" style="mix-blend-mode:multiply" class="F"/><g class="D B"><use xlink:href="#d" x="419.591" y="-57.146" style="mix-blend-mode:multiply"/><use xlink:href="#h" x="-84" y="206.227" style="mix-blend-mode:multiply"/><use xlink:href="#a" x="-7" y="281" style="mix-blend-mode:multiply"/></g><g class="E C"><use xlink:href="#j" style="mix-blend-mode:multiply"/><use xlink:href="#b" x="722" y="-130" style="mix-blend-mode:multiply"/></g><g class="H B"><path d="M229.554 802.688c-.725 0-1.502.687-1.808 1.598-.177.529-.149 1.035.078 1.389a.9.9 0 0 0 .692.425.86.86 0 0 0 .094.005c.331 0 .695-.162 1.026-.456s.604-.698.77-1.141c.201-.541.177-1.056-.066-1.413a.92.92 0 0 0-.786-.407z" style="mix-blend-mode:multiply"/><use xlink:href="#i" x="-615" y="401" style="mix-blend-mode:multiply"/></g><path d="M189.923 814.304c-.725 0-1.502.687-1.808 1.598-.177.529-.149 1.035.078 1.389a.9.9 0 0 0 .693.425.84.84 0 0 0 .093.005c.331 0 .695-.162 1.026-.456s.605-.698.77-1.141c.201-.541.177-1.056-.065-1.413-.179-.262-.458-.407-.787-.407z" style="mix-blend-mode:multiply" class="F"/><g class="D B"><use xlink:href="#d" x="-195.409" y="343.854" style="mix-blend-mode:multiply"/><path d="M216.479 830.584c-.725 0-1.502.687-1.808 1.597-.177.529-.149 1.036.078 1.389a.9.9 0 0 0 .693.426.86.86 0 0 0 .093.004c.331 0 .695-.162 1.026-.455s.605-.699.77-1.141c.201-.542.177-1.057-.065-1.414-.179-.262-.458-.406-.787-.406z" style="mix-blend-mode:multiply"/><use xlink:href="#a" x="25" y="271" style="mix-blend-mode:multiply"/></g><g class="E C"><use xlink:href="#j" x="-615" y="401" style="mix-blend-mode:multiply"/><path d="M273.967 811.229c-.724 0-1.501.687-1.807 1.598-.177.529-.149 1.035.078 1.389a.9.9 0 0 0 .692.426l.094.004c.331 0 .695-.162 1.026-.456s.604-.698.77-1.141c.201-.541.177-1.056-.066-1.413a.92.92 0 0 0-.787-.407z" style="mix-blend-mode:multiply"/></g><g class="H B"><use xlink:href="#Z" x="-1005" y="711" style="mix-blend-mode:multiply"/><use xlink:href="#k" style="mix-blend-mode:multiply"/></g><use xlink:href="#k" x="710.067" y="-521" style="mix-blend-mode:screen" class="J"/><use xlink:href="#c" x="72" y="-154.696" style="mix-blend-mode:multiply" class="F"/><g class="D B"><use xlink:href="#l" style="mix-blend-mode:multiply"/><use xlink:href="#l" x="750.067" y="-481" style="mix-blend-mode:multiply"/><use xlink:href="#h" x="-9" y="236.811" style="mix-blend-mode:multiply"/><use xlink:href="#h" x="-996.553" y="658.227" style="mix-blend-mode:multiply"/><path d="M1185.86 260.085c-.73 0-1.5.687-1.81 1.598-.18.528-.15 1.035.08 1.389a.89.89 0 0 0 .69.425c.03.003.06.004.09.004.34 0 .7-.162 1.03-.455s.6-.699.77-1.141c.2-.542.18-1.057-.07-1.413-.17-.263-.45-.407-.78-.407z" style="mix-blend-mode:multiply"/></g><g class="E"><path d="M132.927 974c-.73 0-1.5.687-1.81 1.598-.18.529-.151 1.035.079 1.389.16.248.4.399.69.426l.101.004c.33 0 .689-.162 1.019-.456s.611-.698.771-1.141c.2-.541.18-1.056-.06-1.413a.93.93 0 0 0-.79-.407z" style="mix-blend-mode:multiply" class="C"/><path d="M203.97 921.229c-.73 0-1.5.687-1.81 1.598-.18.529-.15 1.035.08 1.389.15.248.4.399.69.426l.09.004c.33 0 .7-.162 1.03-.456s.6-.698.77-1.141c.2-.541.18-1.056-.07-1.413-.17-.262-.45-.407-.78-.407z" style="mix-blend-mode:multiply"/></g><use xlink:href="#m" style="mix-blend-mode:multiply" class="B H"/><use xlink:href="#n" style="mix-blend-mode:multiply" class="B D"/><path d="M280.768 523c-.505 0-1.046.479-1.259 1.114-.124.368-.104.721.054.968a.63.63 0 0 0 .483.296.62.62 0 0 0 .065.003c.231 0 .484-.113.715-.317a2.01 2.01 0 0 0 .536-.796c.141-.377.124-.736-.045-.985-.124-.182-.319-.283-.549-.283zm10.477 7.619c-.505 0-1.047.479-1.26 1.114-.123.368-.104.721.054.968a.63.63 0 0 0 .483.296.62.62 0 0 0 .065.003c.231 0 .485-.113.715-.317a2.03 2.03 0 0 0 .537-.796c.14-.377.123-.736-.046-.984a.64.64 0 0 0-.548-.284z" style="mix-blend-mode:multiply" class="E C"/><use xlink:href="#o" style="mix-blend-mode:multiply" class="B D"/><use xlink:href="#m" x="-65" y="179.134" style="mix-blend-mode:multiply" class="B H"/><g class="D B"><use xlink:href="#n" x="-61.047" y="262" style="mix-blend-mode:multiply"/><use xlink:href="#n" x="-166.047" y="413" style="mix-blend-mode:multiply"/></g><g class="E C"><use xlink:href="#p" style="mix-blend-mode:multiply"/><use xlink:href="#p" x="-105" y="151" style="mix-blend-mode:multiply"/><path d="M226.245 709.753c-.505 0-1.047.479-1.26 1.114-.123.368-.104.721.054.968a.63.63 0 0 0 .483.296.62.62 0 0 0 .065.003c.231 0 .485-.113.715-.317a2.03 2.03 0 0 0 .537-.796c.14-.377.123-.736-.046-.985-.124-.182-.319-.283-.548-.283z" style="mix-blend-mode:multiply"/></g><use xlink:href="#o" x="-65" y="179.134" style="mix-blend-mode:multiply" class="B D"/><path d="M1153.27 107.859c-.86 0-1.77.81-2.13 1.883-.21.624-.18 1.22.09 1.637a1.05 1.05 0 0 0 .81.502l.11.005c.39 0 .82-.191 1.21-.537s.72-.823.91-1.345c.24-.638.21-1.245-.08-1.666-.21-.309-.54-.479-.92-.479z" style="mix-blend-mode:multiply" class="B H"/><path d="M984.266 355c-.854 0-1.77.81-2.13 1.883-.209.624-.176 1.22.091 1.638.185.291.475.469.817.501l.11.005c.39 0 .819-.191 1.209-.537s.713-.823.908-1.345c.237-.638.209-1.245-.077-1.666-.21-.309-.54-.479-.928-.479z" style="mix-blend-mode:multiply" class="B D"/><g class="E"><path d="M1056.27 143c-.86 0-1.77.81-2.13 1.883-.21.624-.18 1.22.09 1.638a1.05 1.05 0 0 0 .81.501l.11.005c.39 0 .82-.191 1.21-.537s.72-.823.91-1.345c.24-.638.21-1.245-.08-1.666-.21-.309-.54-.479-.92-.479z" style="mix-blend-mode:screen" opacity=".2"/><path d="M947.266 333c-.854 0-1.77.809-2.131 1.883-.208.623-.175 1.22.092 1.637.185.292.475.47.816.502l.11.005c.391 0 .82-.191 1.21-.537a3.42 3.42 0 0 0 .907-1.345c.237-.638.209-1.245-.077-1.666-.21-.309-.539-.479-.927-.479z" style="mix-blend-mode:multiply" class="C"/></g><path d="M992.755 353.409c-.512 0-1.062.486-1.278 1.13-.125.374-.105.732.055.982a.64.64 0 0 0 .556.304c.234 0 .492-.114.725-.322a2.04 2.04 0 0 0 .545-.807c.142-.383.125-.747-.046-.999a.65.65 0 0 0-.557-.288z" style="mix-blend-mode:multiply" class="B D"/><use xlink:href="#q" style="mix-blend-mode:multiply" class="B H"/><path d="M1073.39 395.667c-.51 0-1.05.478-1.26 1.113-.13.369-.11.722.05.968a.63.63 0 0 0 .48.297c.02.002.04.003.07.003.23 0 .48-.113.71-.318a1.88 1.88 0 0 0 .54-.795c.14-.377.12-.736-.04-.985a.65.65 0 0 0-.55-.283z" style="mix-blend-mode:multiply" class="B D"/><g class="H B"><use xlink:href="#q" x="-861" y="483" style="mix-blend-mode:multiply"/><use xlink:href="#q" x="-110.933" y="2" style="mix-blend-mode:multiply"/></g><g class="D"><use xlink:href="#r" style="mix-blend-mode:multiply"/><use xlink:href="#r" x="750.068" y="-481" style="mix-blend-mode:multiply" class="B"/></g><g class="E C"><use xlink:href="#s" style="mix-blend-mode:multiply"/><use xlink:href="#s" x="750.067" y="-481" style="mix-blend-mode:multiply"/><path d="M230.24 884.619c-.5 0-1.04.479-1.25 1.114-.13.368-.11.721.05.968a.63.63 0 0 0 .48.296c.02.002.04.003.07.003.23 0 .48-.113.71-.317a2.09 2.09 0 0 0 .54-.796c.14-.377.12-.736-.05-.984a.64.64 0 0 0-.55-.284z" style="mix-blend-mode:multiply"/></g><g class="D B"><use xlink:href="#t" style="mix-blend-mode:multiply"/><use xlink:href="#t" x="750.067" y="-481" style="mix-blend-mode:multiply"/><use xlink:href="#o" x="-46" y="288" style="mix-blend-mode:multiply"/><path d="M336.171 831.344c-.136 0-.282.129-.34.301-.033.099-.028.194.015.261.029.046.075.074.13.079.08.001.148-.029.21-.084s.114-.131.145-.215c.038-.101.033-.198-.012-.265-.034-.049-.086-.077-.148-.077z" style="mix-blend-mode:multiply"/></g><path d="M1020.63 792.498c-.89 0-1.84.844-2.21 1.962-.22.649-.19 1.271.09 1.705.19.304.5.489.85.523l.12.005c.4 0 .85-.199 1.26-.559a3.59 3.59 0 0 0 .94-1.401c.25-.665.22-1.297-.08-1.735-.22-.322-.56-.5-.97-.5zm7.55 25.169c-.89 0-1.84.843-2.21 1.962-.22.649-.19 1.271.09 1.705.19.304.5.489.85.522.04.004.07.005.12.005.4 0 .85-.198 1.26-.559.4-.36.74-.857.94-1.401.25-.664.22-1.297-.08-1.735-.22-.322-.56-.499-.97-.499zm-94.54-460.012c-.54 0-1.11.507-1.33 1.178-.13.389-.11.762.05 1.023a.68.68 0 0 0 .51.313.82.82 0 0 0 .07.003c.25 0 .51-.119.76-.335a2.28 2.28 0 0 0 .57-.841c.14-.399.13-.778-.05-1.041a.68.68 0 0 0-.58-.3zm-14.26 17.199c-.54 0-1.11.506-1.34 1.177-.13.39-.11.763.06 1.023a.68.68 0 0 0 .51.314c.02.002.04.003.07.003.24 0 .51-.119.76-.336a2.14 2.14 0 0 0 .56-.84c.15-.399.13-.779-.05-1.041a.66.66 0 0 0-.57-.3z" style="mix-blend-mode:multiply" class="E C"/><use xlink:href="#u" style="mix-blend-mode:multiply" class="B K"/><g class="D B"><use xlink:href="#v" style="mix-blend-mode:multiply"/><path d="M1023.88 774.88c-.53 0-1.1.506-1.33 1.177-.13.39-.11.763.06 1.024a.68.68 0 0 0 .51.313c.02.002.04.003.07.003.24 0 .51-.119.76-.336a2.14 2.14 0 0 0 .56-.84c.15-.399.13-.778-.05-1.041a.67.67 0 0 0-.58-.3zm-76.4-419.741c-.53 0-1.11.506-1.33 1.177-.13.389-.11.762.06 1.023.11.182.29.293.51.313.02.002.04.003.06.003.25 0 .52-.119.76-.335s.45-.515.57-.841c.15-.398.13-.778-.05-1.041a.68.68 0 0 0-.58-.299z" style="mix-blend-mode:multiply"/></g><g class="E C"><use xlink:href="#w" style="mix-blend-mode:multiply"/><use xlink:href="#x" style="mix-blend-mode:multiply"/><path d="M293.002 837c-.31 0-.642.294-.773.683-.076.226-.064.443.033.594.067.106.172.17.296.182l.04.002c.142 0 .298-.07.439-.195a1.25 1.25 0 0 0 .329-.488c.086-.231.076-.452-.028-.604-.076-.112-.195-.174-.336-.174zm6.682-7.596c-.186 0-.385.177-.463.41-.046.136-.039.266.019.357.041.063.104.102.178.109.007.001.015.001.024.001.085 0 .179-.042.263-.117s.155-.179.198-.293c.051-.138.045-.271-.017-.362-.046-.067-.117-.105-.202-.105z" style="mix-blend-mode:multiply"/></g><path d="M282.631 848.539c-.31 0-.642.294-.773.683-.076.227-.063.443.033.594.067.106.173.171.297.182l.039.002c.142 0 .298-.069.439-.195a1.22 1.22 0 0 0 .329-.488c.086-.231.076-.451-.028-.604-.076-.112-.195-.174-.336-.174zm593.437-28.137c-.247 0-.513.235-.618.546-.06.181-.051.354.027.475.053.085.137.137.237.146.009.001.019.001.032.001.113 0 .237-.055.35-.155s.207-.239.264-.391c.069-.185.061-.361-.022-.483-.061-.09-.157-.139-.27-.139z" style="mix-blend-mode:multiply" class="K B"/><path d="M284.377 842.688c-.186 0-.385.176-.464.409-.045.136-.038.266.02.357.041.063.104.102.178.109.007.001.015.001.024.001.085 0 .178-.042.263-.117s.155-.179.198-.293c.051-.138.045-.271-.017-.362-.046-.067-.117-.104-.202-.104zm594.127-20.587c-.185 0-.385.176-.463.41-.046.136-.038.266.02.356a.23.23 0 0 0 .177.109c.008.001.015.002.024.002.085 0 .179-.042.263-.117s.156-.179.198-.293c.052-.139.046-.271-.017-.363-.045-.067-.117-.104-.202-.104zm-606.682 15.337c-.31 0-.642.294-.773.683-.076.226-.063.443.033.594a.39.39 0 0 0 .297.182l.039.002c.142 0 .298-.069.439-.195a1.22 1.22 0 0 0 .329-.488c.086-.231.076-.451-.028-.604-.076-.112-.195-.174-.336-.174z" style="mix-blend-mode:multiply" class="D B"/><g class="E"><use xlink:href="#x" x="578.236" y="-17.236" style="mix-blend-mode:multiply" class="C"/><use xlink:href="#y" style="mix-blend-mode:multiply" class="C"/><use xlink:href="#y" x="710.067" y="-521" style="mix-blend-mode:screen"/><path d="M146.361 960c-.89 0-1.844.843-2.22 1.962-.217.649-.182 1.271.096 1.705.192.304.494.489.85.522.035.004.071.005.115.005.406 0 .854-.198 1.259-.559a3.58 3.58 0 0 0 .946-1.401c.247-.664.218-1.297-.08-1.735a1.13 1.13 0 0 0-.966-.499zm296.607-85c-.534 0-1.106.506-1.331 1.177-.131.39-.11.763.057 1.023.115.182.296.294.51.314a.7.7 0 0 0 .069.003c.244 0 .512-.119.756-.336s.445-.514.567-.84c.148-.399.131-.779-.048-1.041-.131-.194-.337-.3-.58-.3z" style="mix-blend-mode:multiply" class="C"/></g><use xlink:href="#u" x="107" y="-501" style="mix-blend-mode:screen" class="K"/><g class="D B"><use xlink:href="#v" x="125" y="-570" style="mix-blend-mode:multiply"/><path d="M136.885 904.88c-.534 0-1.107.506-1.332 1.177-.131.39-.11.763.057 1.024.116.182.297.293.51.313.021.002.043.003.069.003.244 0 .513-.119.756-.336s.446-.514.567-.84c.149-.399.131-.778-.048-1.041a.68.68 0 0 0-.579-.3z" style="mix-blend-mode:multiply"/><use xlink:href="#z" style="mix-blend-mode:multiply"/></g><path d="M1127.47 153c-.89 0-1.85.843-2.22 1.962-.22.649-.19 1.271.09 1.705.19.304.5.489.85.522.04.004.07.006.12.006.4 0 .85-.199 1.26-.559a3.59 3.59 0 0 0 .94-1.401c.25-.665.22-1.298-.08-1.735-.22-.323-.56-.5-.96-.5z" style="mix-blend-mode:multiply" class="C E"/><g class="G"><use xlink:href="#v" x="108" y="-655" style="mix-blend-mode:screen"/><use xlink:href="#v" x="97" y="-558" style="mix-blend-mode:screen"/><use xlink:href="#AA"/><use xlink:href="#AA" x="131" y="-43.771"/><use xlink:href="#AA" x="148" y="-14.771"/><use xlink:href="#AA" x="-158.047" y="-21.771"/><use xlink:href="#AB" style="mix-blend-mode:screen"/><use xlink:href="#AB" x="12" y="-13" style="mix-blend-mode:screen"/><use xlink:href="#AA" x="3" y="-461.637"/><use xlink:href="#AC"/><use xlink:href="#AC" x="-22" y="9"/><use xlink:href="#AC" x="-75" y="229.134"/></g><g class="E"><use xlink:href="#z" x="21" y="-66.582" style="mix-blend-mode:multiply" class="C"/><path d="M1126.99 390c-.89 0-1.84.843-2.22 1.962-.21.649-.18 1.271.1 1.705a1.1 1.1 0 0 0 .85.523c.03.003.07.005.11.005.41 0 .86-.199 1.26-.559.41-.361.75-.858.95-1.401.25-.665.22-1.298-.08-1.736-.22-.322-.56-.499-.97-.499z" style="mix-blend-mode:multiply" class="C"/><use xlink:href="#AD" style="mix-blend-mode:multiply"/><use xlink:href="#AD" x="1" y="54" style="mix-blend-mode:multiply" class="C"/></g><use xlink:href="#AD" x="-315" y="117" style="mix-blend-mode:multiply" class="I"/><g class="K B"><use xlink:href="#AE" style="mix-blend-mode:multiply"/><use xlink:href="#AF" style="mix-blend-mode:multiply"/></g><g class="D B"><use xlink:href="#AA" x="124" y="-24.771" style="mix-blend-mode:multiply"/><use xlink:href="#AG" style="mix-blend-mode:multiply"/><path d="M130.313 896c-.89 0-1.843.843-2.219 1.962-.217.649-.182 1.271.096 1.705a1.11 1.11 0 0 0 .85.523l.115.005c.406 0 .854-.199 1.259-.559s.743-.858.946-1.401c.247-.665.218-1.298-.08-1.736-.219-.322-.563-.499-.967-.499z" style="mix-blend-mode:multiply"/></g><g class="E C"><use xlink:href="#w" x="-707" y="142" style="mix-blend-mode:multiply"/><use xlink:href="#AD" x="-71" y="15" style="mix-blend-mode:multiply"/><use xlink:href="#AD" x="27" y="22" style="mix-blend-mode:multiply"/><path d="M482.637 843.655c-.534 0-1.106.507-1.331 1.178-.131.389-.11.762.057 1.023.115.182.297.293.51.313.021.002.043.003.069.003.244 0 .512-.119.756-.335a2.14 2.14 0 0 0 .567-.841c.148-.399.131-.778-.048-1.041a.68.68 0 0 0-.58-.3z" style="mix-blend-mode:multiply"/><use xlink:href="#AA" x="213" y="-85.771" style="mix-blend-mode:multiply"/></g><g class="K B"><use xlink:href="#AE" x="77.006" y="14.195" style="mix-blend-mode:multiply"/><use xlink:href="#AF" x="17" y="-80" style="mix-blend-mode:multiply"/></g><g class="D"><use xlink:href="#AA" x="98" y="-131.771" style="mix-blend-mode:multiply" class="B"/><use xlink:href="#AA" x="165" y="-103.771" style="mix-blend-mode:multiply" class="B"/><path d="M496.48 841.139c-.534 0-1.106.506-1.331 1.177-.131.389-.11.762.057 1.023.115.182.296.293.51.313a.7.7 0 0 0 .069.003c.244 0 .512-.119.756-.335a2.14 2.14 0 0 0 .567-.841c.148-.398.131-.778-.048-1.041a.68.68 0 0 0-.58-.299z" style="mix-blend-mode:multiply" class="B"/><use xlink:href="#AD" x="-57" y="9" style="mix-blend-mode:multiply"/></g><g class="E C"><use xlink:href="#w" x="-579" y="65" style="mix-blend-mode:multiply"/><use xlink:href="#z" x="-69" y="56.416" style="mix-blend-mode:multiply"/><use xlink:href="#AH" style="mix-blend-mode:multiply"/></g><g class="K B"><use xlink:href="#z" x="-72" y="72.416" style="mix-blend-mode:multiply"/><use xlink:href="#AF" x="129.843" y="-30.539" style="mix-blend-mode:multiply"/></g><g class="D B"><path d="M1022.62 335.6c-.53 0-1.1.506-1.33 1.177-.13.389-.11.762.06 1.023.11.182.3.293.51.313.02.002.04.003.07.003.24 0 .51-.119.75-.335.25-.216.45-.515.57-.841.15-.398.13-.778-.05-1.041-.13-.193-.33-.299-.58-.299z" style="mix-blend-mode:multiply"/><use xlink:href="#AG" x="-95" y="154.998" style="mix-blend-mode:multiply"/><path d="M1108.48 321.555c-.53 0-1.11.506-1.33 1.177-.13.389-.11.762.06 1.023.11.182.29.293.51.313.02.002.04.003.07.003.24 0 .51-.119.75-.335.25-.216.45-.515.57-.841.15-.398.13-.778-.05-1.041a.68.68 0 0 0-.58-.299z" style="mix-blend-mode:multiply"/><use xlink:href="#AD" x="136.843" y="47.461" style="mix-blend-mode:multiply"/></g><g class="E"><path d="M1068.73 177c-.65 0-1.35.619-1.63 1.441-.16.476-.13.933.07 1.252.14.222.37.359.63.383.02.003.05.004.08.004.3 0 .63-.146.93-.411s.54-.629.69-1.028c.18-.488.16-.953-.06-1.274-.16-.237-.41-.367-.71-.367z" style="mix-blend-mode:screen" opacity=".2"/><use xlink:href="#K" x="-115" y="-46" style="mix-blend-mode:screen" opacity=".2"/><path d="M1105.95 141c-.65 0-1.35.619-1.63 1.44-.16.477-.13.933.07 1.252a.84.84 0 0 0 .63.383c.02.003.05.004.08.004.3 0 .63-.146.93-.41s.54-.63.69-1.029c.18-.488.16-.952-.06-1.274-.16-.236-.41-.366-.71-.366z" style="mix-blend-mode:screen"/><use xlink:href="#N" x="-79.88" y="12.279" style="mix-blend-mode:multiply" class="C"/><use xlink:href="#AI" style="mix-blend-mode:multiply" class="C"/></g><use xlink:href="#N" x="-96" y="-57" style="mix-blend-mode:multiply" class="F"/><path d="M1040.92 246.475c-.39 0-.82.371-.98.864-.1.286-.08.56.04.751a.5.5 0 0 0 .38.23c.01.002.03.003.05.003.18 0 .37-.088.55-.247a1.57 1.57 0 0 0 .42-.617c.11-.293.09-.571-.04-.764-.09-.142-.24-.22-.42-.22z" style="mix-blend-mode:multiply" class="B J"/><use xlink:href="#K" x="-124.71" y="-17.616" style="mix-blend-mode:multiply" class="F"/><path d="M1137.75 116c-.39 0-.81.372-.98.864-.09.286-.08.56.04.752a.5.5 0 0 0 .38.229c.01.002.03.003.05.003.18 0 .38-.088.55-.246.18-.159.33-.378.42-.618.11-.292.1-.571-.03-.764-.1-.142-.25-.22-.43-.22zm-88.52 131.399c-.39 0-.81.371-.98.864-.09.286-.08.56.05.751a.47.47 0 0 0 .37.23.42.42 0 0 0 .05.002c.18 0 .38-.087.56-.246s.32-.378.41-.617c.11-.293.1-.571-.03-.764-.1-.142-.25-.22-.43-.22z" style="mix-blend-mode:multiply" class="D B"/><use xlink:href="#Q" x="-145" y="14" style="mix-blend-mode:multiply" class="I"/><use xlink:href="#AJ" style="mix-blend-mode:multiply" class="B D"/><path d="M1052.81 295c-1.06 0-2.19 1.006-2.64 2.339-.26.774-.22 1.514.11 2.032.23.362.59.583 1.02.623.04.004.08.006.13.006.49 0 1.02-.237 1.5-.666.49-.43.89-1.023 1.13-1.671.3-.792.26-1.546-.09-2.068-.27-.384-.67-.595-1.16-.595z" style="mix-blend-mode:screen" class="E"/><path d="M252.377 844c-1.273 0-2.638 1.206-3.175 2.806-.311.929-.261 1.818.136 2.44.276.434.708.699 1.217.746a1.58 1.58 0 0 0 .164.008c.581 0 1.222-.284 1.802-.8s1.062-1.226 1.352-2.004c.354-.95.312-1.855-.114-2.482a1.62 1.62 0 0 0-1.382-.714z" class="I"/><g class="E C"><use xlink:href="#AK" style="mix-blend-mode:screen"/><use xlink:href="#AK" x="-907.999" y="569"/></g><path d="M1114.38 238c-1.28 0-2.64 1.206-3.18 2.806-.31.929-.26 1.818.14 2.44.27.434.71.699 1.22.747.04.005.1.007.16.007.58 0 1.22-.284 1.8-.8s1.06-1.226 1.35-2.004c.36-.95.32-1.855-.11-2.482-.31-.46-.8-.714-1.38-.714z" style="mix-blend-mode:screen" class="I"/><g class="E"><use xlink:href="#AK" x="-13" y="49" style="mix-blend-mode:screen" class="C"/><use xlink:href="#AK" x="-948.999" y="495"/></g><use xlink:href="#AK" x="-29" y="-24" style="mix-blend-mode:screen" class="F"/><path d="M290.502 567c-1.697 0-3.517 1.609-4.232 3.742-.415 1.238-.349 2.424.181 3.252.367.579.943.933 1.622.996.066.007.135.01.219.01.776 0 1.629-.379 2.402-1.066s1.416-1.636 1.804-2.672c.471-1.268.415-2.474-.153-3.309-.418-.615-1.072-.953-1.843-.953z" class="B H"/><g class="D B"><path d="M319.628 526c-2.122 0-4.396 2.011-5.291 4.677-.518 1.548-.436 3.03.227 4.066a2.65 2.65 0 0 0 2.028 1.245c.082.008.168.012.273.012.969 0 2.036-.474 3.003-1.333s1.77-2.044 2.254-3.34c.589-1.584.519-3.092-.191-4.136-.522-.768-1.34-1.191-2.303-1.191z"/><use xlink:href="#AK" x="-8" y="97" style="mix-blend-mode:screen"/></g><g class="E C"><path d="M946.641 291c-.264 0-.547.25-.658.581-.064.193-.054.377.029.505.056.09.146.145.251.155l.034.002c.121 0 .253-.059.374-.166a1.06 1.06 0 0 0 .28-.415c.073-.197.064-.384-.024-.514-.065-.095-.167-.148-.286-.148z" style="mix-blend-mode:screen"/><use xlink:href="#AL" style="mix-blend-mode:screen"/></g><use xlink:href="#AL" x="56" y="-61.408" style="mix-blend-mode:screen" class="B D"/><g class="G"><use xlink:href="#AL" x="59" y="-54" style="mix-blend-mode:screen"/><use xlink:href="#AL" x="-22" y="-5" style="mix-blend-mode:screen"/></g><path d="M1061.81 382c-1.06 0-2.19 1.006-2.64 2.339-.26.774-.22 1.515.11 2.033a1.33 1.33 0 0 0 1.02.622c.04.004.08.006.13.006.49 0 1.02-.237 1.5-.667a4.17 4.17 0 0 0 1.13-1.67c.3-.792.26-1.546-.09-2.068-.27-.384-.67-.595-1.16-.595z" style="mix-blend-mode:screen" class="D"/><path d="M428.248 761c-.847 0-1.756.855-2.113 1.99-.207.658-.174 1.289.09 1.729.184.308.471.496.81.53l.11.005c.387 0 .813-.202 1.199-.567a3.63 3.63 0 0 0 .901-1.421c.235-.674.207-1.315-.077-1.759a1.06 1.06 0 0 0-.92-.507z" style="mix-blend-mode:multiply" class="L"/><path d="M385.248 803.403c-.847 0-1.756.685-2.113 1.592-.207.527-.174 1.031.09 1.384.184.246.471.396.81.423l.11.005c.387 0 .813-.162 1.199-.454s.707-.696.901-1.137c.235-.539.207-1.052-.077-1.408-.208-.261-.535-.405-.92-.405z" style="mix-blend-mode:multiply" class="B D"/><g class="E"><use xlink:href="#D" x="47" y="340.866" style="mix-blend-mode:multiply" class="C"/><use xlink:href="#E" x="168.047" y="-93" style="mix-blend-mode:multiply"/><use xlink:href="#F" x="168.047" y="-93" style="mix-blend-mode:multiply" class="C"/><use xlink:href="#L" x="37" y="145" style="mix-blend-mode:multiply" class="C"/><use xlink:href="#M" x="37" y="145" style="mix-blend-mode:multiply" class="C"/></g><use xlink:href="#C" x="-578" y="463.971" style="mix-blend-mode:multiply" class="F"/><use xlink:href="#O" x="-25" y="175" style="mix-blend-mode:multiply" class="B J"/><use xlink:href="#G" x="47" y="340.866" style="mix-blend-mode:multiply" class="F"/><g class="D B"><use xlink:href="#H" x="-146" y="-146" style="mix-blend-mode:multiply"/><use xlink:href="#P" x="37" y="145" style="mix-blend-mode:multiply"/></g><use xlink:href="#I" x="-10" y="360" style="mix-blend-mode:multiply" class="I"/><use xlink:href="#J" x="168.047" y="-93" style="mix-blend-mode:multiply" class="B D"/><g class="E"><path d="M897.204 344.96c-.653 0-1.354.619-1.629 1.441-.16.476-.134.933.07 1.252.141.222.363.359.624.383.026.003.052.004.084.004.299 0 .627-.146.925-.411s.545-.629.694-1.028c.182-.488.16-.953-.058-1.274a.83.83 0 0 0-.71-.367z" style="mix-blend-mode:multiply" class="C"/><use xlink:href="#C" x="72" y="-82" style="mix-blend-mode:multiply" class="C"/><use xlink:href="#R" x="526" y="-92.134" style="mix-blend-mode:multiply" class="C"/><use xlink:href="#V" x="9.052" y="-53.75" style="mix-blend-mode:screen"/><use xlink:href="#AI" x="78" y="-131" style="mix-blend-mode:screen" opacity=".2"/></g><use xlink:href="#C" x="-13" y="-25.029" style="mix-blend-mode:multiply" class="F"/><path d="M1118.92 115.475c-.39 0-.82.371-.98.864-.1.286-.08.56.04.751a.5.5 0 0 0 .38.23.34.34 0 0 0 .05.002c.18 0 .37-.087.55-.246a1.57 1.57 0 0 0 .42-.617c.11-.293.09-.571-.04-.764-.09-.142-.24-.22-.42-.22z" style="mix-blend-mode:multiply" class="B J"/><use xlink:href="#N" x="-38" y="-118.971" style="mix-blend-mode:multiply" class="F"/><use xlink:href="#W" x="-45.22" y="-120" style="mix-blend-mode:multiply" class="B D"/><path d="M979.04 359c-.392 0-.812.372-.978.864-.096.286-.08.56.042.752a.49.49 0 0 0 .375.23l.05.002c.18 0 .377-.088.555-.246s.327-.378.417-.618c.109-.292.096-.571-.036-.764-.096-.142-.247-.22-.425-.22z" style="mix-blend-mode:multiply" class="I"/><use xlink:href="#AJ" x="-22.22" y="-15" style="mix-blend-mode:multiply" class="B D"/><path d="M425.716 757.08c-.477 0-.988.451-1.189 1.05-.116.348-.098.681.051.914.103.162.265.262.456.279.018.002.038.003.061.003.218 0 .457-.106.675-.299a1.92 1.92 0 0 0 .506-.751c.132-.356.117-.694-.043-.929-.117-.172-.301-.267-.517-.267zm4.436-12.131c-.286 0-.592.271-.713.631-.07.208-.059.408.031.548.062.097.159.157.273.167.011.002.023.002.037.002.131 0 .274-.064.405-.18a1.14 1.14 0 0 0 .303-.45c.08-.213.07-.417-.025-.557-.071-.104-.181-.161-.311-.161z" style="mix-blend-mode:multiply" class="E C"/><path d="M423.188 746.072c-.286 0-.592.271-.713.631-.07.208-.058.408.031.548a.36.36 0 0 0 .273.168.42.42 0 0 0 .037.001c.131 0 .274-.064.405-.179a1.16 1.16 0 0 0 .304-.451c.079-.213.069-.416-.026-.557-.071-.104-.181-.161-.311-.161z" style="mix-blend-mode:multiply" class="B D"/><use xlink:href="#AH" x="36.78" y="-157.653" style="mix-blend-mode:screen" class="G"/><path d="M255.729 610c-2.536 0-5.256 2.404-6.326 5.592-.62 1.851-.521 3.623.272 4.862a3.16 3.16 0 0 0 2.751 1.503c1.159 0 2.434-.566 3.59-1.594s2.117-2.444 2.696-3.993c.704-1.895.621-3.698-.229-4.946-.624-.918-1.601-1.424-2.754-1.424z" class="C E"/><path d="M1082.38 402c-1.28 0-2.64 1.206-3.18 2.806-.31.929-.26 1.818.14 2.44a1.58 1.58 0 0 0 1.22.746c.04.005.1.008.16.008.58 0 1.22-.284 1.8-.8s1.06-1.226 1.35-2.004c.36-.95.32-1.855-.11-2.481-.31-.461-.8-.715-1.38-.715z" style="mix-blend-mode:screen" class="G"/><path d="M987.815 401c-1.06 0-2.2 1.006-2.645 2.339-.26.774-.22 1.515.11 2.033.23.361.59.582 1.015.622a1.37 1.37 0 0 0 .135.006c.485 0 1.02-.237 1.505-.667s.885-1.022 1.125-1.67c.295-.792.26-1.545-.095-2.067-.26-.384-.67-.596-1.15-.596z" style="mix-blend-mode:screen" class="D"/><path d="M960.037 359c-1.521 0-3.153 1.443-3.795 3.355-.372 1.111-.313 2.174.163 2.917.329.519.845.837 1.454.893a1.9 1.9 0 0 0 .196.009c.696 0 1.461-.34 2.155-.956s1.27-1.467 1.617-2.396c.423-1.137.373-2.219-.137-2.968-.374-.551-.961-.854-1.653-.854z" style="mix-blend-mode:screen" class="I"/><path d="M1053.25 424c-.28 0-.58.265-.7.616-.07.204-.06.399.03.536a.36.36 0 0 0 .27.164.3.3 0 0 0 .03.001c.13 0 .27-.062.4-.175s.23-.27.3-.44c.07-.209.07-.408-.03-.545-.07-.101-.17-.157-.3-.157z" style="mix-blend-mode:screen" class="G"/><path d="M1107.41 399.298c-.28 0-.57.264-.69.616-.07.203-.06.399.03.535.06.095.15.154.26.164l.04.002c.13 0 .27-.063.4-.176.12-.113.23-.269.29-.44.08-.208.07-.407-.02-.545-.07-.101-.18-.156-.31-.156zm-59.17 34.185c-.27 0-.57.265-.69.616-.07.204-.06.399.03.536.06.095.15.153.26.163.02.002.03.002.04.002.13 0 .27-.062.4-.175a1.16 1.16 0 0 0 .29-.44c.08-.209.07-.408-.02-.545-.07-.101-.18-.157-.31-.157z" style="mix-blend-mode:screen" class="E C"/><path d="M1101.59 391.395c-.17 0-.35.159-.42.37-.04.122-.04.239.02.321.03.057.09.092.16.098 0 .001.01.001.02.001.08 0 .16-.037.24-.105a.64.64 0 0 0 .17-.264c.05-.125.05-.244-.01-.327-.04-.06-.11-.094-.18-.094z" style="mix-blend-mode:screen" class="G"/><path d="M1101.59 401.273c-.17 0-.35.159-.42.37-.04.122-.04.239.02.321.03.057.09.092.16.098 0 .001.01.001.02.001.08 0 .16-.037.24-.105.07-.068.14-.161.17-.264.05-.125.05-.244-.01-.327-.04-.06-.11-.094-.18-.094z" style="mix-blend-mode:screen" class="C E"/><path d="M1047.85 425.317c-.28 0-.58.265-.7.616-.07.204-.05.399.03.536a.36.36 0 0 0 .27.164c.01.001.02.001.04.001.12 0 .26-.062.39-.175s.23-.27.3-.44c.08-.209.07-.407-.03-.545-.07-.101-.17-.157-.3-.157zm-2.11 7.507c-.28 0-.58.265-.7.616-.06.204-.05.4.03.536a.36.36 0 0 0 .27.164c.01.001.02.002.04.002.12 0 .27-.063.39-.176a1.06 1.06 0 0 0 .3-.44c.08-.209.07-.407-.03-.545-.06-.101-.17-.157-.3-.157zm58.88-24.834c-.17 0-.35.159-.42.37-.04.122-.04.239.02.321.03.057.09.092.16.099a.36.36 0 0 0 .25-.105c.08-.068.14-.161.18-.264.05-.125.04-.244-.01-.327-.04-.06-.11-.094-.18-.094z" style="mix-blend-mode:screen" class="F"/><path d="M1104.38 395.478c-.27 0-.57.265-.69.616-.07.204-.06.399.03.536a.34.34 0 0 0 .27.163c.01.002.02.002.03.002.13 0 .27-.062.4-.175a1.16 1.16 0 0 0 .29-.44c.08-.209.07-.408-.02-.545-.07-.101-.18-.157-.31-.157zm11.56-4.478c-.17 0-.35.159-.42.37-.04.122-.03.239.02.321.04.057.1.092.16.098a.23.23 0 0 0 .02.001c.08 0 .16-.037.24-.105a.66.66 0 0 0 .18-.264c.05-.125.04-.244-.02-.327-.04-.061-.1-.094-.18-.094z" style="mix-blend-mode:screen" class="D B"/><path d="M354.483 611.104c-.315 0-.653.299-.786.695-.077.23-.065.451.033.604.069.108.176.174.302.185.012.002.025.002.04.002.144 0 .303-.07.446-.198a1.25 1.25 0 0 0 .335-.496c.088-.236.078-.46-.028-.615a.4.4 0 0 0-.342-.177z" class="G"/><g class="E C"><use xlink:href="#AM"/><use xlink:href="#AN"/></g><use xlink:href="#AO" class="G"/><use xlink:href="#AP" class="C E"/><use xlink:href="#AQ" class="G"/><g class="F"><use xlink:href="#AN" x="-12" y="-49.803"/><path d="M348.438 598.701c-.315 0-.653.298-.786.695-.077.23-.064.45.034.604.068.107.175.173.301.185a.52.52 0 0 0 .041.001c.144 0 .302-.07.446-.198s.263-.303.335-.496c.088-.235.077-.459-.028-.615a.4.4 0 0 0-.343-.176z"/><use xlink:href="#AR"/></g><g class="H B"><use xlink:href="#AS"/><use xlink:href="#AT"/></g><g class="D B"><use xlink:href="#AU"/><use xlink:href="#AO" x="18.815" y="67"/></g><path d="M1122.12 418.104c-.32 0-.66.299-.79.695-.08.23-.07.451.03.604a.4.4 0 0 0 .3.185c.02.002.03.002.04.002.15 0 .31-.07.45-.198s.26-.304.34-.496c.08-.236.07-.46-.03-.615-.08-.114-.2-.177-.34-.177z" style="mix-blend-mode:screen" class="G"/><g class="E C"><path d="M1143.75 395.002c-.31 0-.65.299-.78.695-.08.23-.07.45.03.604.07.108.18.173.3.185.01.001.03.002.04.002a.69.69 0 0 0 .45-.198c.14-.128.26-.304.33-.497.09-.235.08-.459-.02-.614a.41.41 0 0 0-.35-.177z" style="mix-blend-mode:screen"/><use xlink:href="#AV" style="mix-blend-mode:screen"/><path d="M1127.22 370.538c-.19 0-.39.179-.47.417-.05.138-.04.27.02.363.04.064.11.103.18.111l.03.001c.08 0 .18-.043.26-.119a.69.69 0 0 0 .2-.298c.06-.141.05-.276-.01-.369-.05-.068-.12-.106-.21-.106z" style="mix-blend-mode:screen"/></g><use xlink:href="#AV" x="28" y="-49.803" style="mix-blend-mode:screen" class="F"/><path d="M1116.07 405.701c-.31 0-.65.298-.79.695-.07.23-.06.45.04.604a.39.39 0 0 0 .3.185c.01.001.02.001.04.001.14 0 .3-.07.45-.198.14-.127.26-.303.33-.496.09-.235.08-.459-.03-.615-.07-.114-.2-.176-.34-.176zm14.53-.892c-.19 0-.4.179-.48.417-.04.138-.03.27.02.362a.26.26 0 0 0 .19.111c0 .001.01.002.02.002.09 0 .18-.043.27-.119a.8.8 0 0 0 .2-.298c.05-.141.04-.276-.02-.369-.05-.068-.12-.106-.2-.106z" style="mix-blend-mode:screen" class="L"/><g class="H B"><path d="M1071.3 287c-.25 0-.52.239-.63.556-.06.184-.05.36.03.483.05.086.14.139.24.148l.03.002c.12 0 .25-.057.36-.159a.99.99 0 0 0 .27-.397c.07-.188.06-.367-.02-.491-.07-.092-.16-.142-.28-.142z" style="mix-blend-mode:screen"/><use xlink:href="#AT" x="263.041" y="-219.854"/></g><path d="M1130.38 364c-.32 0-.65.299-.79.695-.07.23-.06.45.04.604.07.108.17.173.3.185.01.001.02.002.04.002.14 0 .3-.07.45-.198a1.28 1.28 0 0 0 .33-.496c.09-.236.08-.46-.03-.615-.08-.114-.2-.177-.34-.177z" style="mix-blend-mode:screen" class="B D"/><path d="M1160.95 408c-.19 0-.39.179-.47.417-.05.138-.04.27.02.362.04.065.1.104.18.111.01.001.01.002.02.002.09 0 .18-.043.27-.119s.16-.183.2-.298c.05-.141.05-.276-.02-.369-.04-.068-.11-.106-.2-.106z" fill="#73ddff" style="mix-blend-mode:screen" class="B"/><g class="G"><path d="M1125.48 209.104c-.31 0-.65.299-.78.695-.08.23-.07.45.03.604a.4.4 0 0 0 .3.185c.01.002.03.002.04.002.15 0 .31-.07.45-.198a1.27 1.27 0 0 0 .33-.496c.09-.236.08-.46-.02-.615a.41.41 0 0 0-.35-.177z" style="mix-blend-mode:screen"/><use xlink:href="#AW" style="mix-blend-mode:screen"/></g><g class="E C"><use xlink:href="#AX" style="mix-blend-mode:screen"/><use xlink:href="#AY" style="mix-blend-mode:screen"/></g><use xlink:href="#AQ" x="665" y="-252" style="mix-blend-mode:screen" class="G"/><g class="F"><use xlink:href="#AZ" style="mix-blend-mode:screen"/><use xlink:href="#Aa" style="mix-blend-mode:screen"/></g><use xlink:href="#AT" x="695" y="-252" style="mix-blend-mode:screen" class="B H"/><use xlink:href="#Ab" style="mix-blend-mode:screen" class="B D"/><use xlink:href="#Ac" class="G"/><g class="E C"><use xlink:href="#AM" x="49" y="245"/><use xlink:href="#AN" x="5" y="252"/></g><use xlink:href="#AO" x="89" y="295" class="G"/><use xlink:href="#AP" x="79" y="245" class="C E"/><use xlink:href="#AQ" x="5" y="252" class="G"/><g class="F"><use xlink:href="#AN" x="67" y="195.197"/><path d="M353.439 850.701c-.316 0-.654.298-.787.695-.077.23-.064.45.034.604.068.107.175.173.301.185a.52.52 0 0 0 .041.001c.144 0 .303-.07.446-.198s.263-.303.335-.496c.088-.235.077-.459-.028-.615a.4.4 0 0 0-.342-.176z"/><use xlink:href="#AR" x="5" y="252"/></g><g class="H B"><use xlink:href="#AS" x="89" y="295"/><use xlink:href="#AT" x="79" y="245"/></g><g class="D B"><path d="M401.748 802c-.316 0-.654.299-.787.695-.077.23-.064.45.034.604.068.108.175.173.302.185l.04.002c.144 0 .303-.07.446-.198a1.27 1.27 0 0 0 .335-.496c.088-.236.077-.46-.028-.615a.4.4 0 0 0-.342-.177z"/><use xlink:href="#AO" x="23.815" y="319"/></g><path d="M1036.48 390.104c-.31 0-.65.299-.78.695-.08.23-.07.451.03.604.07.108.17.174.3.185.01.002.03.002.04.002.15 0 .3-.07.45-.198a1.27 1.27 0 0 0 .33-.496c.09-.236.08-.46-.03-.615a.38.38 0 0 0-.34-.177z" style="mix-blend-mode:screen" class="G"/><g class="E C"><path d="M1048.12 367.002c-.31 0-.65.299-.78.695-.08.23-.07.45.03.604.07.108.17.173.3.185.01.001.03.002.04.002.15 0 .3-.071.45-.198.14-.128.26-.304.33-.497.09-.235.08-.459-.03-.614-.07-.114-.2-.177-.34-.177z" style="mix-blend-mode:screen"/><use xlink:href="#AX" x="17" y="31" style="mix-blend-mode:screen"/></g><use xlink:href="#Ad" style="mix-blend-mode:screen" class="G"/><use xlink:href="#AY" x="17" y="31" style="mix-blend-mode:screen" class="C E"/><use xlink:href="#Ae" style="mix-blend-mode:screen" class="G"/><g class="F"><use xlink:href="#AX" x="35" y="-18.803" style="mix-blend-mode:screen"/><use xlink:href="#AZ" x="17" y="31" style="mix-blend-mode:screen"/><path d="M1044.96 376.809c-.19 0-.39.179-.47.417-.05.138-.04.27.02.362.04.065.11.104.18.111l.03.002c.08 0 .18-.043.26-.119a.82.82 0 0 0 .21-.298c.05-.141.04-.276-.02-.369-.05-.068-.12-.106-.21-.106z" style="mix-blend-mode:screen"/></g><g class="H B"><use xlink:href="#Af" style="mix-blend-mode:screen"/><path d="M1014.5 348.63c-.19 0-.39.18-.47.417-.05.138-.04.271.02.363.04.064.11.104.18.111a.3.3 0 0 0 .03.001.4.4 0 0 0 .26-.119c.09-.076.16-.182.2-.298.06-.141.05-.275-.01-.368-.05-.069-.12-.107-.21-.107z" style="mix-blend-mode:screen"/></g><path d="M1034.75 336c-.32 0-.66.299-.79.695-.08.23-.06.45.03.604.07.108.18.173.31.185.01.001.02.002.04.002.14 0 .3-.07.44-.198a1.2 1.2 0 0 0 .34-.496c.09-.236.07-.46-.03-.615-.08-.114-.2-.177-.34-.177zm20.57 44c-.19 0-.4.179-.48.417-.04.138-.03.27.02.362a.26.26 0 0 0 .19.111c0 .001.01.002.02.002.09 0 .18-.043.27-.119a.69.69 0 0 0 .2-.298c.05-.141.04-.276-.02-.369-.04-.068-.12-.106-.2-.106z" style="mix-blend-mode:screen" class="D B"/><use xlink:href="#AW" x="138" y="114" style="mix-blend-mode:screen" class="G"/><g class="E C"><use xlink:href="#Ag" style="mix-blend-mode:screen"/><use xlink:href="#Ah"/></g><use xlink:href="#Ad" x="111" y="83" style="mix-blend-mode:screen" class="G"/><path d="M1142.59 425.538c-.19 0-.39.179-.47.417-.05.138-.04.27.02.363a.23.23 0 0 0 .18.111c.01 0 .01.001.02.001.09 0 .19-.043.27-.119a.69.69 0 0 0 .2-.298c.05-.141.05-.276-.01-.369-.05-.068-.12-.106-.21-.106z" style="mix-blend-mode:screen" class="C E"/><use xlink:href="#Ae" x="121" y="83" style="mix-blend-mode:screen" class="G"/><g class="F"><use xlink:href="#Ah" x="8" y="-49.803" style="mix-blend-mode:screen"/><path d="M1151.44 460.701c-.32 0-.65.298-.79.695-.07.23-.06.45.04.604.06.107.17.173.3.185.01.001.02.001.04.001.14 0 .3-.07.44-.198.15-.127.27-.303.34-.496.09-.235.08-.459-.03-.615-.08-.114-.2-.176-.34-.176z" style="mix-blend-mode:screen"/><use xlink:href="#Aa" x="108" y="114" style="mix-blend-mode:screen"/></g><g class="H B"><use xlink:href="#Af" x="111" y="83" style="mix-blend-mode:screen"/><path d="M1125.5 431.63c-.19 0-.39.18-.47.417-.05.138-.04.271.02.363.04.064.11.104.18.111.01.001.02.001.03.001a.4.4 0 0 0 .26-.119c.09-.076.16-.182.2-.298.06-.141.05-.275-.01-.368-.05-.069-.12-.107-.21-.107z" style="mix-blend-mode:screen"/></g><g class="D B"><use xlink:href="#Ab" x="128" y="114" style="mix-blend-mode:screen"/><use xlink:href="#Ai" style="mix-blend-mode:screen"/></g><g class="G"><path d="M1057.48 176.104c-.31 0-.65.299-.78.695-.08.23-.07.451.03.604a.4.4 0 0 0 .3.185c.01.002.03.002.04.002.15 0 .31-.07.45-.198a1.27 1.27 0 0 0 .33-.496c.09-.236.08-.46-.02-.615a.41.41 0 0 0-.35-.177z" style="mix-blend-mode:screen"/><use xlink:href="#AX" x="52" y="-234.803" style="mix-blend-mode:screen"/><use xlink:href="#AN" x="634" y="-257.803" style="mix-blend-mode:screen"/><use xlink:href="#Ac" x="559" y="-549" style="mix-blend-mode:screen"/><use xlink:href="#Ac" x="575" y="-487" style="mix-blend-mode:screen"/><use xlink:href="#AN" x="556" y="-302.803" style="mix-blend-mode:screen"/><use xlink:href="#AN" x="502.843" y="240.658"/><use xlink:href="#AN" x="626" y="163.197"/><use xlink:href="#AN" x="615" y="194.197"/><use xlink:href="#Ac" x="506" y="-57"/><use xlink:href="#AN" x="-52" y="223.197"/><use xlink:href="#AN" x="-97" y="249.197"/><use xlink:href="#AX" x="57" y="-32.387"/><use xlink:href="#AX" x="5" y="-17.387"/><use xlink:href="#AX" x="13" y="-22.387"/><path d="M177.483 802.104c-.315 0-.653.299-.786.695-.077.23-.065.451.033.604a.39.39 0 0 0 .302.185c.012.002.025.002.04.002.144 0 .303-.07.446-.198a1.26 1.26 0 0 0 .335-.496c.088-.236.078-.46-.028-.615a.4.4 0 0 0-.342-.177zM180.836 851c-.315 0-.653.299-.786.695-.077.23-.065.45.034.604a.39.39 0 0 0 .301.185l.041.002c.144 0 .302-.07.446-.198a1.27 1.27 0 0 0 .335-.496c.087-.236.077-.46-.028-.615-.078-.114-.2-.177-.343-.177z"/><use xlink:href="#AU" x="608.156" y="-187" style="mix-blend-mode:screen"/><use xlink:href="#AX" x="101" y="-37.803" style="mix-blend-mode:screen"/><use xlink:href="#AN" x="-13" y="95.197"/><use xlink:href="#AN" x="-74" y="207.197"/></g><path d="M534.943 626c-.732 0-1.518.694-1.827 1.614-.179.535-.15 1.046.079 1.404.158.25.407.402.7.43a.88.88 0 0 0 .094.004c.335 0 .703-.164 1.037-.46a2.93 2.93 0 0 0 .778-1.153c.203-.547.179-1.068-.066-1.428a.93.93 0 0 0-.795-.411z" style="mix-blend-mode:multiply" class="C E"/><path d="M1089.91 118.576c-.34 0-.71.326-.86.758-.08.251-.07.491.04.659.08.117.19.189.33.202.01.001.03.002.04.002.16 0 .33-.077.49-.216s.29-.332.37-.542c.09-.256.08-.501-.03-.67a.45.45 0 0 0-.38-.193z" style="mix-blend-mode:screen" class="G"/><path d="M1085.08 114.79c-.46 0-.95.434-1.15 1.011-.11.334-.09.654.05.878a.58.58 0 0 0 .44.269c.02.002.04.003.06.003.21 0 .44-.102.65-.288s.38-.442.49-.722c.12-.342.11-.668-.05-.894-.11-.166-.29-.257-.49-.257zm42.93-13.779c-.34 0-.71.326-.85.758-.09.251-.08.491.03.659.08.118.19.189.33.202.01.001.03.002.05.002.15 0 .33-.077.48-.216a1.37 1.37 0 0 0 .37-.541c.09-.257.08-.502-.03-.671a.45.45 0 0 0-.38-.193z" style="mix-blend-mode:screen" class="H B"/><use xlink:href="#v" x="57" y="-675" style="mix-blend-mode:screen" class="C E"/><path d="M1167.48 89c-.53 0-1.11.506-1.33 1.177-.13.39-.11.763.06 1.023.11.182.29.293.51.313.02.002.04.003.07.003.24 0 .51-.119.75-.336.25-.216.45-.514.57-.84.15-.399.13-.778-.05-1.041a.68.68 0 0 0-.58-.3z" style="mix-blend-mode:screen" opacity=".3" class="D"/><path d="M1187.25 65c-.85 0-1.76.804-2.12 1.871-.2.619-.17 1.212.1 1.626a1.05 1.05 0 0 0 .81.498c.03.003.06.005.11.005.38 0 .81-.189 1.2-.533.38-.343.71-.818.9-1.336.23-.634.21-1.237-.08-1.655-.21-.307-.53-.476-.92-.476z" style="mix-blend-mode:screen" class="E"/><path d="M1127.7 96.861c-.26 0-.55.25-.66.581-.06.193-.05.377.03.505a.34.34 0 0 0 .25.155c.01.001.02.002.04.002.12 0 .25-.059.37-.166a1.06 1.06 0 0 0 .28-.415c.07-.197.06-.384-.02-.514a.35.35 0 0 0-.29-.148z" style="mix-blend-mode:screen" class="G"/><use xlink:href="#Ag" x="8.72" y="-254" style="mix-blend-mode:screen" class="C E"/><use xlink:href="#Ad" x="139.72" y="-171" style="mix-blend-mode:screen" class="G"/><use xlink:href="#Ah" x="16.72" y="-303.803" style="mix-blend-mode:screen" class="F"/><use xlink:href="#Af" x="119.72" y="-171" style="mix-blend-mode:screen" class="B H"/><use xlink:href="#Ai" x="-1.28" y="-254" style="mix-blend-mode:screen" class="B D"/></g><defs><filter id="A" x=".418" y=".762" width="1260.6" height="1065.73" filterUnits="userSpaceOnUse" color-interpolation-filters="sRGB"><feFlood flood-opacity="0"/><feBlend in="SourceGraphic"/><feGaussianBlur stdDeviation="37"/></filter><linearGradient id="B" x1="1167" y1="78.5" x2="171" y2="899.5" gradientUnits="userSpaceOnUse"><stop stop-color="#1066a5" stop-opacity=".61"/><stop offset=".448" stop-color="#a77600" stop-opacity=".52"/><stop offset=".867" stop-color="#4b159f" stop-opacity=".35"/><stop offset=".974" stop-color="#009f4c" stop-opacity=".37"/></linearGradient><path id="C" d="M899.733 382c-.653 0-1.354.619-1.629 1.44-.16.477-.134.934.07 1.253.141.222.363.359.624.383l.084.004c.299 0 .627-.146.925-.411s.545-.629.694-1.028c.182-.488.16-.953-.059-1.274-.16-.237-.412-.367-.709-.367z"/><path id="D" d="M285.204 493.094c-.653 0-1.354.619-1.629 1.441-.16.476-.134.933.07 1.252.141.222.363.359.624.383.025.003.052.004.084.004.299 0 .627-.146.925-.411s.545-.629.694-1.028c.182-.488.16-.953-.059-1.274-.16-.237-.412-.367-.709-.367z"/><path id="E" d="M181.096 924.496c-.654 0-1.354.62-1.63 1.441-.159.476-.134.933.07 1.252a.81.81 0 0 0 .625.383c.025.003.051.004.084.004.298 0 .627-.146.925-.41s.545-.63.694-1.029c.181-.488.16-.952-.059-1.274-.161-.236-.413-.367-.709-.367z"/><path id="F" d="M173.704 922.341c-.653 0-1.353.619-1.629 1.44-.16.477-.134.933.07 1.252a.81.81 0 0 0 .624.383c.026.003.052.004.084.004.299 0 .627-.146.925-.41s.545-.63.694-1.029c.182-.488.16-.952-.058-1.274-.161-.236-.413-.366-.71-.366z"/><path id="G" d="M282.432 490.014c-.653 0-1.353.62-1.629 1.441-.16.476-.134.933.07 1.252a.81.81 0 0 0 .624.383c.026.003.052.004.085.004.298 0 .627-.146.924-.41s.546-.63.695-1.029c.181-.488.16-.952-.059-1.274-.161-.236-.413-.367-.71-.367z"/><path id="H" d="M435.529 969c-.392 0-.812.372-.978.864-.095.286-.08.56.042.752a.49.49 0 0 0 .375.23l.051.002c.179 0 .376-.088.554-.246s.328-.378.417-.618c.109-.292.096-.571-.035-.764a.5.5 0 0 0-.426-.22z"/><path id="I" d="M338.431 516.152c-.392 0-.812.372-.977.864-.096.286-.081.56.042.752a.49.49 0 0 0 .374.23l.051.002c.179 0 .376-.088.555-.246a1.57 1.57 0 0 0 .416-.617c.109-.293.096-.572-.035-.765a.5.5 0 0 0-.426-.22z"/><path id="J" d="M177.631 909.406c-.392 0-.813.371-.978.864-.096.286-.081.56.042.751.085.134.218.216.375.23.015.002.031.003.05.003.179 0 .376-.088.555-.247s.327-.377.416-.617c.109-.293.096-.571-.035-.764-.096-.142-.247-.22-.425-.22z"/><path id="K" d="M1192.14 196.496c-.65 0-1.35.62-1.63 1.441-.16.476-.13.933.07 1.252.14.223.37.359.63.383.02.003.05.004.08.004.3 0 .63-.146.93-.41s.54-.63.69-1.029c.18-.488.16-.952-.06-1.274-.16-.236-.41-.367-.71-.367z"/><path id="L" d="M331.853 669.25c-.654 0-1.354.619-1.63 1.44-.159.477-.134.934.07 1.253.142.222.363.359.625.383l.084.004c.298 0 .627-.146.925-.411s.545-.629.694-1.028c.181-.488.16-.953-.059-1.274a.83.83 0 0 0-.709-.367z"/><path id="M" d="M318.225 669.866c-.392 0-.813.372-.978.864-.096.286-.08.56.042.751.085.134.218.216.375.23.015.002.031.003.05.003.179 0 .376-.088.555-.247s.327-.377.417-.617c.108-.292.096-.571-.036-.764-.096-.142-.247-.22-.425-.22z"/><path id="N" d="M1134.73 240.971c-.65 0-1.35.619-1.63 1.44-.16.477-.13.934.07 1.253.14.222.37.359.63.383a.85.85 0 0 0 .08.004c.3 0 .63-.146.93-.411s.54-.629.69-1.028c.18-.488.16-.953-.06-1.274-.16-.237-.41-.367-.71-.367z"/><path id="O" d="M317.917 662.475c-.392 0-.813.371-.978.864-.096.286-.08.56.042.751.085.134.218.216.375.23.015.002.031.002.05.002.179 0 .376-.087.555-.246s.327-.378.417-.617c.108-.293.096-.571-.036-.764-.096-.142-.247-.22-.425-.22z"/><path id="P" d="M326.232 663.399c-.392 0-.812.371-.978.864-.096.286-.08.56.042.751a.49.49 0 0 0 .375.23c.015.002.031.002.05.002.18 0 .377-.087.555-.246a1.58 1.58 0 0 0 .417-.617c.109-.293.096-.571-.036-.764-.096-.142-.247-.22-.425-.22z"/><path id="Q" d="M1151.43 271.152c-.39 0-.81.372-.98.864-.09.286-.08.56.05.752a.47.47 0 0 0 .37.23l.05.002c.18 0 .38-.088.56-.246s.32-.378.41-.617c.11-.293.1-.572-.03-.765-.1-.142-.25-.22-.43-.22z"/><path id="R" d="M370.751 422.475c-.653 0-1.354.619-1.629 1.44-.16.477-.134.933.07 1.252a.81.81 0 0 0 .624.383c.026.003.052.004.084.004.299 0 .627-.146.925-.41s.545-.63.694-1.029c.182-.488.16-.952-.058-1.274-.161-.236-.413-.366-.71-.366z"/><path id="S" d="M199.733 830c-.653 0-1.354.619-1.629 1.44-.16.477-.134.934.07 1.253.141.222.363.359.624.383l.084.004c.299 0 .627-.146.925-.411s.545-.629.694-1.028c.182-.488.16-.953-.058-1.274a.83.83 0 0 0-.71-.367z"/><path id="T" d="M1125.73 222c-.65 0-1.35.619-1.63 1.44-.16.477-.13.934.07 1.253.15.222.37.359.63.383a.85.85 0 0 0 .08.004c.3 0 .63-.146.93-.411s.54-.629.69-1.028c.18-.488.16-.953-.06-1.274-.16-.237-.41-.367-.71-.367z"/><path id="U" d="M1068.04 358c-.39 0-.81.372-.98.864-.09.286-.08.56.04.752.09.133.22.215.38.23.01.001.03.002.05.002.18 0 .38-.088.55-.246.18-.159.33-.378.42-.618.11-.292.1-.571-.03-.764-.1-.142-.25-.22-.43-.22z"/><path id="V" d="M914.801 369c-.654 0-1.354.619-1.63 1.44-.159.477-.134.934.07 1.253.141.222.363.359.625.383l.084.004c.298 0 .627-.146.925-.411s.545-.629.694-1.028c.181-.488.16-.953-.059-1.274a.83.83 0 0 0-.709-.367z"/><path id="W" d="M1120.53 357c-.39 0-.81.372-.98.864-.09.286-.08.56.04.752.09.133.22.215.38.23.01.001.03.002.05.002.18 0 .37-.088.55-.246s.33-.378.42-.618c.11-.292.1-.571-.04-.764-.09-.142-.24-.22-.42-.22z"/><path id="X" d="M915.219 374c-.459 0-.952.436-1.146 1.013-.112.336-.094.657.049.881.1.157.256.253.44.27.017.002.036.003.059.003.21 0 .441-.103.651-.289a1.84 1.84 0 0 0 .488-.724c.128-.343.112-.67-.041-.896-.113-.166-.291-.258-.5-.258z"/><path id="Y" d="M1009.73 770c-.27 0-.57.261-.69.608-.06.201-.05.394.03.529a.36.36 0 0 0 .27.162.3.3 0 0 0 .03.001c.13 0 .27-.061.39-.173.13-.112.23-.266.3-.434.07-.206.06-.402-.03-.538-.07-.1-.17-.155-.3-.155z"/><path id="Z" d="M1144.55 251.688c-.72 0-1.5.687-1.8 1.598-.18.529-.15 1.035.07 1.389.16.247.41.398.7.425.02.003.05.005.09.005.33 0 .7-.162 1.03-.456s.6-.698.77-1.141c.2-.541.17-1.056-.07-1.413a.93.93 0 0 0-.79-.407z"/><path id="a" d="M261.858 539.085c-.725 0-1.502.687-1.808 1.598-.177.528-.149 1.035.078 1.389.157.247.403.398.693.425a.86.86 0 0 0 .093.004c.331 0 .696-.162 1.026-.455a2.9 2.9 0 0 0 .77-1.141c.201-.542.177-1.057-.065-1.413a.92.92 0 0 0-.787-.407z"/><path id="b" d="M258.968 510.229c-.725 0-1.502.687-1.808 1.598-.177.529-.149 1.035.078 1.389a.9.9 0 0 0 .692.426l.094.004c.331 0 .695-.162 1.026-.456s.604-.698.77-1.141c.201-.541.177-1.056-.066-1.413a.92.92 0 0 0-.786-.407z"/><path id="c" d="M1046.92 439c-.72 0-1.5.687-1.8 1.598-.18.529-.15 1.035.07 1.389.16.247.41.398.7.425.02.003.05.005.09.005.33 0 .69-.162 1.03-.456.33-.293.6-.698.77-1.141.2-.541.17-1.056-.07-1.413a.93.93 0 0 0-.79-.407z"/><path id="d" d="M571.882 390.57c-.435 0-.901.412-1.085.959-.106.317-.089.621.047.833a.54.54 0 0 0 .416.255c.016.002.034.003.055.003.199 0 .418-.097.616-.273s.363-.419.462-.685c.121-.325.107-.634-.039-.848-.107-.157-.275-.244-.472-.244z"/><path id="e" d="M1008.86 703.085c-.73 0-1.5.687-1.81 1.598-.18.528-.15 1.035.08 1.389a.89.89 0 0 0 .69.425c.03.003.06.004.09.004.33 0 .7-.162 1.03-.455s.6-.699.77-1.141c.2-.542.18-1.057-.07-1.413-.17-.263-.45-.407-.78-.407z"/><path id="f" d="M1105.97 464.229c-.73 0-1.5.687-1.81 1.598-.18.529-.15 1.035.08 1.389.15.248.4.399.69.426l.09.004c.34 0 .7-.162 1.03-.456s.6-.698.77-1.141c.2-.541.18-1.056-.07-1.413-.17-.262-.45-.407-.78-.407z"/><path id="g" d="M1160.55 149.107c-.72 0-1.5.687-1.8 1.597-.18.529-.15 1.036.07 1.39.16.247.41.398.7.425a.68.68 0 0 0 .09.004c.33 0 .69-.162 1.03-.455.33-.294.6-.699.77-1.141.2-.542.17-1.057-.07-1.414-.18-.262-.46-.406-.79-.406z"/><path id="h" d="M1174.48 113.773c-.73 0-1.5.687-1.81 1.597-.18.529-.15 1.036.08 1.389.16.248.4.399.69.426.03.003.06.004.09.004.34 0 .7-.162 1.03-.455s.61-.699.77-1.141c.2-.542.18-1.057-.06-1.414-.18-.262-.46-.406-.79-.406z"/><path id="i" d="M948.853 316c-.725 0-1.502.687-1.808 1.598-.177.529-.149 1.035.078 1.389.157.247.403.398.693.425a.86.86 0 0 0 .093.004c.331 0 .696-.161 1.026-.455s.605-.698.77-1.141c.201-.541.177-1.056-.065-1.413-.179-.262-.458-.407-.787-.407z"/><path id="j" d="M927.329 335.815c-.725 0-1.502.687-1.807 1.598-.177.529-.149 1.035.077 1.389.157.248.403.399.693.426l.093.004c.332 0 .696-.162 1.026-.456s.605-.698.77-1.141c.202-.541.178-1.056-.065-1.413-.178-.262-.458-.407-.787-.407z"/><path id="k" d="M151.85 907c-.72 0-1.5.687-1.8 1.598-.18.529-.15 1.035.07 1.389.16.247.41.398.7.425a.68.68 0 0 0 .09.004c.33 0 .69-.161 1.02-.455.34-.293.61-.698.78-1.141.2-.541.17-1.057-.07-1.413-.18-.263-.46-.407-.79-.407z"/><path id="l" d="M214.47 874.424c-.43 0-.9.412-1.08.959-.11.317-.09.621.04.833.1.148.25.239.42.255.02.002.03.003.06.003.2 0 .41-.097.61-.273s.36-.419.46-.685c.12-.325.11-.634-.04-.848-.1-.157-.27-.244-.47-.244z"/><path id="m" d="M264.34 528.238c-.505 0-1.047.479-1.26 1.114-.123.368-.103.721.054.968a.63.63 0 0 0 .548.299c.231 0 .485-.113.715-.317a2.02 2.02 0 0 0 .537-.796c.14-.377.123-.736-.046-.984a.64.64 0 0 0-.548-.284z"/><path id="n" d="M273.388 524.667c-.506 0-1.047.478-1.26 1.113-.124.369-.104.722.054.968a.63.63 0 0 0 .483.297.62.62 0 0 0 .065.003c.231 0 .484-.113.715-.318s.421-.486.536-.795c.141-.377.124-.736-.045-.985a.64.64 0 0 0-.548-.283z"/><path id="o" d="M281.185 541.571c-.303 0-.628.288-.756.669-.074.221-.062.432.033.58.065.104.168.167.289.178l.039.002c.139 0 .291-.068.429-.19s.253-.292.322-.478c.084-.226.074-.441-.027-.59-.075-.11-.191-.171-.329-.171z"/><path id="p" d="M219.72 785c-.505 0-1.046.479-1.259 1.114-.124.368-.104.721.054.968a.63.63 0 0 0 .483.296.62.62 0 0 0 .065.003c.231 0 .484-.113.715-.317s.421-.487.536-.796c.141-.377.124-.736-.045-.984-.124-.183-.319-.284-.549-.284z"/><path id="q" d="M1064.34 399.238c-.51 0-1.05.479-1.26 1.114-.12.368-.1.721.05.968a.63.63 0 0 0 .49.296c.02.002.04.003.06.003.23 0 .49-.113.72-.317s.42-.487.53-.796c.14-.377.13-.736-.04-.984a.65.65 0 0 0-.55-.284z"/><path id="r" d="M212.39 878.667c-.51 0-1.05.478-1.26 1.113-.13.369-.11.722.05.968a.63.63 0 0 0 .48.297c.02.002.04.003.07.003.23 0 .48-.113.71-.318a1.88 1.88 0 0 0 .54-.795c.14-.377.13-.736-.04-.985a.65.65 0 0 0-.55-.283z"/><path id="s" d="M219.77 877c-.51 0-1.05.479-1.26 1.114-.12.368-.1.721.05.968a.63.63 0 0 0 .49.296c.02.002.04.003.06.003.23 0 .49-.113.72-.317s.42-.487.53-.796c.14-.377.13-.736-.04-.985-.13-.182-.32-.283-.55-.283z"/><path id="t" d="M220.18 895.571c-.3 0-.62.288-.75.669-.07.221-.06.432.03.58.07.104.17.167.29.178.01.001.03.002.04.002.14 0 .29-.068.43-.19a1.2 1.2 0 0 0 .32-.478c.09-.226.08-.441-.03-.59-.07-.11-.19-.171-.33-.171z"/><path id="u" d="M1016.89 770c-.71 0-1.48.675-1.78 1.569-.17.52-.14 1.017.08 1.365a.89.89 0 0 0 .68.418l.09.004c.33 0 .69-.159 1.01-.448.33-.288.59-.686.76-1.12.19-.532.17-1.038-.07-1.388-.17-.258-.45-.4-.77-.4z"/><path id="v" d="M1003.42 834c-.54 0-1.11.506-1.33 1.177-.14.39-.11.763.05 1.023.12.183.3.294.51.314a.82.82 0 0 0 .07.003c.25 0 .51-.119.76-.336a2.14 2.14 0 0 0 .56-.84c.15-.399.14-.779-.04-1.041a.68.68 0 0 0-.58-.3z"/><path id="w" d="M995.465 743c-.889 0-1.843.843-2.219 1.962-.217.649-.183 1.271.096 1.705a1.11 1.11 0 0 0 .85.523l.115.005c.406 0 .854-.199 1.259-.559s.743-.858.946-1.401c.247-.665.218-1.298-.08-1.736a1.13 1.13 0 0 0-.967-.499z"/><path id="x" d="M290.373 828.236c-.31 0-.643.294-.773.683-.076.226-.064.443.033.594.067.106.172.17.296.182l.04.002c.142 0 .297-.07.439-.195a1.25 1.25 0 0 0 .329-.488c.086-.231.076-.452-.028-.604-.076-.112-.196-.174-.336-.174z"/><path id="y" d="M155.361 898c-.89 0-1.844.844-2.219 1.962-.218.649-.183 1.271.095 1.705a1.11 1.11 0 0 0 .851.523l.114.005c.407 0 .854-.199 1.26-.559s.742-.858.945-1.401c.247-.665.218-1.297-.08-1.735-.219-.322-.562-.5-.966-.5z"/><path id="z" d="M1108.36 269c-.89 0-1.84.843-2.22 1.962-.22.649-.18 1.271.1 1.705a1.1 1.1 0 0 0 .85.523c.03.003.07.005.11.005.41 0 .86-.199 1.26-.559.41-.361.74-.858.95-1.401.24-.665.21-1.298-.08-1.736-.22-.322-.57-.499-.97-.499z"/><path id="AA" d="M281.416 933.771c-.533 0-1.106.506-1.331 1.177-.131.39-.11.763.057 1.023.115.183.297.294.51.314.021.002.043.003.069.003.244 0 .512-.119.756-.336s.445-.514.567-.84c.148-.399.131-.779-.048-1.041-.131-.194-.337-.3-.58-.3z"/><path id="AB" d="M1126.05 421c-.53 0-1.11.506-1.33 1.177-.13.39-.11.763.05 1.023.12.183.3.294.51.314l.07.003c.25 0 .52-.119.76-.336s.44-.514.57-.84c.14-.399.13-.779-.05-1.041a.68.68 0 0 0-.58-.3z"/><path id="AC" d="M267.416 509c-.533 0-1.106.506-1.331 1.177-.131.39-.11.763.057 1.023.115.183.297.294.51.314.021.002.043.003.069.003.244 0 .513-.119.756-.336s.445-.514.567-.84c.148-.399.131-.779-.048-1.041-.131-.194-.337-.3-.58-.3z"/><path id="AD" d="M416.361 851c-.89 0-1.844.843-2.22 1.962-.217.649-.182 1.271.096 1.705a1.11 1.11 0 0 0 .85.523l.115.005c.406 0 .854-.199 1.259-.559s.743-.858.946-1.401c.247-.665.218-1.298-.08-1.736a1.13 1.13 0 0 0-.966-.499z"/><path id="AE" d="M159.355 919.805c-.89 0-1.844.844-2.219 1.962-.218.649-.183 1.271.095 1.706a1.11 1.11 0 0 0 .85.522l.115.005c.407 0 .854-.199 1.26-.559s.742-.858.945-1.401c.247-.665.218-1.297-.08-1.735-.219-.322-.562-.5-.966-.5z"/><path id="AF" d="M402.889 904c-.712 0-1.476.675-1.776 1.569-.174.52-.146 1.017.076 1.365a.89.89 0 0 0 .681.418l.091.004c.326 0 .684-.159 1.008-.448a2.85 2.85 0 0 0 .757-1.12c.197-.532.174-1.038-.065-1.388-.175-.258-.449-.4-.772-.4z"/><path id="AG" d="M1151.88 165.298c-.53 0-1.1.506-1.33 1.177-.13.39-.11.763.06 1.024a.68.68 0 0 0 .51.313c.02.002.04.003.07.003.24 0 .51-.119.75-.335a2.07 2.07 0 0 0 .57-.841c.15-.399.13-.778-.05-1.041a.67.67 0 0 0-.58-.3z"/><path id="AH" d="M1094.64 324.071c-.54 0-1.11.507-1.33 1.178-.14.389-.11.762.05 1.023a.68.68 0 0 0 .51.313.82.82 0 0 0 .07.003c.25 0 .51-.119.76-.335.24-.216.44-.515.56-.841.15-.399.14-.778-.04-1.041a.68.68 0 0 0-.58-.3z"/><path id="AI" d="M1041.22 253.866c-.39 0-.81.372-.97.864-.1.286-.08.56.04.751a.48.48 0 0 0 .37.23l.05.003c.18 0 .38-.088.56-.247s.33-.377.42-.617c.1-.292.09-.571-.04-.764-.1-.142-.25-.22-.43-.22z"/><path id="AJ" d="M1131.9 139.406c-.39 0-.81.371-.98.864-.1.286-.08.56.04.751a.5.5 0 0 0 .38.23c.01.002.03.003.05.003.18 0 .37-.088.55-.247s.33-.377.42-.617c.11-.293.09-.571-.04-.764-.09-.142-.24-.22-.42-.22z"/><path id="AK" d="M1173.38 309c-1.28 0-2.64 1.206-3.18 2.806-.31.929-.26 1.818.14 2.44.27.434.71.699 1.22.747.04.005.1.007.16.007.58 0 1.22-.284 1.8-.8s1.06-1.226 1.35-2.004c.36-.95.31-1.855-.11-2.482-.31-.46-.81-.714-1.38-.714z"/><path id="AL" d="M880.699 358c-.263 0-.546.25-.657.581-.065.193-.054.377.028.505a.33.33 0 0 0 .252.155l.034.002c.121 0 .253-.059.373-.166a1.05 1.05 0 0 0 .28-.415c.073-.197.065-.384-.023-.514-.065-.095-.167-.148-.287-.148z"/><path id="AM" d="M366.121 588.002c-.315 0-.653.299-.786.695-.077.23-.065.45.034.604.068.107.175.173.301.185l.041.002c.144 0 .302-.071.446-.198s.263-.304.335-.497c.087-.235.077-.459-.029-.614a.4.4 0 0 0-.342-.177z"/><path id="AN" d="M348.836 621.803c-.315 0-.653.299-.786.695-.077.23-.065.45.034.604a.39.39 0 0 0 .301.185l.041.002c.144 0 .302-.07.446-.198a1.27 1.27 0 0 0 .335-.496c.087-.236.077-.46-.029-.615a.4.4 0 0 0-.342-.177z"/><path id="AO" d="M354.502 534c-.189 0-.392.179-.472.417-.046.138-.039.27.02.362.041.065.105.104.181.111.007.001.015.002.024.002.087 0 .182-.043.268-.119s.158-.183.201-.298c.053-.141.046-.276-.017-.369a.24.24 0 0 0-.205-.106z"/><path id="AP" d="M319.59 563.538c-.189 0-.392.179-.472.417-.046.138-.039.27.02.363.041.064.106.103.181.111l.025.001c.086 0 .181-.043.267-.119a.75.75 0 0 0 .201-.298c.053-.141.047-.276-.017-.369a.24.24 0 0 0-.205-.106z"/><path id="AQ" d="M332.502 600.484c-.189 0-.392.179-.472.417-.046.138-.039.27.02.362.041.065.105.104.181.111.007.001.015.001.024.001.087 0 .182-.042.268-.119s.158-.182.201-.297c.053-.142.046-.276-.017-.369-.046-.069-.119-.106-.205-.106z"/><path id="AR" d="M362.963 597.809c-.189 0-.392.179-.471.417-.047.138-.039.27.02.362.041.065.105.104.181.111.007.001.015.002.024.002.086 0 .181-.043.268-.119s.158-.183.201-.298c.052-.141.046-.276-.017-.369-.047-.068-.12-.106-.206-.106z"/><path id="AS" d="M353.669 510c-.252 0-.523.239-.629.556-.062.184-.052.36.027.483.055.086.14.139.241.148l.033.002c.115 0 .242-.057.357-.159s.21-.243.267-.397c.07-.188.062-.367-.022-.491a.32.32 0 0 0-.274-.142z"/><path id="AT" d="M302.502 569.63c-.189 0-.392.18-.472.417-.046.138-.039.271.02.363.041.064.105.104.181.111.007.001.015.001.024.001.087 0 .182-.042.268-.119s.158-.182.201-.298c.053-.141.046-.275-.017-.368-.046-.069-.119-.107-.205-.107z"/><path id="AU" d="M322.748 557c-.316 0-.654.299-.786.695-.078.23-.065.45.033.604.068.108.175.173.302.185l.04.002c.144 0 .303-.07.446-.198a1.27 1.27 0 0 0 .335-.496c.088-.236.077-.46-.028-.615a.4.4 0 0 0-.342-.177z"/><path id="AV" d="M1116.47 428.803c-.32 0-.65.299-.79.695-.07.23-.06.45.04.604.06.108.17.173.3.185.01.001.02.002.04.002.14 0 .3-.07.44-.198a1.2 1.2 0 0 0 .34-.496c.09-.236.08-.46-.03-.615-.08-.114-.2-.177-.34-.177z"/><path id="AW" d="M1019.48 359.104c-.31 0-.65.299-.78.695-.08.23-.07.451.03.604a.4.4 0 0 0 .3.185c.01.002.03.002.04.002.15 0 .3-.07.45-.198a1.27 1.27 0 0 0 .33-.496c.09-.236.08-.46-.03-.615a.38.38 0 0 0-.34-.177z"/><path id="AX" d="M1013.84 369.803c-.32 0-.66.299-.79.695-.08.23-.06.45.03.604.07.108.18.173.31.185.01.001.02.002.04.002.14 0 .3-.07.44-.198a1.2 1.2 0 0 0 .34-.496c.08-.236.07-.46-.03-.615-.08-.114-.2-.177-.34-.177z"/><path id="AY" d="M1014.59 311.538c-.19 0-.39.179-.47.417-.05.138-.04.27.02.363a.23.23 0 0 0 .18.111c.01 0 .01.001.02.001.09 0 .18-.043.27-.119a.69.69 0 0 0 .2-.298c.05-.141.05-.276-.02-.369-.04-.068-.11-.106-.2-.106z"/><path id="AZ" d="M1013.44 346.701c-.32 0-.66.298-.79.695-.08.23-.06.45.04.604.06.107.17.173.3.185.01.001.02.001.04.001.14 0 .3-.07.44-.198.15-.127.27-.303.34-.496.09-.235.08-.459-.03-.615-.08-.114-.2-.176-.34-.176z"/><path id="Aa" d="M1057.96 345.809c-.19 0-.39.179-.47.417-.04.138-.04.27.02.362.04.065.11.104.18.111l.03.002c.08 0 .18-.043.26-.119a.82.82 0 0 0 .21-.298c.05-.141.04-.276-.02-.369-.05-.068-.12-.106-.21-.106z"/><path id="Ab" d="M1017.75 305c-.32 0-.66.299-.79.695-.08.23-.06.45.04.604.06.108.17.173.3.185.01.001.02.002.04.002.14 0 .3-.07.44-.198a1.2 1.2 0 0 0 .34-.496c.09-.236.08-.46-.03-.615-.08-.114-.2-.177-.34-.177z"/><path id="Ac" d="M357.483 864.104c-.315 0-.653.299-.786.695-.077.23-.065.451.033.604a.39.39 0 0 0 .302.185c.012.002.025.002.04.002.144 0 .303-.07.446-.198a1.26 1.26 0 0 0 .335-.496c.088-.236.077-.46-.028-.615a.4.4 0 0 0-.342-.177z"/><path id="Ad" d="M1076.5 363c-.19 0-.39.179-.47.417-.05.138-.04.27.02.362.04.065.11.104.18.111l.03.002c.08 0 .18-.043.26-.119.09-.077.16-.183.2-.298.06-.141.05-.276-.01-.369-.05-.068-.12-.106-.21-.106z"/><path id="Ae" d="M1014.5 379.484c-.19 0-.39.179-.47.417-.05.138-.04.27.02.362.04.065.11.104.18.111a.3.3 0 0 0 .03.001.4.4 0 0 0 .26-.119c.09-.076.16-.182.2-.297.06-.142.05-.276-.01-.369-.05-.069-.12-.106-.21-.106z"/><path id="Af" d="M1075.67 339c-.25 0-.52.239-.63.556-.06.184-.05.36.03.483.05.086.14.139.24.148l.03.002c.12 0 .24-.057.36-.159a1.1 1.1 0 0 0 .27-.397c.07-.188.06-.367-.03-.491-.06-.092-.16-.142-.27-.142z"/><path id="Ag" d="M1159.12 450.002c-.31 0-.65.299-.79.695-.07.23-.06.45.04.604.07.108.17.173.3.185.01.001.02.002.04.002.14 0 .3-.071.45-.198.14-.128.26-.304.33-.497.09-.235.08-.459-.03-.614-.07-.114-.2-.177-.34-.177z"/><path id="Ah" d="M1151.84 483.803c-.32 0-.66.299-.79.695-.08.23-.06.45.03.604.07.108.18.173.31.185.01.001.02.002.04.002.14 0 .3-.07.44-.198a1.3 1.3 0 0 0 .34-.496c.08-.236.07-.46-.03-.615-.08-.114-.2-.177-.34-.177z"/><path id="Ai" d="M1176.32 463c-.19 0-.4.179-.47.417-.05.138-.04.27.02.362.04.065.1.104.18.111 0 .001.01.002.02.002.09 0 .18-.043.27-.119a.8.8 0 0 0 .2-.298c.05-.141.05-.276-.02-.369-.04-.068-.12-.106-.2-.106z"/></defs></svg>