<svg xmlns="http://www.w3.org/2000/svg" xmlns:xlink="http://www.w3.org/1999/xlink" width="1280" height="691" xmlns:v="https://vecta.io/nano"><style><![CDATA[.B{opacity:.7}.C{color-interpolation-filters:sRGB}.D{flood-opacity:0}.E{fill:#dffdff}.F{fill-rule:evenodd}]]></style><path d="M1280 .938H0v690h1280v-690Z" fill="#111214"/><g filter="url(#A)" class="B E"><g filter="url(#B)" class="B"><use xlink:href="#S" class="B"/></g><g filter="url(#C)" class="B"><path d="M166 339.305c16.569 0 30-13.655 30-30.5s-13.431-30.5-30-30.5-30 13.655-30 30.5 13.431 30.5 30 30.5z" class="B"/></g><g filter="url(#D)" class="B"><use xlink:href="#S" x="432" y="-281" class="B"/></g><g filter="url(#E)" class="B"><use xlink:href="#S" x="197" y="-281" class="B"/></g><g filter="url(#F)" class="B"><path d="M109 165.305c16.569 0 30-13.431 30-30s-13.431-30-30-30-30 13.431-30 30 13.431 30 30 30z" class="B"/></g><g filter="url(#G)" class="B F"><path d="M351.323 154.285c-5.554 6.864-14.047 11.252-23.565 11.252-16.732 0-30.297-13.564-30.297-30.297s13.565-30.298 30.297-30.298c9.518 0 18.011 4.389 23.565 11.253 5.554-6.864 14.047-11.253 23.565-11.253 16.733 0 30.297 13.565 30.297 30.298s-13.564 30.297-30.297 30.297c-9.518 0-18.011-4.388-23.565-11.252z" class="B"/></g><g filter="url(#H)" class="B F"><path d="M106.767 588.901c-5.037 9.744-15.206 16.404-26.931 16.404-16.733 0-30.297-13.565-30.297-30.298s13.564-30.297 30.297-30.297c11.725 0 21.894 6.66 26.931 16.404 5.037-9.744 15.206-16.404 26.931-16.404 16.733 0 30.298 13.565 30.298 30.297s-13.565 30.298-30.298 30.298c-11.725 0-21.894-6.66-26.931-16.404z" class="B"/></g><g filter="url(#I)" class="B"><use xlink:href="#S" x="322" y="152" class="B"/></g><g filter="url(#J)" class="B"><use xlink:href="#S" x="-78" y="152" class="B"/></g><g filter="url(#K)" class="B F"><path d="M945.983 438.935a30.188 30.188 0 0 1-20.198 7.715c-16.733 0-30.298-13.565-30.298-30.298s13.565-30.297 30.298-30.297a30.187 30.187 0 0 1 20.198 7.714 30.187 30.187 0 0 1 20.198-7.714c16.733 0 30.298 13.564 30.298 30.297s-13.565 30.298-30.298 30.298a30.188 30.188 0 0 1-20.198-7.715z" class="B"/></g><g filter="url(#L)" class="B"><path d="M1154 598.305c16.57 0 30-13.431 30-30s-13.43-30-30-30-30 13.431-30 30 13.43 30 30 30z" class="B"/></g><g filter="url(#M)" class="B"><use xlink:href="#S" x="531" y="152" class="B"/></g><g filter="url(#N)" class="B"><path d="M867.5 316.305c16.845 0 30.5-13.655 30.5-30.5s-13.655-30.5-30.5-30.5-30.5 13.655-30.5 30.5 13.655 30.5 30.5 30.5Z" class="B"/></g><g filter="url(#O)" class="B"><path d="M1107.5 428.305c16.84 0 30.5-13.655 30.5-30.5s-13.66-30.5-30.5-30.5-30.5 13.655-30.5 30.5 13.66 30.5 30.5 30.5Z" class="B"/></g><g filter="url(#P)" class="B"><path d="M1066.5 165.305c16.84 0 30.5-13.431 30.5-30s-13.66-30-30.5-30-30.5 13.431-30.5 30 13.66 30 30.5 30z" class="B"/></g></g><path d="M239 24.939H1v642h238v-642Z" fill="url(#Q)"/><path d="M1279 24.939h-238v642h238v-642Z" fill="url(#R)"/><defs><filter id="A" x="17.539" y="72.942" width="1198.46" height="564.363" filterUnits="userSpaceOnUse" class="C"><feFlood class="D"/><feBlend in="SourceGraphic"/><feGaussianBlur stdDeviation="16"/></filter><filter id="B" x="329" y="386.305" width="61" height="63" filterUnits="userSpaceOnUse" class="C"><feFlood class="D"/><feBlend in="SourceGraphic" result="B"/><feColorMatrix in="SourceAlpha" values="0 0 0 0 0 0 0 0 0 0 0 0 0 0 0 0 0 0 127 0" result="C"/><feOffset dy="3"/><feGaussianBlur stdDeviation="16"/><feComposite in2="C" operator="arithmetic" k2="-1" k3="1"/><feColorMatrix values="0 0 0 0 0.304167 0 0 0 0 0.927301 0 0 0 0 1 0 0 0 1 0"/><feBlend in2="B" result="D"/><feColorMatrix in="SourceAlpha" values="0 0 0 0 0 0 0 0 0 0 0 0 0 0 0 0 0 0 127 0" result="C"/><feOffset/><feGaussianBlur stdDeviation="2"/><feComposite in2="C" operator="arithmetic" k2="-1" k3="1"/><feColorMatrix values="0 0 0 0 1 0 0 0 0 1 0 0 0 0 1 0 0 0 0.3 0"/><feBlend in2="D"/></filter><filter id="C" x="136" y="278.305" width="60" height="64" filterUnits="userSpaceOnUse" class="C"><feFlood class="D"/><feBlend in="SourceGraphic" result="B"/><feColorMatrix in="SourceAlpha" values="0 0 0 0 0 0 0 0 0 0 0 0 0 0 0 0 0 0 127 0" result="C"/><feOffset dy="3"/><feGaussianBlur stdDeviation="16"/><feComposite in2="C" operator="arithmetic" k2="-1" k3="1"/><feColorMatrix values="0 0 0 0 0.304167 0 0 0 0 0.927301 0 0 0 0 1 0 0 0 1 0"/><feBlend in2="B" result="D"/><feColorMatrix in="SourceAlpha" values="0 0 0 0 0 0 0 0 0 0 0 0 0 0 0 0 0 0 127 0" result="C"/><feOffset/><feGaussianBlur stdDeviation="2"/><feComposite in2="C" operator="arithmetic" k2="-1" k3="1"/><feColorMatrix values="0 0 0 0 1 0 0 0 0 1 0 0 0 0 1 0 0 0 0.3 0"/><feBlend in2="D"/></filter><filter id="D" x="761" y="105.305" width="61" height="63" filterUnits="userSpaceOnUse" class="C"><feFlood class="D"/><feBlend in="SourceGraphic" result="B"/><feColorMatrix in="SourceAlpha" values="0 0 0 0 0 0 0 0 0 0 0 0 0 0 0 0 0 0 127 0" result="C"/><feOffset dy="3"/><feGaussianBlur stdDeviation="16"/><feComposite in2="C" operator="arithmetic" k2="-1" k3="1"/><feColorMatrix values="0 0 0 0 0.304167 0 0 0 0 0.927301 0 0 0 0 1 0 0 0 1 0"/><feBlend in2="B" result="D"/><feColorMatrix in="SourceAlpha" values="0 0 0 0 0 0 0 0 0 0 0 0 0 0 0 0 0 0 127 0" result="C"/><feOffset/><feGaussianBlur stdDeviation="2"/><feComposite in2="C" operator="arithmetic" k2="-1" k3="1"/><feColorMatrix values="0 0 0 0 1 0 0 0 0 1 0 0 0 0 1 0 0 0 0.3 0"/><feBlend in2="D"/></filter><filter id="E" x="526" y="105.305" width="61" height="63" filterUnits="userSpaceOnUse" class="C"><feFlood class="D"/><feBlend in="SourceGraphic" result="B"/><feColorMatrix in="SourceAlpha" values="0 0 0 0 0 0 0 0 0 0 0 0 0 0 0 0 0 0 127 0" result="C"/><feOffset dy="3"/><feGaussianBlur stdDeviation="16"/><feComposite in2="C" operator="arithmetic" k2="-1" k3="1"/><feColorMatrix values="0 0 0 0 0.304167 0 0 0 0 0.927301 0 0 0 0 1 0 0 0 1 0"/><feBlend in2="B" result="D"/><feColorMatrix in="SourceAlpha" values="0 0 0 0 0 0 0 0 0 0 0 0 0 0 0 0 0 0 127 0" result="C"/><feOffset/><feGaussianBlur stdDeviation="2"/><feComposite in2="C" operator="arithmetic" k2="-1" k3="1"/><feColorMatrix values="0 0 0 0 1 0 0 0 0 1 0 0 0 0 1 0 0 0 0.3 0"/><feBlend in2="D"/></filter><filter id="F" x="79" y="105.305" width="60" height="63" filterUnits="userSpaceOnUse" class="C"><feFlood class="D"/><feBlend in="SourceGraphic" result="B"/><feColorMatrix in="SourceAlpha" values="0 0 0 0 0 0 0 0 0 0 0 0 0 0 0 0 0 0 127 0" result="C"/><feOffset dy="3"/><feGaussianBlur stdDeviation="16"/><feComposite in2="C" operator="arithmetic" k2="-1" k3="1"/><feColorMatrix values="0 0 0 0 0.304167 0 0 0 0 0.927301 0 0 0 0 1 0 0 0 1 0"/><feBlend in2="B" result="D"/><feColorMatrix in="SourceAlpha" values="0 0 0 0 0 0 0 0 0 0 0 0 0 0 0 0 0 0 127 0" result="C"/><feOffset/><feGaussianBlur stdDeviation="2"/><feComposite in2="C" operator="arithmetic" k2="-1" k3="1"/><feColorMatrix values="0 0 0 0 1 0 0 0 0 1 0 0 0 0 1 0 0 0 0.3 0"/><feBlend in2="D"/></filter><filter id="G" x="297.461" y="104.942" width="107.724" height="63.595" filterUnits="userSpaceOnUse" class="C"><feFlood class="D"/><feBlend in="SourceGraphic" result="B"/><feColorMatrix in="SourceAlpha" values="0 0 0 0 0 0 0 0 0 0 0 0 0 0 0 0 0 0 127 0" result="C"/><feOffset dy="3"/><feGaussianBlur stdDeviation="16"/><feComposite in2="C" operator="arithmetic" k2="-1" k3="1"/><feColorMatrix values="0 0 0 0 0.304167 0 0 0 0 0.927301 0 0 0 0 1 0 0 0 1 0"/><feBlend in2="B" result="D"/><feColorMatrix in="SourceAlpha" values="0 0 0 0 0 0 0 0 0 0 0 0 0 0 0 0 0 0 127 0" result="C"/><feOffset/><feGaussianBlur stdDeviation="2"/><feComposite in2="C" operator="arithmetic" k2="-1" k3="1"/><feColorMatrix values="0 0 0 0 1 0 0 0 0 1 0 0 0 0 1 0 0 0 0.3 0"/><feBlend in2="D"/></filter><filter id="H" x="49.539" y="544.71" width="114.457" height="63.595" filterUnits="userSpaceOnUse" class="C"><feFlood class="D"/><feBlend in="SourceGraphic" result="B"/><feColorMatrix in="SourceAlpha" values="0 0 0 0 0 0 0 0 0 0 0 0 0 0 0 0 0 0 127 0" result="C"/><feOffset dy="3"/><feGaussianBlur stdDeviation="16"/><feComposite in2="C" operator="arithmetic" k2="-1" k3="1"/><feColorMatrix values="0 0 0 0 0.304167 0 0 0 0 0.927301 0 0 0 0 1 0 0 0 1 0"/><feBlend in2="B" result="D"/><feColorMatrix in="SourceAlpha" values="0 0 0 0 0 0 0 0 0 0 0 0 0 0 0 0 0 0 127 0" result="C"/><feOffset/><feGaussianBlur stdDeviation="2"/><feComposite in2="C" operator="arithmetic" k2="-1" k3="1"/><feColorMatrix values="0 0 0 0 1 0 0 0 0 1 0 0 0 0 1 0 0 0 0.3 0"/><feBlend in2="D"/></filter><filter id="I" x="651" y="538.305" width="61" height="63" filterUnits="userSpaceOnUse" class="C"><feFlood class="D"/><feBlend in="SourceGraphic" result="B"/><feColorMatrix in="SourceAlpha" values="0 0 0 0 0 0 0 0 0 0 0 0 0 0 0 0 0 0 127 0" result="C"/><feOffset dy="3"/><feGaussianBlur stdDeviation="16"/><feComposite in2="C" operator="arithmetic" k2="-1" k3="1"/><feColorMatrix values="0 0 0 0 0.304167 0 0 0 0 0.927301 0 0 0 0 1 0 0 0 1 0"/><feBlend in2="B" result="D"/><feColorMatrix in="SourceAlpha" values="0 0 0 0 0 0 0 0 0 0 0 0 0 0 0 0 0 0 127 0" result="C"/><feOffset/><feGaussianBlur stdDeviation="2"/><feComposite in2="C" operator="arithmetic" k2="-1" k3="1"/><feColorMatrix values="0 0 0 0 1 0 0 0 0 1 0 0 0 0 1 0 0 0 0.3 0"/><feBlend in2="D"/></filter><filter id="J" x="251" y="538.305" width="61" height="63" filterUnits="userSpaceOnUse" class="C"><feFlood class="D"/><feBlend in="SourceGraphic" result="B"/><feColorMatrix in="SourceAlpha" values="0 0 0 0 0 0 0 0 0 0 0 0 0 0 0 0 0 0 127 0" result="C"/><feOffset dy="3"/><feGaussianBlur stdDeviation="16"/><feComposite in2="C" operator="arithmetic" k2="-1" k3="1"/><feColorMatrix values="0 0 0 0 0.304167 0 0 0 0 0.927301 0 0 0 0 1 0 0 0 1 0"/><feBlend in2="B" result="D"/><feColorMatrix in="SourceAlpha" values="0 0 0 0 0 0 0 0 0 0 0 0 0 0 0 0 0 0 127 0" result="C"/><feOffset/><feGaussianBlur stdDeviation="2"/><feComposite in2="C" operator="arithmetic" k2="-1" k3="1"/><feColorMatrix values="0 0 0 0 1 0 0 0 0 1 0 0 0 0 1 0 0 0 0.3 0"/><feBlend in2="D"/></filter><filter id="K" x="895.487" y="386.055" width="100.992" height="63.595" filterUnits="userSpaceOnUse" class="C"><feFlood class="D"/><feBlend in="SourceGraphic" result="B"/><feColorMatrix in="SourceAlpha" values="0 0 0 0 0 0 0 0 0 0 0 0 0 0 0 0 0 0 127 0" result="C"/><feOffset dy="3"/><feGaussianBlur stdDeviation="16"/><feComposite in2="C" operator="arithmetic" k2="-1" k3="1"/><feColorMatrix values="0 0 0 0 0.304167 0 0 0 0 0.927301 0 0 0 0 1 0 0 0 1 0"/><feBlend in2="B" result="D"/><feColorMatrix in="SourceAlpha" values="0 0 0 0 0 0 0 0 0 0 0 0 0 0 0 0 0 0 127 0" result="C"/><feOffset/><feGaussianBlur stdDeviation="2"/><feComposite in2="C" operator="arithmetic" k2="-1" k3="1"/><feColorMatrix values="0 0 0 0 1 0 0 0 0 1 0 0 0 0 1 0 0 0 0.3 0"/><feBlend in2="D"/></filter><filter id="L" x="1124" y="538.305" width="60" height="63" filterUnits="userSpaceOnUse" class="C"><feFlood class="D"/><feBlend in="SourceGraphic" result="B"/><feColorMatrix in="SourceAlpha" values="0 0 0 0 0 0 0 0 0 0 0 0 0 0 0 0 0 0 127 0" result="C"/><feOffset dy="3"/><feGaussianBlur stdDeviation="16"/><feComposite in2="C" operator="arithmetic" k2="-1" k3="1"/><feColorMatrix values="0 0 0 0 0.304167 0 0 0 0 0.927301 0 0 0 0 1 0 0 0 1 0"/><feBlend in2="B" result="D"/><feColorMatrix in="SourceAlpha" values="0 0 0 0 0 0 0 0 0 0 0 0 0 0 0 0 0 0 127 0" result="C"/><feOffset/><feGaussianBlur stdDeviation="2"/><feComposite in2="C" operator="arithmetic" k2="-1" k3="1"/><feColorMatrix values="0 0 0 0 1 0 0 0 0 1 0 0 0 0 1 0 0 0 0.3 0"/><feBlend in2="D"/></filter><filter id="M" x="860" y="538.305" width="61" height="63" filterUnits="userSpaceOnUse" class="C"><feFlood class="D"/><feBlend in="SourceGraphic" result="B"/><feColorMatrix in="SourceAlpha" values="0 0 0 0 0 0 0 0 0 0 0 0 0 0 0 0 0 0 127 0" result="C"/><feOffset dy="3"/><feGaussianBlur stdDeviation="16"/><feComposite in2="C" operator="arithmetic" k2="-1" k3="1"/><feColorMatrix values="0 0 0 0 0.304167 0 0 0 0 0.927301 0 0 0 0 1 0 0 0 1 0"/><feBlend in2="B" result="D"/><feColorMatrix in="SourceAlpha" values="0 0 0 0 0 0 0 0 0 0 0 0 0 0 0 0 0 0 127 0" result="C"/><feOffset/><feGaussianBlur stdDeviation="2"/><feComposite in2="C" operator="arithmetic" k2="-1" k3="1"/><feColorMatrix values="0 0 0 0 1 0 0 0 0 1 0 0 0 0 1 0 0 0 0.3 0"/><feBlend in2="D"/></filter><filter id="N" x="837" y="255.305" width="61" height="64" filterUnits="userSpaceOnUse" class="C"><feFlood class="D"/><feBlend in="SourceGraphic" result="B"/><feColorMatrix in="SourceAlpha" values="0 0 0 0 0 0 0 0 0 0 0 0 0 0 0 0 0 0 127 0" result="C"/><feOffset dy="3"/><feGaussianBlur stdDeviation="16"/><feComposite in2="C" operator="arithmetic" k2="-1" k3="1"/><feColorMatrix values="0 0 0 0 0.304167 0 0 0 0 0.927301 0 0 0 0 1 0 0 0 1 0"/><feBlend in2="B" result="D"/><feColorMatrix in="SourceAlpha" values="0 0 0 0 0 0 0 0 0 0 0 0 0 0 0 0 0 0 127 0" result="C"/><feOffset/><feGaussianBlur stdDeviation="2"/><feComposite in2="C" operator="arithmetic" k2="-1" k3="1"/><feColorMatrix values="0 0 0 0 1 0 0 0 0 1 0 0 0 0 1 0 0 0 0.3 0"/><feBlend in2="D"/></filter><filter id="O" x="1077" y="367.305" width="61" height="64" filterUnits="userSpaceOnUse" class="C"><feFlood class="D"/><feBlend in="SourceGraphic" result="B"/><feColorMatrix in="SourceAlpha" values="0 0 0 0 0 0 0 0 0 0 0 0 0 0 0 0 0 0 127 0" result="C"/><feOffset dy="3"/><feGaussianBlur stdDeviation="16"/><feComposite in2="C" operator="arithmetic" k2="-1" k3="1"/><feColorMatrix values="0 0 0 0 0.304167 0 0 0 0 0.927301 0 0 0 0 1 0 0 0 1 0"/><feBlend in2="B" result="D"/><feColorMatrix in="SourceAlpha" values="0 0 0 0 0 0 0 0 0 0 0 0 0 0 0 0 0 0 127 0" result="C"/><feOffset/><feGaussianBlur stdDeviation="2"/><feComposite in2="C" operator="arithmetic" k2="-1" k3="1"/><feColorMatrix values="0 0 0 0 1 0 0 0 0 1 0 0 0 0 1 0 0 0 0.3 0"/><feBlend in2="D"/></filter><filter id="P" x="1036" y="105.305" width="61" height="63" filterUnits="userSpaceOnUse" class="C"><feFlood class="D"/><feBlend in="SourceGraphic" result="B"/><feColorMatrix in="SourceAlpha" values="0 0 0 0 0 0 0 0 0 0 0 0 0 0 0 0 0 0 127 0" result="C"/><feOffset dy="3"/><feGaussianBlur stdDeviation="16"/><feComposite in2="C" operator="arithmetic" k2="-1" k3="1"/><feColorMatrix values="0 0 0 0 0.304167 0 0 0 0 0.927301 0 0 0 0 1 0 0 0 1 0"/><feBlend in2="B" result="D"/><feColorMatrix in="SourceAlpha" values="0 0 0 0 0 0 0 0 0 0 0 0 0 0 0 0 0 0 127 0" result="C"/><feOffset/><feGaussianBlur stdDeviation="2"/><feComposite in2="C" operator="arithmetic" k2="-1" k3="1"/><feColorMatrix values="0 0 0 0 1 0 0 0 0 1 0 0 0 0 1 0 0 0 0.3 0"/><feBlend in2="D"/></filter><linearGradient id="Q" x1="-64.405" y1="24.939" x2="218.095" y2="24.939" gradientUnits="userSpaceOnUse"><stop offset=".302" stop-color="#111214"/><stop offset="1" stop-color="#111214" stop-opacity="0"/></linearGradient><linearGradient id="R" x1="975.595" y1="24.939" x2="1258.1" y2="24.939" gradientUnits="userSpaceOnUse"><stop offset=".307" stop-color="#111214" stop-opacity="0"/><stop offset=".74" stop-color="#111214"/></linearGradient><path id="S" d="M359.5 446.305c16.845 0 30.5-13.431 30.5-30s-13.655-30-30.5-30-30.5 13.431-30.5 30 13.655 30 30.5 30z"/></defs></svg>