<svg width="176" height="80" viewBox="0 0 176 80" fill="none" xmlns="http://www.w3.org/2000/svg">
<path d="M40 80C62.0914 80 80 62.0914 80 40C80 17.9086 62.0914 0 40 0C17.9086 0 0 17.9086 0 40C0 62.0914 17.9086 80 40 80Z" fill="#45CD85"/>
<path d="M38.3201 60.9599C46.1601 60.9599 52.8001 55.9199 55.2801 48.9599H50.4001C48.2401 53.4399 43.6001 56.4799 38.3201 56.4799C30.8801 56.4799 24.8001 50.3999 24.8001 42.9599C24.8001 37.6799 27.8401 33.0399 32.3201 30.8799V25.9999C25.3601 28.4799 20.3201 35.1199 20.3201 42.9599C20.3201 52.8799 28.4001 60.9599 38.3201 60.9599ZM48.6401 38.9599V32.3999C50.8801 32.9599 52.6401 33.6799 52.6401 35.5999C52.6401 37.3599 51.1201 38.6399 48.6401 38.9599ZM45.6001 45.0399H48.8001V42.5599C53.5201 41.9999 56.5601 39.2799 56.5601 35.5999C56.5601 30.4799 52.4801 29.3599 48.6401 28.6399V21.8399C50.4801 21.9999 52.4801 22.5599 54.3201 23.4399V19.4399C52.5601 18.7999 50.6401 18.3999 48.8001 18.3199V15.9199H45.6001V18.3199C40.7201 18.8799 37.9201 21.5999 37.9201 25.0399C37.9201 30.2399 41.9201 31.4399 45.7601 32.1599V38.9599C43.4401 38.6399 40.9601 37.6799 38.0801 36.1599V40.3999C40.5601 41.5999 43.1201 42.3999 45.6001 42.5599V45.0399ZM45.7601 28.3199C43.5201 27.8399 41.8401 27.0399 41.8401 25.0399C41.8401 23.1999 43.2801 22.0799 45.7601 21.8399V28.3199Z" fill="white"/>
<path d="M136 80C158.091 80 176 62.0914 176 40C176 17.9086 158.091 0 136 0C113.909 0 96 17.9086 96 40C96 62.0914 113.909 80 136 80Z" fill="#45CD85"/>
<path d="M131.6 62.4C139.44 62.4 146.08 57.36 148.56 50.4H143.68C141.52 54.88 136.88 57.92 131.6 57.92C124.16 57.92 118.08 51.84 118.08 44.4C118.08 39.12 121.12 34.48 125.6 32.32V27.44C118.64 29.92 113.6 36.56 113.6 44.4C113.6 54.32 121.68 62.4 131.6 62.4ZM146.64 45.2C149.28 45.2 151.76 44.48 153.84 43.2V39.04C151.84 40.56 149.44 41.52 146.72 41.52C142.88 41.52 139.84 39.68 138.4 36.64H149.04L150 33.44H137.44C137.36 32.96 137.36 32.56 137.36 32.08C137.36 31.6 137.36 31.12 137.44 30.64H150.88L151.84 27.44H138.32C139.76 24.32 142.72 22.48 146.72 22.48C148.88 22.48 150.96 23.04 152.88 24.08L154 20.48C151.84 19.36 149.28 18.8 146.72 18.8C140.72 18.8 136 22.24 134.24 27.36H130.72L129.76 30.4H133.6C133.52 30.96 133.52 31.52 133.52 32.08C133.52 32.64 133.52 33.12 133.6 33.68H130.72L129.76 36.72H134.32C136 41.84 140.64 45.2 146.64 45.2Z" fill="white"/>
</svg>
