<svg xmlns="http://www.w3.org/2000/svg" width="48" height="48" fill="none" xmlns:v="https://vecta.io/nano"><path fill-rule="evenodd" d="M46.5 24c0 12.426-10.074 22.5-22.5 22.5S1.5 36.426 1.5 24 11.574 1.5 24 1.5 46.5 11.574 46.5 24zM24 48c13.255 0 24-10.745 24-24S37.255 0 24 0 0 10.745 0 24s10.745 24 24 24zm-6.196-28.588a.75.75 0 1 0-1.045-1.077l-5.282 5.126a.75.75 0 0 0-.002 1.075l5.282 5.164a.75.75 0 0 0 1.049-1.073l-4.731-4.626 4.729-4.589zm12.375-1.061a.75.75 0 0 0 .016 1.061l4.73 4.589-4.732 4.626a.75.75 0 0 0 1.049 1.073l5.282-5.164a.75.75 0 0 0-.002-1.075l-5.282-5.126a.75.75 0 0 0-1.06.016zm-2.472-2.603a.75.75 0 0 0-1.415-.499l-6 17a.75.75 0 0 0 1.415.499l6-17z" fill="#ffe6ff"/></svg>