<svg xmlns="http://www.w3.org/2000/svg" xmlns:xlink="http://www.w3.org/1999/xlink" width="72" height="72" fill="none" xmlns:v="https://vecta.io/nano"><g fill-rule="evenodd"><use xlink:href="#B" fill="#fff"/><use xlink:href="#B" fill="url(#A)"/></g><defs><linearGradient id="A" x1="60.829" y1="13.488" x2="34.6" y2="53.232" gradientUnits="userSpaceOnUse"><stop offset=".256" stop-color="#35d07f"/><stop offset="1" stop-color="#fbcc5c"/></linearGradient><path id="B" d="M17.471 24.805c-.387.498-.887 1.025-1.409 1.575l-1.489 1.651c-.795 1.525-1.575 3.246-2.334 5.183.383-.206.786-.351 1.219-.394-.533.523-1.031 1.11-1.522 1.69l-.307.362-.313.876-.623 1.941c.755-.487 1.655-.828 2.337-1.081-1.033.527-2.046 1.594-2.804 2.695L9.6 41.891c1.333-.897 2.898-1.62 4.215-2.167a10.84 10.84 0 0 0-4.535 3.859l-.213 1.749c.156-.102.337-.191.512-.267-.203.227-.393.493-.545.779a15.12 15.12 0 0 0 .038 2.497c.243-.264.513-.513.795-.722-.273.641-.492 1.276-.61 1.948.665 3.053 2.417 3.746 2.902 3.765.87.039 1.244-.221 1.836-.631l.409-.277c.13-.084.268-.182.393-.321.476-.926.87-1.827.932-2.905.261.344.382.664.4.982l1.788-3.389c.193-.94.312-1.901.068-2.92.508.202.776.533.928.955l3.218-6.746c.341-1.673.053-3.39-.229-5.069l-.336-2.442c.18.496.506.883.834 1.273.316.376.634.753.824 1.232.247.661.324 1.351.286 2.032l.481-1.04.669-1.441c.26-1.155.213-2.403.168-3.615l-.005-2.244c.766 1.227.927 2.594.716 3.952 2.238-4.875 2.405-5.863 2.216-7.98-.094-1.075-1.038-3.508-1.038-3.508l1.745 1.218-1.215-1.893 3.179 1.639s.12-.449-.214-1.942c-.347-1.5-2.617-1.733-2.617-1.733s1.181-.517 1.723-.57 1.51-.684 1.51-.684-.881-.4-1.198-.415c-.493-.006-1.624.384-2.237.604-9.051 15.45-11.067 20.615-11.067 20.615 1.367-4.074 3.093-7.701 5.445-12.02 3.16-5.803 6.669-11.523 7.922-13.556l-.693-.368-3.257 5.119s-.296-.055-1.484-.071c-1.195-.004-2.752 1.219-2.752 1.219l2.442-.41-2.295 1.001 2.189-.032s-3.726 1.794-7.755 8.331c.438-.245.889-.45 1.383-.477zm-7.854 20.24c-.008.005-.014.008-.022.004.008-.002.02-.008.03-.012.016-.007.028-.012.011 0-.008.003-.014.006-.019.009zm48.154-16.54c.286.576.444 1.347.201 1.61-.124.135-.297.086-.502.028-.196-.055-.422-.119-.662-.037-.455.151-.497-.144-.609-.946l-.017-.121c-.071-.482.012-.708.143-1.061.115-.311.267-.722.382-1.493.245-1.647-1.061-3.077-1.061-3.077a6.39 6.39 0 0 0 .269 1.933c-.024 1.051-.769 2.818-.769 2.818l-.24-1.588c-.083-.643-.223-1.943-.336-3.432-.126-1.482-1.568-3.35-1.568-3.35s.438 1.247.39 2.139-.494 1.723-.494 1.723-.231.049-.438-.953c-.039-.174-.04-.392-.04-.685-.001-.426-.003-1.013-.123-1.864-.203-1.436-1.765-3.511-1.765-3.511s.821 1.99.841 2.791-.058 3.145-.058 3.145-.851-3.131-1.452-4.334c-.475-.976-1.701-2.715-2.197-3.419l-.211-.303c-.017-.029.015.048.076.195.213.508.775 1.85.838 2.484.081.817-.033 1.92-.033 1.92s-1.108-3.274-4.897-7.847c-3.776-4.58-8.968-3.199-9.355-2.592-.744 1.179-.613 2.139.529 4.823 1.198 2.827 2.816 4.047 4.708 5.472l.73.554c1.4 1.077 2.5 1.405 3.217 1.618.413.123.699.208.842.377.309.364-.073.413-.712.494l-.56.079c-.946.156-3.661-.846-3.661-.846s2.365 1.674 4.149 3.152c1.166.971 2.461 1.449 3.254 1.742.425.157.705.26.745.358.112.28-1.173.566-2.421.502s-2.282-1.826-2.282-1.826-.054 1.293 1.011 2.225c1.027.898 2.54.708 4.193.5l.186-.023c1.725-.215 2.005.675 2.079 1.098.071.398-1.017.387-2.115.377l-.207-.002c-1.164-.009-1.899-.789-1.899-.789s.393.582.716 1.015c.318.453.952.532 1.838.479s2.783.911 2.783.911-1.112-.334-1.429-.373c-.123-.015-.268.037-.456.105-.298.108-.705.254-1.301.232-.724-.025-2.305-1.069-2.305-1.069l1.594 1.538c.497.463.982.457 1.813.447a20.23 20.23 0 0 1 .872.003c1.101.031 1.515.39 1.811.646.082.071.155.134.231.18.341.198-.213.522-.811.769-.606.234-1.681.172-1.681.172s.242.325.778.53c.523.212 1.605-.301 1.605-.301s-.251.545-1.099.868-2.514-.895-2.514-.895.264.657 1.344 1.407c.526.366 1.167.457 1.739.399.106.594.955 1.186 1.936 1.649.408.193.876.299 1.293.393.634.143 1.149.259 1.148.614-.001.588-2.05-.251-2.05-.251s.656 1.119 1.91 2.165c.968.824 2.227.683 3.177.577.372-.042.697-.078.938-.049-1.592-2.921-3.381-6.177-6.225-11.026 0 0 3.599 5.133 5.341 8.191a174.42 174.42 0 0 1 3.384 6.246L63 45.557l-.069-1.238-1.754-3.933s-.45-1.327-.034-2.21c.504-1.051.198-1.457-.352-2.188l-.332-.453-.33-.468-.859-1.203a4.19 4.19 0 0 1 .098-.204c.137-.273.272-.54.275-1.224-.001-.621-.212-1.068-.419-1.362.052-.312-.076-.689-.274-1.272l-.064-.189c-.43-1.234-1.85-2.269-1.85-2.269s.447.585.733 1.161zm-2.122 6.997c.159.477-.781 1.028-2.172.926-.739-.051-1.29-.489-1.637-.873.415-.088.768-.225.973-.346.567-.332 2.676-.185 2.835.292zm4.158 1.782c-.108.525-.497-.06-.853-.597l-.129-.193c-.223-.329-.127-.567.01-.908.1-.25.223-.556.258-.994a6.93 6.93 0 0 1 .055-.378c.027.312.108.714.284 1.043.326.673.497 1.437.376 2.026zm-.915-4.303c-.077.296-.249.542-.407.77-.136.196-.264.379-.313.567-.106.408-.468-.296-.748-.892-.286-.576.252-1.133 1.153-1.661.116-.068.211-.141.294-.206.056.537.096 1.136.021 1.422zm-21.28 15.736l-2.616-.692 3.48-1.112c.986-.319 1.547-.247 1.547-.247l.615-.138 3.43.068-1.792-.66s4.412-.443 6.796.533l-.266-.109c-1.093-.449-2.102-.864-3.394-1.141 0 0 2.188-.126 3.603.223s1.957.517 1.957.517-1.159-.715-1.733-.978-1.178-.47-1.178-.47 3.135.284 4.543 1.113 1.647 1.215 1.647 1.215l3.316-.864.661.533-2.299.789-4.332 1.135-10.323 2.744c-8.602 2.392-14.146 5.879-15.497 6.729l-.278.172c.642-.327 10.26-5.04 18.901-7.046l10.768-2.62c.313.362.675.827.882 1.313.441 1.008.526 1.622.526 1.622s-1.03-.667-1.41-1.187-.793-.789-.793-.789.392 1.711.524 2.116.498 1.034.498 1.034l-1.413-1.096s-.236 1.78-.518 2.065l-.488.502s.124-1.624.065-2.157c-.055-.52-.452-1.243-.452-1.243s-.305 1.368-.969 2.331c-.556.806-.988 2.137-1.132 2.581l-.05.147c-.017.022-.028-.082-.047-.257-.032-.3-.087-.808-.231-1.251-.292-.951-.214-1.664-.072-1.978.342-.753.446-1.235.446-1.235s-.783-.105-1.654 2.074c-.876 2.166-1.892 3.048-2.731 3.469s-1.281.415-1.281.415 1.165-.571 1.403-1.694.61-2.633.61-2.633-1.153 1.763-2.14 3.083c-.973 1.316-1.799 1.778-2.755 2.192-.945.396-1.4.349-1.4.349s1.488-.781 1.915-1.472c.23-.372.366-.844.496-1.294.111-.386.218-.757.376-1.035.337-.617.574-.888.574-.888s-1.002.922-2.111 2.372-2.787 2.546-4.288 2.883-1.987.345-1.987.345.414-1.434.975-2.213 1.623-1.87 1.623-1.87-1.71.748-2.757 2.536c-1.052 1.775-1.465 2.357-2.067 2.507-.142.036-.329.057-.566.084-.765.088-2.052.236-4.042 1.109l-1.732.785c-2.077.956-4.133 1.903-5.512 1.964-1.769.065-2.942-.541-4.029-2.236-.949-1.471-1.463-3.156 1.072-4.874 1.571-1.064 2.745-1.679 3.466-2.056.442-.232.715-.374.805-.477a2.18 2.18 0 0 0 .13-.171c.201-.282.484-.679 1.435-1.023.463-.168 1.267-.557 2.177-.997 1.378-.667 2.999-1.453 4.054-1.767 1.765-.527 2.091-.677 2.091-.677l.149-.392 2.281-.141-.779-.345 3.28-.121z"/></defs></svg>